<?xml version="1.0" encoding="UTF-8"?>
<svg version="1.1" xmlns="http://www.w3.org/2000/svg" width="261" height="284">
<path d="M0 0 C0.80969551 -0.0055344 1.61939102 -0.01106879 2.45362276 -0.0167709 C5.17621353 -0.03042207 7.89789464 -0.01538444 10.62046814 -0.00050354 C12.56838369 -0.00428507 14.51629657 -0.00978374 16.46420288 -0.01687622 C21.761625 -0.03086883 27.05872373 -0.01963477 32.35612798 -0.00316501 C37.89121985 0.0106552 43.42629238 0.00422896 48.96139526 0.0007019 C58.25666027 -0.00200239 67.55179631 0.01149506 76.84703064 0.03465271 C87.6063113 0.0612716 98.36537637 0.06300787 109.12467867 0.05126435 C119.46010486 0.04050035 129.79545277 0.04666228 140.13087273 0.06081963 C144.53636453 0.06659062 148.94179927 0.06648804 153.34729195 0.06175423 C158.53063145 0.05699602 163.71373365 0.06703794 168.89702797 0.08870888 C170.80383758 0.09429245 172.71066993 0.09472775 174.61748123 0.08975601 C177.21148162 0.08383873 179.80474763 0.09623902 182.39868164 0.11352539 C183.16121736 0.10751535 183.92375308 0.1015053 184.70939595 0.09531313 C186.8058939 0.12088871 186.8058939 0.12088871 190.135849 0.50120544 C192.66749806 4.29867904 192.42035394 7.33182397 192.40327454 11.73153687 C192.40780565 12.58065677 192.41233676 13.42977667 192.41700518 14.30462748 C192.4297032 17.16049141 192.42802535 20.01616595 192.42637634 22.87205505 C192.43235818 24.91524502 192.43916292 26.95843272 192.44673157 29.00161743 C192.46443275 34.55939439 192.46908865 40.1171098 192.47036314 45.67491221 C192.47225962 50.30982955 192.47961415 54.94473246 192.48670733 59.57964426 C192.50300414 70.51143182 192.50787506 81.44318643 192.50645447 92.37498474 C192.50525233 103.66365143 192.52636572 114.95212714 192.55794179 126.24074548 C192.58406314 135.92317544 192.59482352 145.60554286 192.59354365 155.2880078 C192.59303284 161.07514977 192.59878139 166.86212207 192.61989975 172.64922905 C192.63921271 178.09031133 192.63945427 183.53106085 192.62486649 188.97215462 C192.62276872 190.97166553 192.62753649 192.9711969 192.6395874 194.97067261 C192.65494914 197.69547412 192.64579233 200.41911513 192.63032532 203.14389038 C192.64061244 203.9395099 192.65089957 204.73512942 192.66149843 205.55485862 C192.61952334 208.8893767 192.36484216 211.13082432 190.59601021 213.99179173 C187.1973909 216.07698947 184.14815948 216.05552368 180.27879333 216.00914001 C179.48190519 216.01537998 178.68501704 216.02161994 177.86398077 216.02804899 C175.1906317 216.04401872 172.5181894 216.03135952 169.84483337 216.01878357 C167.92957018 216.02420293 166.01431116 216.03132454 164.09906006 216.0400238 C158.8945452 216.0582822 153.69034699 216.0511792 148.48582649 216.03850746 C143.04375977 216.02839285 137.60172048 216.03776886 132.15965271 216.04405212 C123.01999535 216.05133301 113.88046721 216.04172922 104.74082947 216.02268982 C94.1684113 216.00092028 83.59630166 216.00797134 73.02389097 216.02999544 C63.95288305 216.04813684 54.8819681 216.05071392 45.8109479 216.04024076 C40.39048485 216.03399891 34.97016691 216.03318923 29.54971313 216.04638672 C24.45412412 216.05792622 19.35893357 216.04995418 14.26338768 216.02680969 C12.3912796 216.02151244 10.51913809 216.02305368 8.64704323 216.03186035 C6.09520823 216.04275951 3.54465739 216.02912129 0.99290466 216.00914001 C0.24854959 216.0180629 -0.49580548 216.02698579 -1.26271677 216.03617907 C-4.46764727 215.98735814 -6.57421069 215.67945585 -9.32389164 213.98899841 C-11.50731623 210.46237914 -11.41419564 207.21086784 -11.36535645 203.18858337 C-11.37089084 202.3426926 -11.37642524 201.49680182 -11.38212734 200.625278 C-11.39575879 197.78609707 -11.38075123 194.94779143 -11.36585999 192.10862732 C-11.36964225 190.07514064 -11.37514153 188.04165654 -11.38223267 186.00817871 C-11.39621651 180.4813546 -11.38499685 174.95484077 -11.36852145 169.42803383 C-11.35469123 163.6496467 -11.36112872 157.87127795 -11.36465454 152.09288025 C-11.36735827 142.38828011 -11.35386705 132.68380353 -11.33070374 122.97923279 C-11.30409303 111.75247909 -11.30234633 100.52593204 -11.3140921 89.29915762 C-11.32486381 78.50829004 -11.31868756 67.71749737 -11.30453682 56.92663574 C-11.29877176 52.33021275 -11.29886379 47.73384447 -11.30360222 43.13742065 C-11.30836749 37.72671091 -11.29828886 32.31622802 -11.27664757 26.90556145 C-11.27107341 24.91735029 -11.27062014 22.92911735 -11.27560043 20.94090462 C-11.28153684 18.23162547 -11.26907984 15.52304374 -11.25183105 12.81382751 C-11.2578411 12.02278106 -11.26385115 11.23173461 -11.27004331 10.41671705 C-11.23456837 7.36282282 -11.00748304 4.8465464 -9.83143044 2.01299191 C-6.7903043 -0.32400874 -3.6780057 -0.0464646 0 0 Z " fill="#FBFBFA" transform="translate(39.86415100097656,-0.5012054443359375)"/>
<path d="M0 0 C-1.21767833 14.83644912 -3.05466528 29.41077534 -6 44 C-8.54570362 41.49216635 -10.96086967 39.04919241 -13.1875 36.25 C-14.80309077 33.92512612 -14.80309077 33.92512612 -17 33 C-17.433125 34.36125 -17.433125 34.36125 -17.875 35.75 C-18.76531776 38.32202908 -19.71494413 40.61346766 -21 43 C-21.66 43 -22.32 43 -23 43 C-24.93075081 40.72247812 -26.75973389 38.43771937 -28.5625 36.0625 C-29.56342312 34.76142712 -30.56470682 33.46063154 -31.56640625 32.16015625 C-32.36949219 31.11730469 -33.17257813 30.07445312 -34 29 C-36.11925604 26.88074396 -40.6196093 27.58168983 -43.5625 27.4375 C-44.36880859 27.39431641 -45.17511719 27.35113281 -46.00585938 27.30664062 C-48.00368805 27.20024738 -50.0018207 27.09959112 -52 27 C-52 26.34 -52 25.68 -52 25 C-51.25129639 24.6282666 -50.50259277 24.2565332 -49.73120117 23.87353516 C-34.72793226 16.4172816 -19.7891367 8.87495794 -5 1 C-3 0 -3 0 0 0 Z " fill="#FD8502" transform="translate(154,46)"/>
<path d="M0 0 C0.99 0 1.98 0 3 0 C1.78232167 14.83644912 -0.05466528 29.41077534 -3 44 C-6.36544114 40.72886194 -9.41134404 37.37541012 -12.3125 33.6875 C-13.00988281 32.80449219 -13.70726562 31.92148438 -14.42578125 31.01171875 C-14.94527344 30.34785156 -15.46476563 29.68398437 -16 29 C-14.6929274 25.40237785 -13.12388579 22.52841047 -10.875 19.4375 C-6.77526333 13.71513071 -2.8837239 7.87098003 1 2 C0.67 1.34 0.34 0.68 0 0 Z " fill="#FE9D08" transform="translate(151,46)"/>
<path d="M0 0 C-0.66 1.32 -1.32 2.64 -2 4 C-2.66 4 -3.32 4 -4 4 C-4 4.66 -4 5.32 -4 6 C-4.639375 6.103125 -5.27875 6.20625 -5.9375 6.3125 C-6.9584375 6.6528125 -6.9584375 6.6528125 -8 7 C-8.33 7.99 -8.66 8.98 -9 10 C-11.0625 10.6875 -11.0625 10.6875 -13 11 C-13 11.66 -13 12.32 -13 13 C-14.32 13.33 -15.64 13.66 -17 14 C-17 14.66 -17 15.32 -17 16 C-18.65 16.66 -20.3 17.32 -22 18 C-22 18.66 -22 19.32 -22 20 C-22.928125 20.12375 -22.928125 20.12375 -23.875 20.25 C-26.53489979 20.91214206 -26.53489979 20.91214206 -28 25 C-33.61 24.67 -39.22 24.34 -45 24 C-45 23.34 -45 22.68 -45 22 C-44.23034912 21.61779297 -43.46069824 21.23558594 -42.66772461 20.84179688 C-39.0898655 19.06343371 -35.51331154 17.28247583 -31.9375 15.5 C-31.29806458 15.18142029 -30.65862915 14.86284058 -29.99981689 14.53460693 C-21.41578448 10.25436971 -12.890892 5.89358704 -4.4921875 1.2578125 C-2 0 -2 0 0 0 Z " fill="#FEA317" transform="translate(147,49)"/>
<path d="M0 0 C-0.433125 0.8353125 -0.433125 0.8353125 -0.875 1.6875 C-1.24625 2.450625 -1.6175 3.21375 -2 4 C-2.4125 4.825 -2.825 5.65 -3.25 6.5 C-3.4975 7.325 -3.745 8.15 -4 9 C-3.45472656 9.90492187 -3.45472656 9.90492187 -2.8984375 10.828125 C-2 13 -2 13 -2.8984375 15.578125 C-3.38570312 16.45984375 -3.87296875 17.3415625 -4.375 18.25 C-4.85710937 19.14203125 -5.33921875 20.0340625 -5.8359375 20.953125 C-6.22007812 21.62859375 -6.60421875 22.3040625 -7 23 C-7.66 23 -8.32 23 -9 23 C-10.54296875 21.390625 -10.54296875 21.390625 -12.1875 19.25 C-12.73792969 18.55390625 -13.28835937 17.8578125 -13.85546875 17.140625 C-15 15 -15 15 -14.94921875 13.05859375 C-13.62057456 10.17713084 -11.76068094 8.15207281 -9.625 5.8125 C-8.83351562 4.93207031 -8.04203125 4.05164063 -7.2265625 3.14453125 C-4.84033202 0.84621452 -3.33867674 0 0 0 Z " fill="#CA6203" transform="translate(140,66)"/>
<path d="M0 0 C0.66 0 1.32 0 2 0 C2 3.3 2 6.6 2 10 C0.35 10 -1.3 10 -3 10 C-3 8.02 -3 6.04 -3 4 C-3.99 4 -4.98 4 -6 4 C-6 5.65 -6 7.3 -6 9 C-6.33 9 -6.66 9 -7 9 C-7 7.35 -7 5.7 -7 4 C-7.99 4 -8.98 4 -10 4 C-10 5.98 -10 7.96 -10 10 C-14 10 -18 10 -22 10 C-22.33 7.36 -22.66 4.72 -23 2 C-22.01 2 -21.02 2 -20 2 C-18.989375 1.979375 -17.97875 1.95875 -16.9375 1.9375 C-14 2 -14 2 -12 3 C-9.70955023 2.82615182 -7.46427858 2.48576032 -5.19140625 2.15625 C-3 2 -3 2 0 3 C0 2.01 0 1.02 0 0 Z " fill="#A8A8A8" transform="translate(117,159)"/>
<path d="M0 0 C0.66 0 1.32 0 2 0 C2 2.97 2 5.94 2 9 C1.67 9 1.34 9 1 9 C1 7.02 1 5.04 1 3 C0.01 3.495 0.01 3.495 -1 4 C-1 5.98 -1 7.96 -1 10 C-1.66 9.67 -2.32 9.34 -3 9 C-3 7.35 -3 5.7 -3 4 C-3.66 4 -4.32 4 -5 4 C-5 5.98 -5 7.96 -5 10 C-8.96 10 -12.92 10 -17 10 C-16.34 8.35 -15.68 6.7 -15 5 C-15.66 4.34 -16.32 3.68 -17 3 C-16.08476563 2.93941406 -15.16953125 2.87882813 -14.2265625 2.81640625 C-12.44378906 2.69072266 -12.44378906 2.69072266 -10.625 2.5625 C-9.44164063 2.48128906 -8.25828125 2.40007812 -7.0390625 2.31640625 C-4.08481099 2.18915064 -4.08481099 2.18915064 -2 1 C-1.34 1.33 -0.68 1.66 0 2 C0 1.34 0 0.68 0 0 Z " fill="#9A9A9A" transform="translate(137,159)"/>
<path d="M0 0 C7 0 7 0 10 2 C10.25 5.0625 10.25 5.0625 10 8 C9 9 9 9 5.4375 9.0625 C4.303125 9.041875 3.16875 9.02125 2 9 C2 10.98 2 12.96 2 15 C1.34 15 0.68 15 0 15 C0 10.05 0 5.1 0 0 Z " fill="#353535" transform="translate(129,124)"/>
<path d="M0 0 C2.82957829 0.36276645 5.29084291 1.09694764 8 2 C8 3.98 8 5.96 8 8 C8.99 8 9.98 8 11 8 C11 6.35 11 4.7 11 3 C11.33 3 11.66 3 12 3 C12 5.31 12 7.62 12 10 C10.948125 9.814375 9.89625 9.62875 8.8125 9.4375 C5.15225005 8.82006813 5.15225005 8.82006813 2.1875 9.5625 C1.465625 9.706875 0.74375 9.85125 0 10 C-2 8 -2 8 -2.25 5 C-2 2 -2 2 0 0 Z " fill="#BABABA" transform="translate(74,159)"/>
<path d="M0 0 C2.29141286 -0.05384521 4.58318188 -0.09272087 6.875 -0.125 C8.78925781 -0.15980469 8.78925781 -0.15980469 10.7421875 -0.1953125 C14 0 14 0 16 2 C16.1953125 4.1640625 16.1953125 4.1640625 16.125 6.625 C16.10695312 7.44226563 16.08890625 8.25953125 16.0703125 9.1015625 C16.04710937 9.72804687 16.02390625 10.35453125 16 11 C15.34 11 14.68 11 14 11 C14 8.03 14 5.06 14 2 C12.68 2.33 11.36 2.66 10 3 C9.67 5.64 9.34 8.28 9 11 C8.34 11 7.68 11 7 11 C7 8.03 7 5.06 7 2 C5.68 2.33 4.36 2.66 3 3 C2.67 5.64 2.34 8.28 2 11 C1.34 11 0.68 11 0 11 C0 7.37 0 3.74 0 0 Z " fill="#323232" transform="translate(153,128)"/>
<path d="M0 0 C2.375 -0.125 2.375 -0.125 5 0 C7 2 7 2 7.1953125 4.1640625 C7.17210938 4.97617188 7.14890625 5.78828125 7.125 6.625 C7.10695313 7.44226563 7.08890625 8.25953125 7.0703125 9.1015625 C7.03550781 10.04128906 7.03550781 10.04128906 7 11 C0.25 11.125 0.25 11.125 -2 10 C-1.67 8.35 -1.34 6.7 -1 5 C0.98 4.67 2.96 4.34 5 4 C5 3.34 5 2.68 5 2 C3.02 2.33 1.04 2.66 -1 3 C-0.67 2.01 -0.34 1.02 0 0 Z " fill="#7C7C7C" transform="translate(94,128)"/>
<path d="M0 0 C2.5 0.25 2.5 0.25 4.5 2.25 C4.5 3.57 4.5 4.89 4.5 6.25 C2.19 6.25 -0.12 6.25 -2.5 6.25 C-2.17 6.91 -1.84 7.57 -1.5 8.25 C0.48 8.25 2.46 8.25 4.5 8.25 C4.17 9.24 3.84 10.23 3.5 11.25 C0.625 11.375 0.625 11.375 -2.5 11.25 C-4.5 9.25 -4.5 9.25 -4.75 5.75 C-4.46177779 1.71488904 -4.15174939 0.41517494 0 0 Z " fill="#303030" transform="translate(175.5,127.75)"/>
<path d="M0 0 C-2.97 3.63 -5.94 7.26 -9 11 C-10.65 9.35 -12.3 7.7 -14 6 C-14 5.01 -14 4.02 -14 3 C-12.04486839 2.303447 -10.08577524 1.61800435 -8.125 0.9375 C-7.03445312 0.55464844 -5.94390625 0.17179687 -4.8203125 -0.22265625 C-2 -1 -2 -1 0 0 Z " fill="#E46E03" transform="translate(134,69)"/>
<path d="M0 0 C2.97 0.33 5.94 0.66 9 1 C8.01 1.495 8.01 1.495 7 2 C7 4.97 7 7.94 7 11 C6.34 11 5.68 11 5 11 C5 8.36 5 5.72 5 3 C4.01 3 3.02 3 2 3 C2 6.3 2 9.6 2 13 C1.34 13 0.68 13 0 13 C-2.09429461 9.59677126 -2.33706208 6.96047946 -2 3 C-1.34 2.01 -0.68 1.02 0 0 Z " fill="#ACACAC" transform="translate(160,158)"/>
<path d="M0 0 C2.97 0.495 2.97 0.495 6 1 C6.125 4.375 6.125 4.375 6 8 C5.34 8.66 4.68 9.32 4 10 C2.68 10 1.36 10 0 10 C0 6.7 0 3.4 0 0 Z " fill="#919191" transform="translate(171,159)"/>
<path d="M0 0 C6.625 -0.125 6.625 -0.125 10 1 C10 2.32 10 3.64 10 5 C6.5980513 7.09350689 3.94727588 7.17942163 0 7 C0.66 5.35 1.32 3.7 2 2 C1.34 1.34 0.68 0.68 0 0 Z " fill="#DCDCDC" transform="translate(120,162)"/>
<path d="M0 0 C0.66 0 1.32 0 2 0 C2.66 1.65 3.32 3.3 4 5 C4.99 3.35 5.98 1.7 7 0 C8.30179261 3.603026 7.70754688 5.6765456 6.3125 9.1875 C5.97863281 10.06792969 5.64476563 10.94835937 5.30078125 11.85546875 C4 14 4 14 1.85546875 14.80078125 C0.93701172 14.89939453 0.93701172 14.89939453 0 15 C0.66 14.34 1.32 13.68 2 13 C1.63834656 8.58782801 0.94621815 4.32556868 0 0 Z " fill="#363636" transform="translate(113,128)"/>
<path d="M0 0 C3.63 0 7.26 0 11 0 C11 0.66 11 1.32 11 2 C9.35 2 7.7 2 6 2 C6 6.29 6 10.58 6 15 C5.34 15 4.68 15 4 15 C4 10.71 4 6.42 4 2 C2.68 2 1.36 2 0 2 C0 1.34 0 0.68 0 0 Z " fill="#393939" transform="translate(81,124)"/>
<path d="M0 0 C0.99 0 1.98 0 3 0 C3 4.95 3 9.9 3 15 C2.01 15 1.02 15 0 15 C0 10.05 0 5.1 0 0 Z " fill="#545454" transform="translate(148,124)"/>
<path d="M0 0 C0 3.79180411 -1.20274577 5.4172309 -3.1875 8.625 C-3.77917969 9.60726562 -4.37085938 10.58953125 -4.98046875 11.6015625 C-7 14 -7 14 -9.73828125 14.8359375 C-10.48464844 14.89007813 -11.23101562 14.94421875 -12 15 C-9.832705 11.10728568 -7.32586971 7.96290186 -4.3125 4.6875 C-3.50425781 3.80449219 -2.69601563 2.92148437 -1.86328125 2.01171875 C-1.24839844 1.34785156 -0.63351563 0.68398438 0 0 Z " fill="#ED7500" transform="translate(148,52)"/>
<path d="M0 0 C1.98 0 3.96 0 6 0 C6 0.66 6 1.32 6 2 C5.01 2 4.02 2 3 2 C3 4.97 3 7.94 3 11 C2.01 11 1.02 11 0 11 C0 7.37 0 3.74 0 0 Z " fill="#5B5B5B" transform="translate(141,128)"/>
<path d="M0 0 C1.65 0 3.3 0 5 0 C5.625 2.375 5.625 2.375 6 5 C5.34 5.66 4.68 6.32 4 7 C1.875 6.625 1.875 6.625 0 6 C0 4.02 0 2.04 0 0 Z " fill="#B3B3B3" transform="translate(141,162)"/>
<path d="M0 0 C0.66 0 1.32 0 2 0 C2 3.3 2 6.6 2 10 C0.35 10 -1.3 10 -3 10 C-2.67 7.69 -2.34 5.38 -2 3 C-1.34 3 -0.68 3 0 3 C0 2.01 0 1.02 0 0 Z " fill="#C1C1C1" transform="translate(117,159)"/>
<path d="M0 0 C1.65 0 3.3 0 5 0 C5.38218767 1.65614657 5.71395102 3.32457024 6 5 C5 6 5 6 2.4375 6.0625 C1.2309375 6.0315625 1.2309375 6.0315625 0 6 C0 4.02 0 2.04 0 0 Z " fill="#E3E3E3" transform="translate(131,126)"/>
<path d="M0 0 C2.375 -0.125 2.375 -0.125 5 0 C7 2 7 2 7.1953125 4.1640625 C7.17210938 4.97617188 7.14890625 5.78828125 7.125 6.625 C7.10695313 7.44226563 7.08890625 8.25953125 7.0703125 9.1015625 C7.03550781 10.04128906 7.03550781 10.04128906 7 11 C6.01 10.34 5.02 9.68 4 9 C4.33 6.69 4.66 4.38 5 2 C3.02 2.33 1.04 2.66 -1 3 C-0.67 2.01 -0.34 1.02 0 0 Z " fill="#2D2D2D" transform="translate(94,128)"/>
<path d="M0 0 C2.97 0.495 2.97 0.495 6 1 C5.01 1.66 4.02 2.32 3 3 C2.42251197 4.96361864 2.42251197 4.96361864 2.3125 7.125 C2.209375 8.40375 2.10625 9.6825 2 11 C1.34 11 0.68 11 0 11 C0 7.37 0 3.74 0 0 Z " fill="#464646" transform="translate(153,128)"/>
<path d="M0 0 C0.66 0 1.32 0 2 0 C2 2.64 2 5.28 2 8 C3.32 8 4.64 8 6 8 C6 8.66 6 9.32 6 10 C4.02 10 2.04 10 0 10 C0 6.7 0 3.4 0 0 Z " fill="#A5A5A5" transform="translate(179,159)"/>
<path d="M0 0 C2 1.1875 2 1.1875 4 3 C4.25 5.6875 4.25 5.6875 4 8 C2.68 8.33 1.36 8.66 0 9 C-0.87890625 2.84765625 -0.87890625 2.84765625 -1 1 C-0.67 0.67 -0.34 0.34 0 0 Z " fill="#B7B7B7" transform="translate(95,160)"/>
<path d="M0 0 C2.33294775 -0.04241723 4.66702567 -0.04092937 7 0 C8 1 8 1 8.125 4 C8 7 8 7 7 8 C4.66702567 8.04092937 2.33294775 8.04241723 0 8 C0 7.67 0 7.34 0 7 C1.65 6.67 3.3 6.34 5 6 C5 4.68 5 3.36 5 2 C3.35 1.67 1.7 1.34 0 1 C0 0.67 0 0.34 0 0 Z " fill="#2C2C2C" transform="translate(131,125)"/>
<path d="M0 0 C0.99 0 1.98 0 3 0 C4 3 4 3 3.22265625 4.82421875 C2.1484375 6.54947917 1.07421875 8.27473958 0 10 C-0.33 10 -0.66 10 -1 10 C-0.67 6.7 -0.34 3.4 0 0 Z " fill="#A6550C" transform="translate(134,76)"/>
<path d="M0 0 C1.65 0 3.3 0 5 0 C5 1.98 5 3.96 5 6 C3.68 6.33 2.36 6.66 1 7 C0.31292445 4.50935112 0 2.62113708 0 0 Z " fill="#A2A2A2" transform="translate(88,162)"/>
<path d="M0 0 C1 2 2 4 3 6 C4.98 6 6.96 6 9 6 C8.67 6.99 8.34 7.98 8 9 C5.125 9.125 5.125 9.125 2 9 C0 7 0 7 -0.125 3.375 C-0.08375 2.26125 -0.0425 1.1475 0 0 Z " fill="#4A4A4A" transform="translate(171,130)"/>
<path d="M0 0 C1.65 0 3.3 0 5 0 C4.34 1.65 3.68 3.3 3 5 C3.66 5 4.32 5 5 5 C5 5.66 5 6.32 5 7 C3.35 7 1.7 7 0 7 C0.66 5.35 1.32 3.7 2 2 C1.34 1.34 0.68 0.68 0 0 Z " fill="#9B9B9B" transform="translate(120,162)"/>
<path d="M0 0 C1.32 0.33 2.64 0.66 4 1 C3.67 2.65 3.34 4.3 3 6 C2.01 6 1.02 6 0 6 C0 4.02 0 2.04 0 0 Z " fill="#F0F0F0" transform="translate(172,161)"/>
<path d="M0 0 C0.99 0 1.98 0 3 0 C2.34 4.95 1.68 9.9 1 15 C0.67 15 0.34 15 0 15 C0 10.05 0 5.1 0 0 Z " fill="#9A9A9A" transform="translate(148,124)"/>
<path d="M0 0 C1.98 0 3.96 0 6 0 C5.19185349 1.33597652 4.37836819 2.668725 3.5625 4 C3.11003906 4.7425 2.65757813 5.485 2.19140625 6.25 C1.79824219 6.8275 1.40507813 7.405 1 8 C0.67 8 0.34 8 0 8 C0 5.36 0 2.72 0 0 Z " fill="#E4E4E4" transform="translate(119,161)"/>
<path d="M0 0 C1.98 0 3.96 0 6 0 C5.67 1.32 5.34 2.64 5 4 C2.03 3.505 2.03 3.505 -1 3 C-0.67 2.01 -0.34 1.02 0 0 Z " fill="#959595" transform="translate(174,130)"/>
<path d="M0 0 C0.66 0 1.32 0 2 0 C2.33 2.31 2.66 4.62 3 7 C2.01 7 1.02 7 0 7 C-0.38133299 5.0085944 -0.71325582 3.00720923 -1 1 C-0.67 0.67 -0.34 0.34 0 0 Z " fill="#D9D9D9" transform="translate(136,162)"/>
<path d="M0 0 C0.99 0.33 1.98 0.66 3 1 C3.33 1.99 3.66 2.98 4 4 C4.66 4.66 5.32 5.32 6 6 C4.35 6.66 2.7 7.32 1 8 C0.67 5.36 0.34 2.72 0 0 Z " fill="#DFDFDF" transform="translate(85,161)"/>
<path d="M0 0 C1.32 0.66 2.64 1.32 4 2 C0.7 2 -2.6 2 -6 2 C-6 1.34 -6 0.68 -6 0 C-3.44901433 -1.27549283 -2.66705587 -0.86287102 0 0 Z " fill="#FFA71F" transform="translate(110,70)"/>
</svg>
