<?xml version="1.0" encoding="UTF-8"?>
<svg version="1.1" xmlns="http://www.w3.org/2000/svg" width="261" height="284">
<path d="M0 0 C2.68707295 -0.29437452 5.143936 -0.39119081 7.83328247 -0.36076355 C8.65170179 -0.36332682 9.47012111 -0.3658901 10.31334102 -0.36853105 C13.07123281 -0.37349471 15.82858396 -0.35693379 18.58642578 -0.34057617 C20.55713895 -0.33973046 22.52785306 -0.34020395 24.49856567 -0.34190369 C29.86199469 -0.34276723 35.22522393 -0.32508343 40.58860636 -0.30418181 C46.1886892 -0.28547476 51.78877623 -0.2836693 57.3888855 -0.28010559 C67.99948704 -0.27076753 78.60999627 -0.24612996 89.22055709 -0.21605712 C101.29774886 -0.18256784 113.37494495 -0.16604089 125.45217156 -0.15097082 C150.30149897 -0.11958191 175.15074432 -0.06678726 200 0 C201.60031695 3.20063391 201.14797203 6.67683487 201.14717102 10.19273376 C201.15084771 11.04987191 201.1545244 11.90701006 201.1583125 12.79012209 C201.16937705 15.67901639 201.17319782 18.56787476 201.17700195 21.45678711 C201.18326437 23.52115494 201.18991096 25.58552164 201.19691467 27.64988708 C201.21434172 33.26962164 201.22488044 38.88934769 201.2331202 44.50910258 C201.23826528 48.01645669 201.24434114 51.52380813 201.25063133 55.03116035 C201.2696856 65.99446487 201.28391792 76.95776263 201.2922433 87.92108053 C201.3020266 100.59637285 201.32837368 113.27149105 201.36874419 125.94672197 C201.39884583 135.73186774 201.41370639 145.51696341 201.41702431 155.3021546 C201.41938104 161.15244706 201.42842247 167.00255355 201.45348549 172.85279655 C201.4766681 178.35294245 201.48103916 183.85277861 201.47072411 189.35296059 C201.47022628 191.37547202 201.47661869 193.39799821 201.49028015 195.42046356 C201.5078452 198.17411381 201.50096956 200.92663373 201.48774719 203.68028259 C201.49871644 204.48727897 201.50968568 205.29427535 201.52098733 206.12572616 C201.48403863 209.29597742 201.43348027 211.43802195 199.46058178 213.99575233 C196.02415726 215.39827483 192.79512751 215.41716838 189.14294434 215.38768005 C187.94761212 215.39575836 187.94761212 215.39575836 186.72813177 215.40399987 C184.05492606 215.41832018 181.38221269 215.4111658 178.70898438 215.40405273 C176.79372254 215.40975413 174.87846411 215.4167175 172.96321106 215.42485046 C167.75875104 215.44282128 162.55445925 215.44160626 157.34997749 215.43590808 C153.00827295 215.43282226 148.66660101 215.43890183 144.3249011 215.44494683 C134.08490009 215.45900299 123.84498248 215.45742134 113.60498047 215.44604492 C103.03257199 215.43455894 92.46041704 215.44864503 81.88804197 215.4754414 C72.81704274 215.49757361 63.74612323 215.50424148 54.6750989 215.49836498 C49.25462557 215.49498871 43.83431482 215.49745506 38.41386414 215.51461601 C33.31829172 215.53004387 28.22309599 215.52617594 23.12753868 215.50731087 C21.25542461 215.50361361 19.38328289 215.50676638 17.51119423 215.51719666 C14.95937598 215.53033071 12.40881885 215.51892747 9.85705566 215.50120544 C9.11270059 215.51081045 8.36834552 215.52041546 7.60143423 215.53031152 C4.39752761 215.48439165 2.29028406 215.17805201 -0.46016121 213.49100685 C-2.64876214 209.95049342 -2.54666336 206.67889781 -2.49447632 202.64268494 C-2.50171956 201.3666651 -2.50171956 201.3666651 -2.50910914 200.06486708 C-2.52039622 197.20951923 -2.50304889 194.35506374 -2.48583984 191.49975586 C-2.48798529 189.45479591 -2.49186237 187.40983715 -2.49734497 185.36488342 C-2.50705058 179.8071251 -2.49172016 174.24968729 -2.47143888 168.69196773 C-2.45389327 162.8824224 -2.45739246 157.07288734 -2.4581604 151.26332092 C-2.4562865 141.50744247 -2.43890974 131.75168833 -2.41162109 121.99584961 C-2.38016058 110.70662207 -2.36962516 99.41753067 -2.3710922 88.12826246 C-2.37231172 77.27973405 -2.36211093 66.43125012 -2.34550858 55.58273506 C-2.33843633 50.9603802 -2.33478114 46.33804108 -2.33372116 41.71568108 C-2.33171614 36.27628638 -2.31953811 30.83700657 -2.29938889 25.39764977 C-2.29353373 23.39773003 -2.29108919 21.39779708 -2.29224396 19.39786911 C-2.29322135 16.67523331 -2.28195395 13.95292212 -2.26742554 11.23033142 C-2.27052274 10.43248118 -2.27361995 9.63463094 -2.276811 8.81260341 C-2.24309767 5.00651043 -2.16353823 3.24530735 0 0 Z " fill="#FAFAFA" transform="translate(31,0)"/>
<path d="M0 0 C6.69283985 4.189939 10.33534863 8.73523497 12.890625 16.18359375 C14.31332656 24.16309381 11.90441374 31.18563804 7.79296875 38.00390625 C4.04146116 43.06526225 -1.31506857 45.25215827 -7.109375 47.18359375 C-15.16677547 47.80431201 -22.39976676 47.75206488 -29.01171875 42.7421875 C-34.37080356 37.85896223 -37.62096214 32.44055584 -38.453125 25.1875 C-38.73222223 15.87262989 -36.33252145 9.76559773 -29.97265625 2.984375 C-21.81816341 -4.89659187 -9.94040244 -5.31995612 0 0 Z " fill="#982196" transform="translate(143.109375,45.81640625)"/>
<path d="M0 0 C8.77410455 0.97490051 15.02459017 2.30369622 21 9 C25.31627169 15.36678396 27.28402268 21.34342031 26 29 C24.0998254 35.83254272 21.2724733 42.39462903 15.0078125 46.21484375 C9.95736187 48.81406834 5.7315193 50.16571295 0 50.25 C-1.5778125 50.28867188 -1.5778125 50.28867188 -3.1875 50.328125 C-6 50 -6 50 -9 47 C-6.03 47.33 -3.06 47.66 0 48 C0 44.7 0 41.4 0 38 C2.97 38 5.94 38 9 38 C9 37.01 9 36.02 9 35 C7.02 35 5.04 35 3 35 C2.49210292 31.83975152 2.2423412 30.04609764 3 27 C6.44467404 22.62473863 10.18232218 19.51022535 15.5625 18 C16.366875 18 17.17125 18 18 18 C18 17.34 18 16.68 18 16 C13.38 16 8.76 16 4 16 C4 16.66 4 17.32 4 18 C5.32 18.66 6.64 19.32 8 20 C6.35 21.65 4.7 23.3 3 25 C2.01 24.67 1.02 24.34 0 24 C0 16.08 0 8.16 0 0 Z " fill="#891686" transform="translate(130,43)"/>
<path d="M0 0 C5.81997082 4.08783665 10.76278124 9.07625139 12.375 16.25 C13.30988523 26.879517 12.64600928 35.50627411 5.9375 44 C-0.31440768 50.52621441 -7.89865273 53.4666557 -16.875 53.75 C-27.36556216 53.19141163 -33.53493106 49.00515505 -40.625 41.25 C-45.02246997 34.67110791 -46.32191499 28.01562421 -45.625 20.25 C-43.50920831 10.79116657 -38.53202183 3.81159972 -30.625 -1.75 C-20.63053262 -6.86428601 -9.37358075 -5.89902446 0 0 Z M-38.21484375 10.29296875 C-42.47480341 16.20499033 -42.46783281 23.21456401 -41.625 30.25 C-39.35632865 37.68913163 -34.99003851 42.89229899 -28.625 47.25 C-22.61166647 50.39333344 -14.47512974 50.37150926 -8.0234375 48.4921875 C0.22649105 44.98803725 4.66027496 40.36524547 8.375 32.25 C10.3916551 25.74054366 10.20838541 19.29937265 7.4375 13.0625 C4.02471537 6.90591409 -0.97995335 2.73095602 -7.48046875 0.08984375 C-20.83001978 -3.47556429 -29.79379254 -0.04631736 -38.21484375 10.29296875 Z " fill="#F2E4F2" transform="translate(146.625,43.75)"/>
<path d="M0 0 C8.92628151 -0.30980587 14.47214714 3.1186757 21 9 C27.33151135 16.39422086 28.53907293 21.91157992 28.2734375 31.56640625 C27.53998453 40.77648003 24.01686228 46.91791003 17 53 C9.97683622 57.38659902 9.97683622 57.38659902 6.0625 56.62109375 C5.381875 56.41613281 4.70125 56.21117187 4 56 C2.25309081 55.7856066 0.5025977 55.59892347 -1.25 55.4375 C-2.14203125 55.35371094 -3.0340625 55.26992187 -3.953125 55.18359375 C-4.62859375 55.12300781 -5.3040625 55.06242187 -6 55 C-6 54.67 -6 54.34 -6 54 C-5.31035156 53.97421875 -4.62070313 53.9484375 -3.91015625 53.921875 C4.18258229 53.43342439 10.47677352 51.89687511 16.8125 46.6875 C22.1269549 40.15831255 24.45995378 34.13486662 24.3359375 25.7265625 C23.51003788 19.02333069 20.32931968 13.66493226 15.0625 9.5 C9.00649772 5.48902834 3.10214546 4.59973673 -4 4 C-2.68 3.67 -1.36 3.34 0 3 C0 2.01 0 1.02 0 0 Z " fill="#E9D1EA" transform="translate(131,39)"/>
<path d="M0 0 C5.94 0 11.88 0 18 0 C18 0.66 18 1.32 18 2 C16.68 2.33 15.36 2.66 14 3 C15.98 5.64 17.96 8.28 20 11 C23.89459074 9.31622777 23.89459074 9.31622777 26 7 C25.01 6.34 24.02 5.68 23 5 C23 4.34 23 3.68 23 3 C27.62 3 32.24 3 37 3 C37 3.66 37 4.32 37 5 C35.989375 5.37125 34.97875 5.7425 33.9375 6.125 C29.65833938 7.99876687 25.90844315 10.28411371 23 14 C22.14365918 16.81224353 22.05138007 19.01995574 22 22 C23.98 22 25.96 22 28 22 C28 22.66 28 23.32 28 24 C22.06 24 16.12 24 10 24 C10 23.34 10 22.68 10 22 C11.98 22 13.96 22 16 22 C16.13885465 14.64070336 13.05482428 10.83962053 8.51953125 5.22265625 C5.61698261 2.66211334 3.80837776 2.25903582 0 2 C0 1.34 0 0.68 0 0 Z " fill="#F2E5F2" transform="translate(111,56)"/>
<path d="M0 0 C2.6875 0.1875 2.6875 0.1875 5.4375 0.75 C6.18 0.894375 6.9225 1.03875 7.6875 1.1875 C8.0175 0.8575 8.3475 0.5275 8.6875 0.1875 C11.1875 0.0625 11.1875 0.0625 13.6875 0.1875 C14.6875 1.1875 14.6875 1.1875 14.75 3.75 C14.729375 4.554375 14.70875 5.35875 14.6875 6.1875 C12.7075 6.1875 10.7275 6.1875 8.6875 6.1875 C8.6875 7.1775 8.6875 8.1675 8.6875 9.1875 C10.6675 9.1875 12.6475 9.1875 14.6875 9.1875 C14.3575 9.8475 14.0275 10.5075 13.6875 11.1875 C9.13365385 11.55673077 9.13365385 11.55673077 6.875 9.6875 C6.483125 9.1925 6.09125 8.6975 5.6875 8.1875 C5.295625 8.6825 4.90375 9.1775 4.5 9.6875 C2.6875 11.1875 2.6875 11.1875 0.125 11.5 C-2.3125 11.1875 -2.3125 11.1875 -4.3125 9.1875 C-4.5625 5.6875 -4.5625 5.6875 -4.3125 2.1875 C-2.3125 0.1875 -2.3125 0.1875 0 0 Z " fill="#E5E5E5" transform="translate(142.3125,127.8125)"/>
<path d="M0 0 C2.5625 0.25 2.5625 0.25 5.5625 2.25 C5.5625 1.59 5.5625 0.93 5.5625 0.25 C7.5425 0.25 9.5225 0.25 11.5625 0.25 C11.5625 0.91 11.5625 1.57 11.5625 2.25 C10.5725 2.745 10.5725 2.745 9.5625 3.25 C9.09726937 5.14533342 9.09726937 5.14533342 8.9375 7.3125 C8.81375 8.611875 8.69 9.91125 8.5625 11.25 C6.77116022 11.30391993 4.97936101 11.34275571 3.1875 11.375 C2.18976563 11.39820313 1.19203125 11.42140625 0.1640625 11.4453125 C-2.4375 11.25 -2.4375 11.25 -4.4375 9.25 C-4.6875 5.75 -4.6875 5.75 -4.4375 2.25 C-2.4375 0.25 -2.4375 0.25 0 0 Z " fill="#5C5C5C" transform="translate(109.4375,127.75)"/>
<path d="M0 0 C1.27875 0.00257813 2.5575 0.00515625 3.875 0.0078125 C5.15375 0.00523437 6.4325 0.00265625 7.75 0 C10.875 0.1328125 10.875 0.1328125 11.875 1.1328125 C11.91580783 3.13239614 11.91754356 5.13326504 11.875 7.1328125 C10.555 7.4628125 9.235 7.7928125 7.875 8.1328125 C7.75125 7.4934375 7.6275 6.8540625 7.5 6.1953125 C7.29375 5.5146875 7.0875 4.8340625 6.875 4.1328125 C6.215 3.8028125 5.555 3.4728125 4.875 3.1328125 C4.875 4.7828125 4.875 6.4328125 4.875 8.1328125 C1.74001708 9.99058015 -0.49971432 10.33421726 -4.125 10.1328125 C-4.125 9.1428125 -4.125 8.1528125 -4.125 7.1328125 C-4.145625 6.1015625 -4.16625 5.0703125 -4.1875 4.0078125 C-4.10031892 -0.00251739 -4.04171622 0.17177294 0 0 Z " fill="#C1C1C1" transform="translate(145.125,160.8671875)"/>
<path d="M0 0 C0.66 0 1.32 0 2 0 C2 2.64 2 5.28 2 8 C2.99 8 3.98 8 5 8 C5 5.36 5 2.72 5 0 C5.99 0 6.98 0 8 0 C8 0.66 8 1.32 8 2 C8.804375 1.979375 9.60875 1.95875 10.4375 1.9375 C13 2 13 2 14 3 C14.04080783 4.99958364 14.04254356 7.00045254 14 9 C12.68 9.33 11.36 9.66 10 10 C10 10.66 10 11.32 10 12 C9.34 12 8.68 12 8 12 C8 10.68 8 9.36 8 8 C7.01 8.66 6.02 9.32 5 10 C1.48275862 9.48275862 1.48275862 9.48275862 0 8 C-0.14115161 5.32941149 -0.04247107 2.67567762 0 0 Z " fill="#ABABAB" transform="translate(125,159)"/>
<path d="M0 0 C1.01688584 2.6439032 0.9773725 4.11816583 0.4375 6.9375 C-1.92309018 11.96658342 -5.74519158 14.55577922 -10.625 16.875 C-14.19350558 18.06450186 -14.64019398 17.96083013 -18 17 C-19.74690919 16.7856066 -21.4974023 16.59892347 -23.25 16.4375 C-24.14203125 16.35371094 -25.0340625 16.26992187 -25.953125 16.18359375 C-26.62859375 16.12300781 -27.3040625 16.06242187 -28 16 C-28 15.67 -28 15.34 -28 15 C-27.31035156 14.97421875 -26.62070313 14.9484375 -25.91015625 14.921875 C-17.76716208 14.43039113 -11.42845478 12.9067334 -5.125 7.5625 C-3.11836246 5.1427312 -1.49813519 2.75972272 0 0 Z " fill="#E3C5E3" transform="translate(153,78)"/>
<path d="M0 0 C3.625 0.375 3.625 0.375 7 1 C7.33 1.99 7.66 2.98 8 4 C5.69 3.67 3.38 3.34 1 3 C1.72268235 6.2985139 1.72268235 6.2985139 5.0625 7.6875 C6.5165625 8.3371875 6.5165625 8.3371875 8 9 C8 10.65 8 12.3 8 14 C5.29120665 15.35439668 2.99066732 15.06501451 0 15 C-0.66 13.68 -1.32 12.36 -2 11 C-1.34 11 -0.68 11 0 11 C0 11.66 0 12.32 0 13 C1.98 13 3.96 13 6 13 C5.67 12.01 5.34 11.02 5 10 C4.01 9.54625 3.02 9.0925 2 8.625 C-1 7 -1 7 -2 4.4375 C-2 2 -2 2 0 0 Z " fill="#373737" transform="translate(95,124)"/>
<path d="M0 0 C1.98 0 3.96 0 6 0 C6 0.66 6 1.32 6 2 C5.01 2.495 5.01 2.495 4 3 C3.53476937 4.89533342 3.53476937 4.89533342 3.375 7.0625 C3.25125 8.361875 3.1275 9.66125 3 11 C1.68 10.67 0.36 10.34 -1 10 C-1 9.34 -1 8.68 -1 8 C-2.98 8.33 -4.96 8.66 -7 9 C-7.33 8.01 -7.66 7.02 -8 6 C-5.69 6 -3.38 6 -1 6 C-0.67 4.02 -0.34 2.04 0 0 Z " fill="#E7E6E7" transform="translate(115,128)"/>
<path d="M0 0 C4.62 0 9.24 0 14 0 C14 0.66 14 1.32 14 2 C13.01 2.37125 12.02 2.7425 11 3.125 C6.47562436 5.0402265 2.8097827 7.9422783 -1 11 C-1.66 10.34 -2.32 9.68 -3 9 C-1.02 7.35 0.96 5.7 3 4 C2.01 3.34 1.02 2.68 0 2 C0 1.34 0 0.68 0 0 Z " fill="#E6CEE6" transform="translate(134,59)"/>
<path d="M0 0 C2.4375 0.1875 2.4375 0.1875 3.4375 1.1875 C3.47813832 2.85367115 3.480221 4.52138095 3.4375 6.1875 C1.4575 6.1875 -0.5225 6.1875 -2.5625 6.1875 C-2.5625 7.1775 -2.5625 8.1675 -2.5625 9.1875 C-0.5825 9.1875 1.3975 9.1875 3.4375 9.1875 C3.1075 9.8475 2.7775 10.5075 2.4375 11.1875 C0.0625 11.3125 0.0625 11.3125 -2.5625 11.1875 C-4.5625 9.1875 -4.5625 9.1875 -4.8125 5.6875 C-4.52167932 1.61601046 -4.20623277 0.30777313 0 0 Z " fill="#2A2A2A" transform="translate(153.5625,127.8125)"/>
<path d="M0 0 C0.99 0.33 1.98 0.66 3 1 C3.33 2.65 3.66 4.3 4 6 C4.66 6 5.32 6 6 6 C6.33 4.35 6.66 2.7 7 1 C7.99 0.67 8.98 0.34 10 0 C10 3.3 10 6.6 10 10 C9.34 10 8.68 10 8 10 C7.67 9.01 7.34 8.02 7 7 C6.67 7.66 6.34 8.32 6 9 C5.34 9 4.68 9 4 9 C3.67 8.34 3.34 7.68 3 7 C2.67 7.66 2.34 8.32 2 9 C1.34 9 0.68 9 0 9 C0 6.03 0 3.06 0 0 Z " fill="#909090" transform="translate(91,159)"/>
<path d="M0 0 C0.66 0 1.32 0 2 0 C2 3.3 2 6.6 2 10 C0.35 10 -1.3 10 -3 10 C-4 9 -4 9 -4.0625 5.9375 C-4.041875 4.968125 -4.02125 3.99875 -4 3 C-2.68 2.67 -1.36 2.34 0 2 C0 1.34 0 0.68 0 0 Z " fill="#AAAAAA" transform="translate(163,159)"/>
<path d="M0 0 C1.98 0.495 1.98 0.495 4 1 C3.67 2.65 3.34 4.3 3 6 C3.99 6 4.98 6 6 6 C6 7.32 6 8.64 6 10 C4.02 10 2.04 10 0 10 C-1.2380014 6.42355152 -0.74926071 3.66305234 0 0 Z " fill="#8E8E8E" transform="translate(115,159)"/>
<path d="M0 0 C2.375 -0.1875 2.375 -0.1875 5 0 C5.66 0.99 6.32 1.98 7 3 C4.03 2.505 4.03 2.505 1 2 C2.37691962 4.75383923 4.36720042 5.51483101 7 7 C6.67 8.32 6.34 9.64 6 11 C4.02 11 2.04 11 0 11 C-0.33 10.01 -0.66 9.02 -1 8 C1.97 8.495 1.97 8.495 5 9 C3.60804085 6.2160817 1.84424221 6.02101003 -1 5 C-0.67 3.35 -0.34 1.7 0 0 Z " fill="#393939" transform="translate(161,128)"/>
<path d="M0 0 C0.78375 0.04125 1.5675 0.0825 2.375 0.125 C3.035 1.445 3.695 2.765 4.375 4.125 C3.715 4.125 3.055 4.125 2.375 4.125 C2.375 3.465 2.375 2.805 2.375 2.125 C1.055 2.455 -0.265 2.785 -1.625 3.125 C-1.955 5.105 -2.285 7.085 -2.625 9.125 C0.84 8.63 0.84 8.63 4.375 8.125 C3.385 9.61 3.385 9.61 2.375 11.125 C-0.125 11.4375 -0.125 11.4375 -2.625 11.125 C-4.625 9.125 -4.625 9.125 -4.875 5.625 C-4.58138251 1.51435512 -4.25902123 0.20281053 0 0 Z " fill="#363636" transform="translate(142.625,127.875)"/>
<path d="M0 0 C0.99 0 1.98 0 3 0 C3 4.95 3 9.9 3 15 C2.01 15 1.02 15 0 15 C0 10.05 0 5.1 0 0 Z " fill="#757575" transform="translate(133,124)"/>
<path d="M0 0 C0.66 0 1.32 0 2 0 C5.125 6.625 5.125 6.625 4 10 C1.525 9.01 1.525 9.01 -1 8 C-1 8.66 -1 9.32 -1 10 C-1.66 10 -2.32 10 -3 10 C-2.01 6.7 -1.02 3.4 0 0 Z " fill="#9B9B9B" transform="translate(85,159)"/>
<path d="M0 0 C1.65 0 3.3 0 5 0 C5 2.97 5 5.94 5 9 C3.35 9 1.7 9 0 9 C0 6 0 3 0 0 Z " fill="#A6A6A6" transform="translate(141,162)"/>
<path d="M0 0 C0.66 0 1.32 0 2 0 C2.33 1.98 2.66 3.96 3 6 C3.66 6 4.32 6 5 6 C5.33 4.02 5.66 2.04 6 0 C6.66 0 7.32 0 8 0 C7.69078116 1.45903258 7.37751201 2.91720722 7.0625 4.375 C6.88847656 5.18710938 6.71445313 5.99921875 6.53515625 6.8359375 C6 9 6 9 5 11 C4.34 11 3.68 11 3 11 C2.49384702 9.73160474 1.99530901 8.46016898 1.5 7.1875 C1.2215625 6.47980469 0.943125 5.77210938 0.65625 5.04296875 C0 3 0 3 0 0 Z " fill="#414141" transform="translate(123,128)"/>
<path d="M0 0 C1.98 0.495 1.98 0.495 4 1 C4 2.98 4 4.96 4 7 C2.68 7.33 1.36 7.66 0 8 C-0.79953138 4.71303767 -1.09658936 3.28976808 0 0 Z " fill="#A2A2A2" transform="translate(153,161)"/>
<path d="M0 0 C2.33944736 0.28730055 4.6739143 0.61936779 7 1 C7.33 1.99 7.66 2.98 8 4 C5.69 3.67 3.38 3.34 1 3 C1.33 4.65 1.66 6.3 2 8 C0.68 7.34 -0.64 6.68 -2 6 C-1.125 1.125 -1.125 1.125 0 0 Z " fill="#3E3E3E" transform="translate(95,124)"/>
<path d="M0 0 C2.64 0.33 5.28 0.66 8 1 C7.34 2.65 6.68 4.3 6 6 C4.02 5.34 2.04 4.68 0 4 C0 2.68 0 1.36 0 0 Z " fill="#DBDBDB" transform="translate(96,126)"/>
<path d="M0 0 C0.78375 0.04125 1.5675 0.0825 2.375 0.125 C2.705 0.785 3.035 1.445 3.375 2.125 C3.045 3.115 2.715 4.105 2.375 5.125 C0.395 5.125 -1.585 5.125 -3.625 5.125 C-3.955 4.135 -4.285 3.145 -4.625 2.125 C-2.625 0.125 -2.625 0.125 0 0 Z " fill="#787878" transform="translate(153.625,127.875)"/>
<path d="M0 0 C1.65 0 3.3 0 5 0 C5 0.66 5 1.32 5 2 C4.01 2.495 4.01 2.495 3 3 C2.53476937 4.89533342 2.53476937 4.89533342 2.375 7.0625 C2.25125 8.361875 2.1275 9.66125 2 11 C1.34 11 0.68 11 0 11 C0 7.37 0 3.74 0 0 Z " fill="#393939" transform="translate(116,128)"/>
<path d="M0 0 C1 2 2 4 3 6 C4.98 6 6.96 6 9 6 C8.67 6.99 8.34 7.98 8 9 C5.125 9.125 5.125 9.125 2 9 C0 7 0 7 -0.125 3.375 C-0.08375 2.26125 -0.0425 1.1475 0 0 Z " fill="#494949" transform="translate(105,130)"/>
<path d="M0 0 C0.66 0 1.32 0 2 0 C2 3.3 2 6.6 2 10 C1.34 10 0.68 10 0 10 C0 8.35 0 6.7 0 5 C-0.66 5 -1.32 5 -2 5 C-1.34 3.35 -0.68 1.7 0 0 Z " fill="#979797" transform="translate(99,159)"/>
<path d="M0 0 C1.98 0.495 1.98 0.495 4 1 C3.67 1.66 3.34 2.32 3 3 C3.39938767 5.09821215 3.39938767 5.09821215 4 7 C2.68 7.33 1.36 7.66 0 8 C-0.33 7.34 -0.66 6.68 -1 6 C-0.34 5.67 0.32 5.34 1 5 C0.34 4.67 -0.32 4.34 -1 4 C-0.67 2.68 -0.34 1.36 0 0 Z " fill="#989898" transform="translate(174,161)"/>
<path d="M0 0 C0.66 0 1.32 0 2 0 C2 0.99 2 1.98 2 3 C3.32 3.66 4.64 4.32 6 5 C2.62182575 5.84454356 0.32534757 6.10844919 -3 5 C-3 3.68 -3 2.36 -3 1 C-2.34 1 -1.68 1 -1 1 C-1 1.66 -1 2.32 -1 3 C-0.34 3 0.32 3 1 3 C0.67 2.01 0.34 1.02 0 0 Z " fill="#D6D6D6" transform="translate(171,162)"/>
<path d="M0 0 C0.33 0 0.66 0 1 0 C1 2.97 1 5.94 1 9 C-1.31 8.34 -3.62 7.68 -6 7 C-6 6.01 -6 5.02 -6 4 C-4.02 4 -2.04 4 0 4 C0 2.68 0 1.36 0 0 Z " fill="#C0C0C0" transform="translate(157,130)"/>
<path d="M0 0 C2 2 2 2 2.1953125 4.1640625 C2.17210937 4.97617188 2.14890625 5.78828125 2.125 6.625 C2.10695312 7.44226563 2.08890625 8.25953125 2.0703125 9.1015625 C2.03550781 10.04128906 2.03550781 10.04128906 2 11 C1.34 9.68 0.68 8.36 0 7 C-0.99 7.495 -0.99 7.495 -2 8 C-1.34 5.36 -0.68 2.72 0 0 Z " fill="#E5E5E5" transform="translate(131,128)"/>
<path d="M0 0 C-0.33 0.99 -0.66 1.98 -1 3 C-5.455 3.495 -5.455 3.495 -10 4 C-9.67 3.34 -9.34 2.68 -9 2 C-2.88888889 0 -2.88888889 0 0 0 Z " fill="#7F0A7C" transform="translate(140,89)"/>
<path d="M0 0 C1.65 0.33 3.3 0.66 5 1 C4.67 1.99 4.34 2.98 4 4 C1.36 4 -1.28 4 -4 4 C-2.68 3.67 -1.36 3.34 0 3 C0 2.01 0 1.02 0 0 Z " fill="#E0BEE0" transform="translate(131,39)"/>
<path d="M0 0 C1.98 0.66 3.96 1.32 6 2 C6 2.66 6 3.32 6 4 C3.03 3.505 3.03 3.505 0 3 C-0.33 3.66 -0.66 4.32 -1 5 C-0.67 3.35 -0.34 1.7 0 0 Z " fill="#D9D9D9" transform="translate(160,133)"/>
<path d="M0 0 C1.32 0.33 2.64 0.66 4 1 C4 1.66 4 2.32 4 3 C4.66 3 5.32 3 6 3 C6.33 2.34 6.66 1.68 7 1 C7 1.99 7 2.98 7 4 C5.02 4 3.04 4 1 4 C0.67 2.68 0.34 1.36 0 0 Z " fill="#B4B4B4" transform="translate(114,165)"/>
<path d="M0 0 C0.66 0 1.32 0 2 0 C2.66 1.98 3.32 3.96 4 6 C2.68 6 1.36 6 0 6 C-1 3 -1 3 0 0 Z " fill="#A4A4A4" transform="translate(85,159)"/>
<path d="M0 0 C1.65 0 3.3 0 5 0 C5.66 1.32 6.32 2.64 7 4 C6.34 4 5.68 4 5 4 C5 3.34 5 2.68 5 2 C3.35 2.33 1.7 2.66 0 3 C0 2.01 0 1.02 0 0 Z " fill="#434343" transform="translate(140,128)"/>
<path d="M0 0 C1.98 0 3.96 0 6 0 C6 0.99 6 1.98 6 3 C4.02 3 2.04 3 0 3 C0 2.01 0 1.02 0 0 Z " fill="#EEDBEF" transform="translate(130,94)"/>
</svg>
