<?xml version="1.0" encoding="UTF-8"?>
<svg version="1.1" xmlns="http://www.w3.org/2000/svg" width="261" height="284">
<path d="M0 0 C66 0 132 0 200 0 C201.59488461 3.18976922 201.14797378 6.64436999 201.14717102 10.14804077 C201.15084771 11.0003898 201.1545244 11.85273883 201.1583125 12.73091662 C201.16937694 15.60365744 201.17319782 18.47636213 201.17700195 21.34912109 C201.18326442 23.40201432 201.18991102 25.45490641 201.19691467 27.50779724 C201.21434229 33.09660817 201.2248808 38.68541054 201.2331202 44.27424192 C201.23826562 47.76284275 201.2443415 51.25144089 201.25063133 54.74003983 C201.26968657 65.64621525 201.28391815 76.55238387 201.2922433 87.45857275 C201.3020241 100.0648049 201.32836429 112.67086186 201.36874419 125.27703226 C201.39885663 135.01038941 201.41370746 144.74369621 201.41702431 154.47709906 C201.41937999 160.29556581 201.42840769 166.11384547 201.45348549 171.93226242 C201.47668662 177.40368473 201.48103158 182.87479569 201.47072411 188.34625435 C201.47022672 190.3570579 201.47660636 192.36787638 201.49028015 194.3786335 C201.50787516 197.11879743 201.50095447 199.85782887 201.48774719 202.59799194 C201.49871644 203.39818453 201.50968568 204.19837712 201.52098733 205.02281797 C201.47971042 208.55725755 201.30453526 210.59307503 199.1570158 213.4626255 C195.44611181 216.10750606 192.6356015 216.07517881 188.22265625 215.87890625 C186.95993896 215.83040527 185.69722168 215.7819043 184.39624023 215.73193359 C183.34954666 215.69021027 183.34954666 215.69021027 182.28170776 215.64764404 C163.17287155 214.91449792 144.05735041 214.87114915 124.9375 214.875 C124.20379684 214.87506672 123.47009369 214.87513344 122.7141571 214.87520218 C102.57527505 214.88026989 82.44719387 215.05821959 62.3125 215.5 C60.76035294 215.53374725 60.76035294 215.53374725 59.17684937 215.56817627 C57.14443276 215.61243321 55.11201796 215.65677346 53.0796051 215.70120239 C31.95969241 216.16231344 31.95969241 216.16231344 21.88412476 216.23217773 C20.49069696 216.24381437 19.09730023 216.26067015 17.70401001 216.28344727 C4.5676956 216.49160572 4.5676956 216.49160572 -1 213 C-3.6476184 209.33270033 -3.28198867 205.23291189 -3.26069641 200.89738464 C-3.26452196 200.07402833 -3.26834751 199.25067201 -3.27228898 198.40236551 C-3.28261936 195.63951688 -3.27862673 192.87687606 -3.2746582 190.11401367 C-3.27900471 188.13465685 -3.28418766 186.15530172 -3.29014587 184.1759491 C-3.30355517 178.79570334 -3.30411228 173.41552776 -3.30158257 168.03526855 C-3.30051395 163.54473373 -3.30539356 159.05421318 -3.310188 154.56368142 C-3.32129033 143.96879438 -3.32171681 133.37394278 -3.31567383 122.77905273 C-3.30963542 111.84888589 -3.32194004 100.91884782 -3.3432439 89.98870295 C-3.36085929 80.60599197 -3.36686126 71.22332198 -3.36360615 61.84059507 C-3.36179271 56.23616971 -3.36443543 50.63183616 -3.37832069 45.02742577 C-3.39089298 39.75543988 -3.3889605 34.48365462 -3.37590981 29.21167183 C-3.373543 27.27792671 -3.37628243 25.3441675 -3.38453293 23.41043854 C-3.39499347 20.7679151 -3.38690526 18.12606563 -3.3742218 15.48356628 C-3.38159609 14.7207131 -3.38897037 13.95785991 -3.39656812 13.17188996 C-3.38936158 12.45677351 -3.38215503 11.74165706 -3.37473011 11.00487041 C-3.37478513 10.39606869 -3.37484014 9.78726697 -3.37489682 9.16001672 C-3 7 -3 7 0 0 Z " fill="#FCFCFC" transform="translate(31,0)"/>
<path d="M0 0 C6.03494822 0.25193332 10.57405398 4.76490361 15.20507812 8.2265625 C15.89150391 8.7215625 16.57792969 9.2165625 17.28515625 9.7265625 C17.90269775 10.18627441 18.52023926 10.64598633 19.15649414 11.11962891 C20.96556379 12.17923674 20.96556379 12.17923674 23.01367188 11.79858398 C25.15860811 10.93623314 26.6850321 9.92948124 28.49609375 8.49609375 C29.13740234 8.00302734 29.77871094 7.50996094 30.43945312 7.00195312 C31.77096586 5.95939036 33.09910745 4.91250766 34.42382812 3.86132812 C39.35236552 0.08953873 39.35236552 0.08953873 42.91015625 -0.40234375 C45 0 45 0 46 1 C46.11317284 3.35228319 46.16416537 5.67411948 46.16796875 8.02734375 C46.17296135 9.08351646 46.17296135 9.08351646 46.17805481 10.161026 C46.18312655 11.65316106 46.18546306 13.1453075 46.18530273 14.63745117 C46.18748759 16.92450607 46.20563549 19.21107753 46.22460938 21.49804688 C46.22754354 22.94531084 46.22952818 24.39257711 46.23046875 25.83984375 C46.23765427 26.52634506 46.24483978 27.21284637 46.25224304 27.92015076 C46.22882369 32.77117631 46.22882369 32.77117631 44 35 C42.35 35 40.7 35 39 35 C38.505 22.625 38.505 22.625 38 10 C33.27293669 13.69032895 33.27293669 13.69032895 28.57739258 17.42041016 C26.76479257 18.79264995 25.04282586 19.99813631 23 21 C18.81785018 20.35612063 16.01532311 17.60732683 12.8125 14.9375 C9.58717013 12.19079836 9.58717013 12.19079836 6 10 C5.67 18.25 5.34 26.5 5 35 C3.35 35 1.7 35 0 35 C-1.70492881 33.29507119 -1.1280442 31.15465739 -1.13894653 28.88098145 C-1.1369223 28.16744507 -1.13489807 27.45390869 -1.1328125 26.71875 C-1.13376923 25.99006714 -1.13472595 25.26138428 -1.13571167 24.51062012 C-1.13639335 22.9672029 -1.13453988 21.42378283 -1.13037109 19.88037109 C-1.12502262 17.510026 -1.13031642 15.13987041 -1.13671875 12.76953125 C-1.13605797 11.27343708 -1.1347768 9.77734303 -1.1328125 8.28125 C-1.13483673 7.56771362 -1.13686096 6.85417725 -1.13894653 6.11901855 C-1.11495191 1.11495191 -1.11495191 1.11495191 0 0 Z " fill="#D1584E" transform="translate(108,51)"/>
<path d="M0 0 C5.39269223 3.08153842 9.2798742 5.78385894 13.7890625 9.8046875 C15.94801588 11.2818374 15.94801588 11.2818374 18.3828125 10.484375 C21.5423238 8.69241337 24.39859135 6.61139894 27.25 4.375 C32.88650307 0 32.88650307 0 34 0 C34 8.58 34 17.16 34 26 C22.78 26 11.56 26 0 26 C0 17.42 0 8.84 0 0 Z " fill="#BBBABA" transform="translate(113,60)"/>
<path d="M0 0 C1.32 0 2.64 0 4 0 C5.59488461 3.18976922 5.14797378 6.64436999 5.14717102 10.14804077 C5.15084771 11.0003898 5.1545244 11.85273883 5.1583125 12.73091662 C5.16937694 15.60365744 5.17319782 18.47636213 5.17700195 21.34912109 C5.18326442 23.40201432 5.18991102 25.45490641 5.19691467 27.50779724 C5.21434229 33.09660817 5.2248808 38.68541054 5.2331202 44.27424192 C5.23826562 47.76284275 5.2443415 51.25144089 5.25063133 54.74003983 C5.26968657 65.64621525 5.28391815 76.55238387 5.2922433 87.45857275 C5.3020241 100.0648049 5.32836429 112.67086186 5.36874419 125.27703226 C5.39885663 135.01038941 5.41370746 144.74369621 5.41702431 154.47709906 C5.41937999 160.29556581 5.42840769 166.11384547 5.45348549 171.93226242 C5.47668662 177.40368473 5.48103158 182.87479569 5.47072411 188.34625435 C5.47022672 190.3570579 5.47660636 192.36787638 5.49028015 194.3786335 C5.50787516 197.11879743 5.50095447 199.85782887 5.48774719 202.59799194 C5.49871644 203.39818453 5.50968568 204.19837712 5.52098733 205.02281797 C5.47971042 208.55725755 5.30453526 210.59307503 3.1570158 213.4626255 C-0.55388819 216.10750606 -3.3643985 216.07517881 -7.77734375 215.87890625 C-9.04006104 215.83040527 -10.30277832 215.7819043 -11.60375977 215.73193359 C-12.65045334 215.69021027 -12.65045334 215.69021027 -13.71829224 215.64764404 C-32.82712845 214.91449792 -51.94264959 214.87114915 -71.0625 214.875 C-71.79620316 214.87506672 -72.52990631 214.87513344 -73.2858429 214.87520218 C-96.5026962 214.88104443 -119.70260198 215.18922914 -142.91407776 215.70436096 C-153.35099068 215.93499158 -163.78613226 216.13382213 -174.22573853 216.17724609 C-175.63280333 216.18395906 -177.039857 216.1940809 -178.4468689 216.20800781 C-180.32649095 216.22560765 -182.20623413 216.22846119 -184.0859375 216.23046875 C-185.1176709 216.23457764 -186.1494043 216.23868652 -187.21240234 216.24291992 C-190.15421674 215.98656107 -192.33199998 215.23432456 -195 214 C-195 213.67 -195 213.34 -195 213 C-129.99 212.67 -64.98 212.34 2 212 C3.58115113 208.83769775 3.1442363 205.43838911 3.14044189 201.96585083 C3.14341302 201.12575246 3.14638414 200.28565408 3.1494453 199.42009819 C3.15815691 196.58881204 3.15964261 193.75756804 3.16113281 190.92626953 C3.16575922 188.90293283 3.17078363 186.87959701 3.17617798 184.85626221 C3.1893204 179.3480236 3.19575042 173.83979719 3.20018864 168.33154535 C3.20311616 164.89319728 3.20722033 161.45485258 3.21169281 158.0165062 C3.22537207 147.26730588 3.23503685 136.51811322 3.2388947 125.76890481 C3.24337785 113.3443855 3.26093588 100.91997608 3.2898953 88.49549019 C3.31148239 78.90225851 3.32159738 69.3090578 3.32293582 59.71580207 C3.32398591 53.98120841 3.32993693 48.24671798 3.34775543 42.51214981 C3.36418496 37.11955853 3.36641658 31.72714865 3.35761642 26.33454132 C3.35684332 24.35276938 3.36122454 22.37098788 3.37107468 20.38924026 C3.383713 17.68864711 3.37796184 14.98870434 3.36749268 12.28811646 C3.37554908 11.49959671 3.38360548 10.71107697 3.39190602 9.89866269 C3.35335971 5.66191802 3.05349279 3.06374878 0 0 Z " fill="#7E7E7E" transform="translate(227,0)"/>
<path d="M0 0 C3.81783623 1.27261208 4.02095581 2.59925508 6 6 C7.36280285 7.49636187 8.77666778 8.94735187 10.23046875 10.35546875 C11.03291016 11.14244141 11.83535156 11.92941406 12.66210938 12.74023438 C13.91217773 13.95163086 13.91217773 13.95163086 15.1875 15.1875 C16.85215377 16.80136342 18.51255883 18.41962488 20.16796875 20.04296875 C21.27047974 21.11067505 21.27047974 21.11067505 22.39526367 22.19995117 C24 24 24 24 24 26 C16.08 26 8.16 26 0 26 C0 17.42 0 8.84 0 0 Z " fill="#CFCECE" transform="translate(113,60)"/>
<path d="M0 0 C19.305 0.495 19.305 0.495 39 1 C35.51995515 4.48004485 32.37818788 7.44457152 28.5 10.375 C27.5821875 11.08398438 26.664375 11.79296875 25.71875 12.5234375 C23 14 23 14 20.6328125 14.06640625 C16.75571346 12.49600857 13.67699784 10.10026592 10.375 7.5625 C9.04974857 6.56344462 7.72423744 5.56473361 6.3984375 4.56640625 C5.81755371 4.12240479 5.23666992 3.67840332 4.63818359 3.22094727 C3.12895506 2.09611091 1.56616259 1.04410839 0 0 Z " fill="#E2DEDE" transform="translate(109,50)"/>
<path d="M0 0 C0.66 0 1.32 0 2 0 C2.103125 0.598125 2.20625 1.19625 2.3125 1.8125 C2.8040857 4.07396644 2.8040857 4.07396644 4.53833008 5.26293945 C6.69073337 7.82087321 6.25066865 9.69208425 6.07421875 12.98046875 C6.01943359 14.14384766 5.96464844 15.30722656 5.90820312 16.50585938 C5.83537109 17.72080078 5.76253906 18.93574219 5.6875 20.1875 C5.62626953 21.41404297 5.56503906 22.64058594 5.50195312 23.90429688 C5.34853758 26.93720422 5.18066191 29.96861342 5 33 C3.35 33 1.7 33 0 33 C0 22.11 0 11.22 0 0 Z " fill="#D44A3D" transform="translate(107,52)"/>
<path d="M0 0 C3.15835107 1.39750048 5.32272825 3.05198234 7.75 5.5 C8.67039063 6.41265625 8.67039063 6.41265625 9.609375 7.34375 C11 9 11 9 11 11 C3.08 11 -4.84 11 -13 11 C-9.82270675 7.82270675 -7.21605594 5.25915942 -3.6875 2.6875 C-2.99011719 2.17574219 -2.29273437 1.66398437 -1.57421875 1.13671875 C-1.05472656 0.76160156 -0.53523438 0.38648437 0 0 Z " fill="#E1E1E1" transform="translate(126,75)"/>
<path d="M0 0 C0 9.9 0 19.8 0 30 C-1.65 30 -3.3 30 -5 30 C-5.33 21.09 -5.66 12.18 -6 3 C-1 0 -1 0 0 0 Z " fill="#AB382D" transform="translate(153,55)"/>
<path d="M0 0 C7 0 7 0 10 2 C10.25 5.0625 10.25 5.0625 10 8 C9 9 9 9 5.4375 9.0625 C4.303125 9.041875 3.16875 9.02125 2 9 C2 10.98 2 12.96 2 15 C1.34 15 0.68 15 0 15 C0 10.05 0 5.1 0 0 Z " fill="#252525" transform="translate(129,124)"/>
<path d="M0 0 C2.29141286 -0.05384521 4.58318188 -0.09272087 6.875 -0.125 C8.78925781 -0.15980469 8.78925781 -0.15980469 10.7421875 -0.1953125 C14 0 14 0 16 2 C16.1953125 4.1640625 16.1953125 4.1640625 16.125 6.625 C16.10695312 7.44226563 16.08890625 8.25953125 16.0703125 9.1015625 C16.04710937 9.72804687 16.02390625 10.35453125 16 11 C15.34 11 14.68 11 14 11 C14 8.03 14 5.06 14 2 C12.68 2.33 11.36 2.66 10 3 C9.67 5.64 9.34 8.28 9 11 C8.34 11 7.68 11 7 11 C7 8.03 7 5.06 7 2 C5.68 2.33 4.36 2.66 3 3 C2.67 5.64 2.34 8.28 2 11 C1.34 11 0.68 11 0 11 C0 7.37 0 3.74 0 0 Z " fill="#333333" transform="translate(153,128)"/>
<path d="M0 0 C2.5 0.25 2.5 0.25 4.5 2.25 C4.5 3.57 4.5 4.89 4.5 6.25 C2.19 6.25 -0.12 6.25 -2.5 6.25 C-2.17 6.91 -1.84 7.57 -1.5 8.25 C0.48 8.25 2.46 8.25 4.5 8.25 C4.17 9.24 3.84 10.23 3.5 11.25 C0.625 11.4375 0.625 11.4375 -2.5 11.25 C-4.80163882 7.79754176 -4.84490322 6.30261287 -4.5 2.25 C-2.5 0.25 -2.5 0.25 0 0 Z " fill="#5C5C5C" transform="translate(175.5,127.75)"/>
<path d="M0 0 C0 2.64 0 5.28 0 8 C-6.0546875 8.1953125 -6.0546875 8.1953125 -8 8 C-8.66 7.34 -9.32 6.68 -10 6 C-9.625 3.375 -9.625 3.375 -9 1 C-2.25 -1.125 -2.25 -1.125 0 0 Z " fill="#B6B6B6" transform="translate(178,161)"/>
<path d="M0 0 C2.375 -0.125 2.375 -0.125 5 0 C5.66 0.66 6.32 1.32 7 2 C8.31747324 2.69748583 9.64914193 3.36959957 11 4 C10.34 4 9.68 4 9 4 C9 5.98 9 7.96 9 10 C8.34 10 7.68 10 7 10 C6.67 8.68 6.34 7.36 6 6 C4.35 6 2.7 6 1 6 C0.67 6.99 0.34 7.98 0 9 C0 6.03 0 3.06 0 0 Z " fill="#A4A4A4" transform="translate(135,159)"/>
<path d="M0 0 C2.375 -0.125 2.375 -0.125 5 0 C7 2 7 2 7.1953125 4.1640625 C7.17210938 4.97617188 7.14890625 5.78828125 7.125 6.625 C7.10695313 7.44226563 7.08890625 8.25953125 7.0703125 9.1015625 C7.03550781 10.04128906 7.03550781 10.04128906 7 11 C0.25 11.125 0.25 11.125 -2 10 C-2 8.68 -2 7.36 -2 6 C-1.34 6 -0.68 6 0 6 C0 6.99 0 7.98 0 9 C1.65 9 3.3 9 5 9 C5 6.69 5 4.38 5 2 C3.02 2.33 1.04 2.66 -1 3 C-0.67 2.01 -0.34 1.02 0 0 Z " fill="#383838" transform="translate(94,128)"/>
<path d="M0 0 C3.96 0 7.92 0 12 0 C12 0.66 12 1.32 12 2 C10.35 2 8.7 2 7 2 C7 6.29 7 10.58 7 15 C6.34 15 5.68 15 5 15 C5 10.71 5 6.42 5 2 C3.35 2 1.7 2 0 2 C0 1.34 0 0.68 0 0 Z " fill="#3E3E3E" transform="translate(80,124)"/>
<path d="M0 0 C0.66 0 1.32 0 2 0 C2.66 1.65 3.32 3.3 4 5 C4.433125 4.0409375 4.433125 4.0409375 4.875 3.0625 C6 1 6 1 8 0 C7.46148032 5.27749285 6.22656164 9.25645564 4 14 C3.01 14 2.02 14 1 14 C1.33 13.67 1.66 13.34 2 13 C2.32384075 9.11391097 1.49545425 6.55170384 0 3 C0 2.01 0 1.02 0 0 Z " fill="#2C2C2C" transform="translate(113,128)"/>
<path d="M0 0 C0 1.98 0 3.96 0 6 C-1.32 6.33 -2.64 6.66 -4 7 C-4 7.66 -4 8.32 -4 9 C-4.66 9 -5.32 9 -6 9 C-6 6.03 -6 3.06 -6 0 C-3 -1 -3 -1 0 0 Z " fill="#A7A7A7" transform="translate(130,162)"/>
<path d="M0 0 C0.66 0 1.32 0 2 0 C2 3.3 2 6.6 2 10 C0.35 9.67 -1.3 9.34 -3 9 C-3.33 7.35 -3.66 5.7 -4 4 C-2.68 3.34 -1.36 2.68 0 2 C0 1.34 0 0.68 0 0 Z " fill="#A7A7A7" transform="translate(158,159)"/>
<path d="M0 0 C2.125 0.9375 2.125 0.9375 4 2 C4 3.98 4 5.96 4 8 C2.35 8 0.7 8 -1 8 C-2 3.25 -2 3.25 -2 1 C-1.34 0.67 -0.68 0.34 0 0 Z " fill="#A5A5A5" transform="translate(95,161)"/>
<path d="M0 0 C9.59453303 6.15034169 9.59453303 6.15034169 13 10 C12.67 10.66 12.34 11.32 12 12 C8.60140297 10.53033642 6.35036291 8.61962486 3.75 6 C3.04359375 5.29875 2.3371875 4.5975 1.609375 3.875 C0 2 0 2 0 0 Z " fill="#B5AEAE" transform="translate(116,62)"/>
<path d="M0 0 C1.98 0.495 1.98 0.495 4 1 C4.625 3.375 4.625 3.375 5 6 C4.34 6.66 3.68 7.32 3 8 C0.875 7.625 0.875 7.625 -1 7 C-0.67 4.69 -0.34 2.38 0 0 Z " fill="#AFAFAF" transform="translate(148,161)"/>
<path d="M0 0 C1.98 0 3.96 0 6 0 C6 0.66 6 1.32 6 2 C5.01 2 4.02 2 3 2 C3 4.97 3 7.94 3 11 C2.01 11 1.02 11 0 11 C0 7.37 0 3.74 0 0 Z " fill="#5A5A5A" transform="translate(141,128)"/>
<path d="M0 0 C0.66 0 1.32 0 2 0 C2 0.66 2 1.32 2 2 C2.99 2 3.98 2 5 2 C6.35439668 4.70879335 6.06501451 7.00933268 6 10 C5.34 10 4.68 10 4 10 C4 8.02 4 6.04 4 4 C3.34 4 2.68 4 2 4 C2 5.98 2 7.96 2 10 C1.34 10 0.68 10 0 10 C0 6.7 0 3.4 0 0 Z " fill="#9F9F9F" transform="translate(114,159)"/>
<path d="M0 0 C1.98 0 3.96 0 6 0 C6 0.66 6 1.32 6 2 C4.68 2 3.36 2 2 2 C2 2.66 2 3.32 2 4 C2.99 4 3.98 4 5 4 C5 4.66 5 5.32 5 6 C4.01 6 3.02 6 2 6 C2 7.32 2 8.64 2 10 C1.34 10 0.68 10 0 10 C0 6.7 0 3.4 0 0 Z " fill="#9C9C9C" transform="translate(83,159)"/>
<path d="M0 0 C1.65 0 3.3 0 5 0 C5.38218767 1.65614657 5.71395102 3.32457024 6 5 C5 6 5 6 2.4375 6.0625 C1.2309375 6.0315625 1.2309375 6.0315625 0 6 C0 4.02 0 2.04 0 0 Z " fill="#E1E1E1" transform="translate(131,126)"/>
<path d="M0 0 C0.99 0.33 1.98 0.66 3 1 C2.67 9.91 2.34 18.82 2 28 C0.68 27.67 -0.64 27.34 -2 27 C-1.01 27 -0.02 27 1 27 C0.67 18.09 0.34 9.18 0 0 Z " fill="#D34234" transform="translate(110,57)"/>
<path d="M0 0 C0.99 0 1.98 0 3 0 C2.67 4.95 2.34 9.9 2 15 C1.34 15 0.68 15 0 15 C0 10.05 0 5.1 0 0 Z " fill="#6E6E6E" transform="translate(148,124)"/>
<path d="M0 0 C2.97 0.495 2.97 0.495 6 1 C5.01 1.66 4.02 2.32 3 3 C2.42251197 4.96361864 2.42251197 4.96361864 2.3125 7.125 C2.209375 8.40375 2.10625 9.6825 2 11 C1.34 11 0.68 11 0 11 C0 7.37 0 3.74 0 0 Z " fill="#474747" transform="translate(153,128)"/>
<path d="M0 0 C1 2 2 4 3 6 C4.98 6 6.96 6 9 6 C8.67 6.99 8.34 7.98 8 9 C5.125 9.1875 5.125 9.1875 2 9 C-0.29013653 5.5647952 -0.17842973 4.014669 0 0 Z " fill="#484848" transform="translate(171,130)"/>
<path d="M0 0 C0 1.65 0 3.3 0 5 C-1.65 5 -3.3 5 -5 5 C-5.33 3.68 -5.66 2.36 -6 1 C-4 0 -4 0 0 0 Z " fill="#9D9D9D" transform="translate(99,132)"/>
<path d="M0 0 C0.66 0 1.32 0 2 0 C2 2.31 2 4.62 2 7 C0.68 7.33 -0.64 7.66 -2 8 C-1.125 1.125 -1.125 1.125 0 0 Z " fill="#CECECE" transform="translate(102,163)"/>
<path d="M0 0 C6.625 -0.25 6.625 -0.25 10 2 C10.1875 5.125 10.1875 5.125 10 8 C9.01 8.495 9.01 8.495 8 9 C7.34 6.69 6.68 4.38 6 2 C3.03 1.505 3.03 1.505 0 1 C0 0.67 0 0.34 0 0 Z " fill="#454545" transform="translate(129,124)"/>
<path d="M0 0 C2.36684031 4.73368062 3.51993831 7.16288465 2.0625 12.3125 C1.711875 13.199375 1.36125 14.08625 1 15 C0.67 15 0.34 15 0 15 C0 10.05 0 5.1 0 0 Z " fill="#E8E8E8" transform="translate(111,124)"/>
<path d="M0 0 C2.475 0.495 2.475 0.495 5 1 C4.34 2.98 3.68 4.96 3 7 C2.34 7 1.68 7 1 7 C1.020625 6.21625 1.04125 5.4325 1.0625 4.625 C1.18684063 2.01885039 1.18684063 2.01885039 0 0 Z " fill="#DBDBDB" transform="translate(143,161)"/>
<path d="M0 0 C0.66 0 1.32 0 2 0 C2.99 2.64 3.98 5.28 5 8 C3.68 7.67 2.36 7.34 1 7 C0.67 4.69 0.34 2.38 0 0 Z " fill="#494949" transform="translate(113,128)"/>
<path d="M0 0 C0.33 0 0.66 0 1 0 C1 2.97 1 5.94 1 9 C-1 6 -1 6 -1 4 C-1.99 4 -2.98 4 -4 4 C-4 3.34 -4 2.68 -4 2 C-2.68 2 -1.36 2 0 2 C0 1.34 0 0.68 0 0 Z " fill="#EDEDED" transform="translate(89,159)"/>
<path d="M0 0 C0.33 0 0.66 0 1 0 C1 2.97 1 5.94 1 9 C-1.46278801 7.768606 -2.42497687 6.21935077 -4 4 C-3.01 3.67 -2.02 3.34 -1 3 C-0.67 2.01 -0.34 1.02 0 0 Z " fill="#DFDFDF" transform="translate(113,159)"/>
<path d="M0 0 C2.46278801 1.231394 3.42497687 2.78064923 5 5 C4.01 5 3.02 5 2 5 C1.67 5.99 1.34 6.98 1 8 C0.67 8 0.34 8 0 8 C0 5.36 0 2.72 0 0 Z " fill="#E1E1E1" transform="translate(106,162)"/>
</svg>
