<?xml version="1.0" encoding="UTF-8"?>
<svg version="1.1" xmlns="http://www.w3.org/2000/svg" width="261" height="284">
<path d="M0 0 C0.76945113 0.01456421 1.53890227 0.02912841 2.33167011 0.04413396 C3.15094385 0.03986184 3.9702176 0.03558971 4.81431782 0.03118813 C7.56945657 0.02292858 10.323085 0.05049105 13.07808429 0.07777959 C15.04894472 0.07918942 17.01980779 0.07839935 18.99066669 0.07556707 C24.35005094 0.07412899 29.70887879 0.10358236 35.06813341 0.13843685 C40.66552284 0.16963502 46.26292419 0.17262593 51.86038715 0.17856389 C62.46395124 0.19412157 73.06725843 0.23517617 83.67070925 0.28531134 C95.74064592 0.34114489 107.81059468 0.36867625 119.88062829 0.39378852 C144.71327248 0.44609025 169.54568842 0.53406999 194.37813312 0.64540654 C195.97207688 3.83329407 195.52986523 7.28493936 195.53203326 10.78671819 C195.53860665 12.06418339 195.53860665 12.06418339 195.54531282 13.36745596 C195.55872976 16.23785898 195.56488614 19.10823128 195.57100421 21.9786585 C195.57890283 24.02992945 195.58717162 26.08119901 195.59578449 28.13246709 C195.6220299 34.88286044 195.63731347 41.63326008 195.65157062 48.38368779 C195.65692904 50.70462786 195.66230654 53.02556787 195.66770297 55.34650785 C195.68933434 64.99808541 195.70807262 74.64966128 195.71932536 84.30125695 C195.73557463 98.14882987 195.76877339 111.99612262 195.82572621 125.8435899 C195.8643781 135.57186574 195.88395236 145.30006648 195.88924593 155.02841711 C195.89290556 160.84305155 195.90499206 166.65738735 195.93734866 172.47193891 C195.96734595 177.94094901 195.97377084 183.40947847 195.96196491 188.87855321 C195.96174348 190.88733185 195.97010528 192.89613226 195.98761874 194.90483457 C196.01021065 197.64485445 196.00206223 200.3831167 195.98613483 203.12314397 C196.00001691 203.92042372 196.013899 204.71770347 196.02820176 205.5391432 C195.97022068 209.57980597 195.54621518 211.43160127 193.01751262 214.6481846 C189.79606438 217.08585872 188.37192367 217.17694366 184.38301593 216.91933233 C182.59102771 216.82831746 182.59102771 216.82831746 180.76283771 216.73546392 C178.81670581 216.60194021 178.81670581 216.60194021 176.83125812 216.46571904 C174.00305705 216.3157179 171.17398383 216.18543516 168.34492999 216.05263311 C167.60970489 216.01561473 166.87447978 215.97859636 166.11697513 215.94045621 C158.07401637 215.54734192 150.03857781 215.51065693 141.98750812 215.51259404 C140.46882118 215.51126438 138.95013425 215.50992659 137.43144733 215.50858098 C133.4827436 215.50695538 129.53406886 215.51192254 125.58537036 215.51784688 C123.08857043 215.52044776 120.59179154 215.51976729 118.09499103 215.51805669 C98.68486555 215.50549021 79.28306235 215.62441581 59.87617999 215.99279577 C56.97208277 216.04730662 54.06794787 216.09879157 51.16377765 216.14925176 C49.25899172 216.18259399 47.35420656 216.21597993 45.44942218 216.24941045 C44.51673763 216.26572263 43.58405307 216.28203481 42.62310535 216.2988413 C37.08034296 216.39851507 31.53875733 216.5227165 25.99691707 216.66434556 C22.55516175 216.74742426 19.1132452 216.8100415 15.67097598 216.86748487 C14.07155991 216.89877413 12.47229073 216.93904063 10.87334567 216.98889524 C8.68572044 217.05625331 6.49966143 217.09242777 4.31123859 217.12123662 C3.08613574 217.15010457 1.8610329 217.17897252 0.59880573 217.20871526 C-3.70917659 216.45523166 -4.9406282 215.07046481 -7.62186688 211.64540654 C-8.12178313 208.65917873 -8.31413447 206.24034307 -8.28129071 203.25722295 C-8.29176308 202.41526687 -8.30223546 201.57331079 -8.31302518 200.70584089 C-8.34198625 197.88585302 -8.3353906 195.06708161 -8.32889813 192.24696904 C-8.34226212 190.22479837 -8.35777233 188.2026409 -8.37526959 186.18050176 C-8.41628485 180.68883271 -8.42609896 175.19750674 -8.42956036 169.70570165 C-8.43759799 163.96108034 -8.47142982 158.21660556 -8.50174969 152.4720667 C-8.54870563 142.82476889 -8.57601525 133.17756947 -8.59110516 123.53017217 C-8.60873856 112.37316299 -8.65449947 101.21654765 -8.7159974 90.05969983 C-8.77472031 79.33136561 -8.81625919 68.6030366 -8.84900922 57.87459356 C-8.8630937 53.30688767 -8.88272189 48.73925501 -8.90668744 44.17159063 C-8.93393071 38.7937501 -8.94598494 33.41608283 -8.94625539 28.0381754 C-8.94871979 26.06326258 -8.95631995 24.08834858 -8.96939915 22.11347753 C-8.98635816 19.41998044 -8.98473461 16.7271183 -8.97831219 14.03359014 C-8.98753107 13.25002959 -8.99674994 12.46646905 -9.00624818 11.65916425 C-8.95043733 4.40445976 -7.95015527 0.11263854 0 0 Z " fill="#FCFCFC" transform="translate(36.62186688184738,-0.6454065442085266)"/>
<path d="M0 0 C-0.3196851 3.66796589 -0.65809701 7.33404015 -1 11 C-1.07508789 11.80904785 -1.15017578 12.6180957 -1.22753906 13.45166016 C-1.4805331 16.15571994 -1.73970803 18.8591337 -2 21.5625 C-2.0829834 22.45549805 -2.1659668 23.34849609 -2.25146484 24.26855469 C-2.37448975 25.52974121 -2.37448975 25.52974121 -2.5 26.81640625 C-2.5721875 27.57381104 -2.644375 28.33121582 -2.71875 29.11157227 C-3 31 -3 31 -4 33 C-4.27024708 35.29924497 -4.44497841 37.59801487 -4.62109375 39.90625 C-5 42 -5 42 -7 44 C-7.83144531 42.93458984 -7.83144531 42.93458984 -8.6796875 41.84765625 C-9.40414062 40.92855469 -10.12859375 40.00945312 -10.875 39.0625 C-11.95394531 37.68771484 -11.95394531 37.68771484 -13.0546875 36.28515625 C-14.79420836 33.93990515 -14.79420836 33.93990515 -17 33 C-17.99 35.97 -18.98 38.94 -20 42 C-21.32 42 -22.64 42 -24 42 C-25.94516812 39.90747066 -27.58413249 37.92041047 -29.25 35.625 C-29.70890625 35.02171875 -30.1678125 34.4184375 -30.640625 33.796875 C-34 29.29771205 -34 29.29771205 -34 27 C-39.61 27 -45.22 27 -51 27 C-51 26.34 -51 25.68 -51 25 C-50.04005127 24.52691406 -49.08010254 24.05382812 -48.09106445 23.56640625 C-40.85098746 19.98163355 -33.65797227 16.32768979 -26.54296875 12.5 C-25.85349152 12.12955566 -25.16401428 11.75911133 -24.4536438 11.37744141 C-21.63992402 9.86369939 -18.82769419 8.34730949 -16.01928711 6.82373047 C-13.92593535 5.68946714 -11.82858037 4.56292798 -9.73046875 3.4375 C-9.09618454 3.09074219 -8.46190033 2.74398437 -7.80839539 2.38671875 C-4.98418774 0.87804007 -3.25470949 0 0 0 Z " fill="#037C7C" transform="translate(154,46)"/>
<path d="M0 0 C1.32 0 2.64 0 4 0 C5.59394376 3.18788752 5.15173212 6.63953281 5.15390015 10.14131165 C5.16047353 11.41877684 5.16047353 11.41877684 5.1671797 12.72204942 C5.18059665 15.59245244 5.18675302 18.46282474 5.19287109 21.33325195 C5.20076971 23.38452291 5.20903851 25.43579247 5.21765137 27.48706055 C5.24389678 34.2374539 5.25918035 40.98785354 5.2734375 47.73828125 C5.27879592 50.05922131 5.28417343 52.38016133 5.28956985 54.7011013 C5.31120122 64.35267887 5.3299395 74.00425473 5.34119225 83.65585041 C5.35744151 97.50342333 5.39064027 111.35071608 5.44759309 125.19818336 C5.48624498 134.92645919 5.50581924 144.65465994 5.51111281 154.38301057 C5.51477244 160.19764501 5.52685894 166.01198081 5.55921555 171.82653236 C5.58921283 177.29554247 5.59563773 182.76407193 5.58383179 188.23314667 C5.58361036 190.24192531 5.59197217 192.25072572 5.60948563 194.25942802 C5.63207753 196.9994479 5.62392911 199.73771016 5.60800171 202.47773743 C5.6218838 203.27501717 5.63576588 204.07229692 5.65006864 204.89373666 C5.59208756 208.93439942 5.16808206 210.78619472 2.6393795 214.00277805 C-0.58206874 216.44045218 -2.00620944 216.53153712 -5.99511719 216.27392578 C-7.78710541 216.18291092 -7.78710541 216.18291092 -9.61529541 216.09005737 C-11.56142731 215.95653366 -11.56142731 215.95653366 -13.546875 215.8203125 C-16.37507607 215.67031135 -19.20414929 215.54002862 -22.03320312 215.40722656 C-22.76842823 215.37020819 -23.50365334 215.33318981 -24.26115799 215.29504967 C-32.30412516 214.90193497 -40.33954972 214.86537451 -48.390625 214.8671875 C-49.90944927 214.86577336 -51.42827353 214.86434392 -52.94709778 214.86289978 C-56.89586705 214.86106966 -60.84460549 214.86587475 -64.79336929 214.87203598 C-67.28895726 214.875047 -69.78453128 214.8752697 -72.28012085 214.87466431 C-91.7204318 214.87115165 -111.15576067 214.98265082 -130.59383774 215.28613281 C-133.50965527 215.33163331 -136.42549285 215.37557243 -139.34133911 215.41918945 C-147.77051941 215.54678837 -156.19921935 215.68200948 -164.62761021 215.85467625 C-168.08221002 215.92274675 -171.53693378 215.97895732 -174.99178886 216.03232384 C-176.60195626 216.06003872 -178.21204018 216.09318777 -179.82197762 216.13202858 C-182.01715547 216.18460207 -184.21188439 216.21892098 -186.4074707 216.2487793 C-187.63923538 216.27320602 -188.87100006 216.29763275 -190.14009094 216.32279968 C-191.55574593 216.16301384 -191.55574593 216.16301384 -193 216 C-193.66 215.01 -194.32 214.02 -195 213 C-129.99 212.67 -64.98 212.34 2 212 C3.58115113 208.83769775 3.1442363 205.43838911 3.14044189 201.96585083 C3.14341302 201.12575246 3.14638414 200.28565408 3.1494453 199.42009819 C3.15815691 196.58881204 3.15964261 193.75756804 3.16113281 190.92626953 C3.16575922 188.90293283 3.17078363 186.87959701 3.17617798 184.85626221 C3.1893204 179.3480236 3.19575042 173.83979719 3.20018864 168.33154535 C3.20311616 164.89319728 3.20722033 161.45485258 3.21169281 158.0165062 C3.22537207 147.26730588 3.23503685 136.51811322 3.2388947 125.76890481 C3.24337785 113.3443855 3.26093588 100.91997608 3.2898953 88.49549019 C3.31148239 78.90225851 3.32159738 69.3090578 3.32293582 59.71580207 C3.32398591 53.98120841 3.32993693 48.24671798 3.34775543 42.51214981 C3.36418496 37.11955853 3.36641658 31.72714865 3.35761642 26.33454132 C3.35684332 24.35276938 3.36122454 22.37098788 3.37107468 20.38924026 C3.383713 17.68864711 3.37796184 14.98870434 3.36749268 12.28811646 C3.37554908 11.49959671 3.38360548 10.71107697 3.39190602 9.89866269 C3.35335971 5.66191802 3.05349279 3.06374878 0 0 Z " fill="#818181" transform="translate(227,0)"/>
<path d="M0 0 C1.15118942 3.51054739 0.90676103 6.36197735 0.4765625 10.0078125 C0.3425 11.15894531 0.2084375 12.31007813 0.0703125 13.49609375 C-0.07664063 14.69363281 -0.22359375 15.89117187 -0.375 17.125 C-0.51421875 18.33027344 -0.6534375 19.53554687 -0.796875 20.77734375 C-1.86099733 29.72199466 -1.86099733 29.72199466 -3 32 C-3.27024708 34.29924497 -3.44497841 36.59801487 -3.62109375 38.90625 C-4 41 -4 41 -6 43 C-7.43852875 41.25084555 -8.87578198 39.50064205 -10.3125 37.75 C-11.11300781 36.77546875 -11.91351563 35.8009375 -12.73828125 34.796875 C-14.54442258 32.5633738 -16.29819915 30.31312737 -18 28 C-16.00763255 23.90945575 -13.6606125 20.10413037 -11.25 16.25 C-10.80479004 15.53714844 -10.35958008 14.82429688 -9.90087891 14.08984375 C-6.82148247 9.20212564 -3.5882546 4.53253213 0 0 Z " fill="#0DD2D2" transform="translate(153,47)"/>
<path d="M0 0 C0 0.66 0 1.32 0 2 C-1.65 2.66 -3.3 3.32 -5 4 C-5 4.66 -5 5.32 -5 6 C-6.65 6.66 -8.3 7.32 -10 8 C-10 8.66 -10 9.32 -10 10 C-11.65 10.66 -13.3 11.32 -15 12 C-15 12.66 -15 13.32 -15 14 C-16.65 14.66 -18.3 15.32 -20 16 C-20 16.66 -20 17.32 -20 18 C-21.71484375 19.47265625 -21.71484375 19.47265625 -23.9375 21.0625 C-26.58014038 22.89905531 -26.58014038 22.89905531 -29 25 C-31.86267567 25.07325168 -34.700719 25.09238205 -37.5625 25.0625 C-38.36880859 25.05798828 -39.17511719 25.05347656 -40.00585938 25.04882812 C-42.00393756 25.03700518 -44.00197783 25.01906914 -46 25 C-46 24.34 -46 23.68 -46 23 C-45.16984375 22.59652344 -44.3396875 22.19304687 -43.484375 21.77734375 C-36.51244051 18.35253383 -29.61166448 14.81439919 -22.7734375 11.12890625 C-22.14554321 10.79068344 -21.51764893 10.45246063 -20.87072754 10.10398865 C-17.68457999 8.38578401 -14.50212734 6.66104502 -11.32324219 4.92944336 C-10.13481146 4.28621088 -8.94633682 3.64305953 -7.7578125 3 C-6.6970752 2.4225 -5.63633789 1.845 -4.54345703 1.25 C-2 0 -2 0 0 0 Z " fill="#11D4D4" transform="translate(149,48)"/>
<path d="M0 0 C1.485 0.495 1.485 0.495 3 1 C2.23816406 2.01707031 2.23816406 2.01707031 1.4609375 3.0546875 C-2.63633794 8.59444943 -6.3239609 14.06739232 -9.48046875 20.19921875 C-9.98191406 20.79347656 -10.48335937 21.38773438 -11 22 C-13.390625 22.18359375 -13.390625 22.18359375 -16 22 C-18.32535093 22.55124706 -18.32535093 22.55124706 -20.5625 23.375 C-21.30628906 23.63023438 -22.05007812 23.88546875 -22.81640625 24.1484375 C-26.06906271 25.41691533 -28.51366259 26.51366259 -31 29 C-30.82701599 26.66471585 -30.29774631 25.30822418 -28.66796875 23.62109375 C-24.42788462 20 -24.42788462 20 -22 20 C-22 19.34 -22 18.68 -22 18 C-20.35 17.34 -18.7 16.68 -17 16 C-17 15.34 -17 14.68 -17 14 C-15.35 13.34 -13.7 12.68 -12 12 C-12 11.34 -12 10.68 -12 10 C-10.35 9.34 -8.7 8.68 -7 8 C-7 7.34 -7 6.68 -7 6 C-5.35 5.34 -3.7 4.68 -2 4 C-2 3.01 -2 2.02 -2 1 C-1.34 0.67 -0.68 0.34 0 0 Z " fill="#02ADAC" transform="translate(151,46)"/>
<path d="M0 0 C0.66 0 1.32 0 2 0 C2.33 0.99 2.66 1.98 3 3 C3.639375 2.814375 4.27875 2.62875 4.9375 2.4375 C5.618125 2.293125 6.29875 2.14875 7 2 C7.33 2.33 7.66 2.66 8 3 C8.33 2.01 8.66 1.02 9 0 C9.99 0 10.98 0 12 0 C12 0.66 12 1.32 12 2 C12.804375 1.979375 13.60875 1.95875 14.4375 1.9375 C17 2 17 2 18 3 C18.04080783 4.99958364 18.04254356 7.00045254 18 9 C17.67 9 17.34 9 17 9 C17 7.35 17 5.7 17 4 C16.01 4 15.02 4 14 4 C14 5.65 14 7.3 14 9 C7.99264706 10.26470588 7.99264706 10.26470588 5.125 9.5 C2.05555994 8.77777881 -0.57391206 8.89855049 -3.625 9.625 C-4.800625 9.810625 -4.800625 9.810625 -6 10 C-6.66 9.34 -7.32 8.68 -8 8 C-7.625 5.375 -7.625 5.375 -7 3 C-3.25 1.875 -3.25 1.875 -1 3 C-0.67 2.01 -0.34 1.02 0 0 Z " fill="#B8B8B8" transform="translate(149,159)"/>
<path d="M0 0 C7 0 7 0 10 2 C10.25 5.0625 10.25 5.0625 10 8 C9 9 9 9 5.4375 9.0625 C4.303125 9.041875 3.16875 9.02125 2 9 C2 10.98 2 12.96 2 15 C1.34 15 0.68 15 0 15 C0 10.05 0 5.1 0 0 Z " fill="#262626" transform="translate(129,124)"/>
<path d="M0 0 C2.29141286 -0.05384521 4.58318188 -0.09272087 6.875 -0.125 C8.78925781 -0.15980469 8.78925781 -0.15980469 10.7421875 -0.1953125 C14 0 14 0 16 2 C16.1953125 4.1640625 16.1953125 4.1640625 16.125 6.625 C16.10695312 7.44226563 16.08890625 8.25953125 16.0703125 9.1015625 C16.04710937 9.72804687 16.02390625 10.35453125 16 11 C15.34 11 14.68 11 14 11 C14 8.03 14 5.06 14 2 C12.68 2.33 11.36 2.66 10 3 C9.67 5.64 9.34 8.28 9 11 C8.34 11 7.68 11 7 11 C7 8.03 7 5.06 7 2 C5.35 2 3.7 2 2 2 C2 4.97 2 7.94 2 11 C1.34 11 0.68 11 0 11 C0 7.37 0 3.74 0 0 Z " fill="#323232" transform="translate(153,128)"/>
<path d="M0 0 C2.5 0.25 2.5 0.25 4.5 2.25 C4.5 3.57 4.5 4.89 4.5 6.25 C2.19 6.25 -0.12 6.25 -2.5 6.25 C-2.17 6.91 -1.84 7.57 -1.5 8.25 C0.48 8.25 2.46 8.25 4.5 8.25 C4.17 9.24 3.84 10.23 3.5 11.25 C0.625 11.375 0.625 11.375 -2.5 11.25 C-4.5 9.25 -4.5 9.25 -4.75 5.75 C-4.46177779 1.71488904 -4.15174939 0.41517494 0 0 Z " fill="#5C5C5C" transform="translate(175.5,127.75)"/>
<path d="M0 0 C1.98 0 3.96 0 6 0 C6 0.66 6 1.32 6 2 C4.68 2 3.36 2 2 2 C2 2.66 2 3.32 2 4 C4.97 4.33 7.94 4.66 11 5 C11 3.35 11 1.7 11 0 C11.66 0 12.32 0 13 0 C13 3.3 13 6.6 13 10 C12.34 10 11.68 10 11 10 C11 8.68 11 7.36 11 6 C7.7 6 4.4 6 1 6 C1 6.66 1 7.32 1 8 C2.65 8 4.3 8 6 8 C6 8.66 6 9.32 6 10 C4.02 10 2.04 10 0 10 C0 6.7 0 3.4 0 0 Z " fill="#999999" transform="translate(114,159)"/>
<path d="M0 0 C0 2 0 2 -1.6875 3.8125 C-2.8321875 4.8953125 -2.8321875 4.8953125 -4 6 C-4.9075 6.9075 -5.815 7.815 -6.75 8.75 C-7.4925 9.4925 -8.235 10.235 -9 11 C-11.95838752 7.68660598 -11.95838752 7.68660598 -12.125 4.9375 C-9.61238257 0.61021443 -4.61947542 0 0 0 Z " fill="#048F8F" transform="translate(133,69)"/>
<path d="M0 0 C2.375 -0.125 2.375 -0.125 5 0 C7 2 7 2 7.1953125 4.1640625 C7.17210938 4.97617188 7.14890625 5.78828125 7.125 6.625 C7.10695313 7.44226563 7.08890625 8.25953125 7.0703125 9.1015625 C7.03550781 10.04128906 7.03550781 10.04128906 7 11 C0.25 11.125 0.25 11.125 -2 10 C-2 8.68 -2 7.36 -2 6 C-1.34 6 -0.68 6 0 6 C0 6.99 0 7.98 0 9 C1.65 9 3.3 9 5 9 C5 6.69 5 4.38 5 2 C3.02 2.33 1.04 2.66 -1 3 C-0.67 2.01 -0.34 1.02 0 0 Z " fill="#383838" transform="translate(94,128)"/>
<path d="M0 0 C3.96 0 7.92 0 12 0 C12 0.66 12 1.32 12 2 C10.35 2 8.7 2 7 2 C7 6.29 7 10.58 7 15 C6.34 15 5.68 15 5 15 C5 10.71 5 6.42 5 2 C3.35 2 1.7 2 0 2 C0 1.34 0 0.68 0 0 Z " fill="#3E3E3E" transform="translate(80,124)"/>
<path d="M0 0 C0.66 0 1.32 0 2 0 C2.66 1.65 3.32 3.3 4 5 C4.433125 4.0409375 4.433125 4.0409375 4.875 3.0625 C6 1 6 1 8 0 C7.5188509 5.77378925 5.81532819 9.95859836 3 15 C2.34 14.67 1.68 14.34 1 14 C1.33 13.67 1.66 13.34 2 13 C2.32384075 9.11391097 1.49545425 6.55170384 0 3 C0 2.01 0 1.02 0 0 Z " fill="#292929" transform="translate(113,128)"/>
<path d="M0 0 C0.99 0 1.98 0 3 0 C3 4.95 3 9.9 3 15 C2.01 15 1.02 15 0 15 C0 10.05 0 5.1 0 0 Z " fill="#535353" transform="translate(148,124)"/>
<path d="M0 0 C2.0625 0.4375 2.0625 0.4375 4 1 C4 2.98 4 4.96 4 7 C2.125 7.625 2.125 7.625 0 8 C-0.66 7.34 -1.32 6.68 -2 6 C-1.44444444 1.44444444 -1.44444444 1.44444444 0 0 Z " fill="#B0B0B0" transform="translate(143,161)"/>
<path d="M0 0 C1.98 0 3.96 0 6 0 C6 0.66 6 1.32 6 2 C5.01 2 4.02 2 3 2 C3 4.97 3 7.94 3 11 C2.01 11 1.02 11 0 11 C0 7.37 0 3.74 0 0 Z " fill="#5A5A5A" transform="translate(141,128)"/>
<path d="M0 0 C0.33 0.99 0.66 1.98 1 3 C-0.43359375 5.69921875 -0.43359375 5.69921875 -2.4375 8.6875 C-3.09621094 9.68136719 -3.75492188 10.67523438 -4.43359375 11.69921875 C-4.95050781 12.45847656 -5.46742188 13.21773437 -6 14 C-7.32 13.34 -8.64 12.68 -10 12 C-6.7 8.04 -3.4 4.08 0 0 Z " fill="#009797" transform="translate(146,54)"/>
<path d="M0 0 C0.33 0.66 0.66 1.32 1 2 C1.804375 1.979375 2.60875 1.95875 3.4375 1.9375 C6 2 6 2 7 3 C7.04080783 4.99958364 7.04254356 7.00045254 7 9 C6.67 9 6.34 9 6 9 C6 7.35 6 5.7 6 4 C5.01 4 4.02 4 3 4 C3 5.65 3 7.3 3 9 C2.01 9 1.02 9 0 9 C0 6.03 0 3.06 0 0 Z " fill="#B1B1B1" transform="translate(160,159)"/>
<path d="M0 0 C0.66 0 1.32 0 2 0 C4.09230769 4.43076923 4.09230769 4.43076923 3.625 7.3125 C3.41875 7.869375 3.2125 8.42625 3 9 C3 8.34 3 7.68 3 7 C1.02 7.66 -0.96 8.32 -3 9 C-2.01 6.03 -1.02 3.06 0 0 Z " fill="#969696" transform="translate(97,159)"/>
<path d="M0 0 C0.66 0 1.32 0 2 0 C3.125 7.75 3.125 7.75 2 10 C0.68 9.34 -0.64 8.68 -2 8 C-1.47731534 5.23723823 -0.89130413 2.6739124 0 0 Z " fill="#C3C3C3" transform="translate(149,159)"/>
<path d="M0 0 C1.65 0 3.3 0 5 0 C5.38218767 1.65614657 5.71395102 3.32457024 6 5 C5 6 5 6 2.4375 6.0625 C1.2309375 6.0315625 1.2309375 6.0315625 0 6 C0 4.02 0 2.04 0 0 Z " fill="#E1E1E1" transform="translate(131,126)"/>
<path d="M0 0 C0.66 0 1.32 0 2 0 C2 3.3 2 6.6 2 10 C1.34 10 0.68 10 0 10 C0 8.68 0 7.36 0 6 C-2.97 6 -5.94 6 -9 6 C-4.82091936 3.91045968 -4.19589427 3.83447381 0 5 C0 3.35 0 1.7 0 0 Z " fill="#AEAEAE" transform="translate(125,159)"/>
<path d="M0 0 C2.31 0 4.62 0 7 0 C7 0.66 7 1.32 7 2 C6.34 2 5.68 2 5 2 C5 4.64 5 7.28 5 10 C4.34 10 3.68 10 3 10 C3 7.36 3 4.72 3 2 C2.01 2 1.02 2 0 2 C0 1.34 0 0.68 0 0 Z " fill="#9E9E9E" transform="translate(101,159)"/>
<path d="M0 0 C2.97 0.495 2.97 0.495 6 1 C4.68 1.33 3.36 1.66 2 2 C2 4.97 2 7.94 2 11 C1.34 11 0.68 11 0 11 C0 7.37 0 3.74 0 0 Z " fill="#464646" transform="translate(153,128)"/>
<path d="M0 0 C3 3 3 3 4 5 C4.66 3.68 5.32 2.36 6 1 C7.2077558 4.62326739 6.54311128 5.64146369 5 9 C4.01 9 3.02 9 2 9 C1.34 6.03 0.68 3.06 0 0 Z " fill="#8F8F8F" transform="translate(86,159)"/>
<path d="M0 0 C1 2 2 4 3 6 C4.98 6 6.96 6 9 6 C8.67 6.99 8.34 7.98 8 9 C5.125 9.125 5.125 9.125 2 9 C0 7 0 7 -0.125 3.375 C-0.08375 2.26125 -0.0425 1.1475 0 0 Z " fill="#494949" transform="translate(171,130)"/>
<path d="M0 0 C0 0.66 0 1.32 0 2 C-1.65 2.66 -3.3 3.32 -5 4 C-5 4.66 -5 5.32 -5 6 C-5.99 6.33 -6.98 6.66 -8 7 C-8.99 6.34 -9.98 5.68 -11 5 C-9.54462432 4.16151196 -8.08559627 3.32936066 -6.625 2.5 C-5.81289062 2.0359375 -5.00078125 1.571875 -4.1640625 1.09375 C-2 0 -2 0 0 0 Z " fill="#25D5D5" transform="translate(149,48)"/>
<path d="M0 0 C1.65 0 3.3 0 5 0 C5 2.31 5 4.62 5 7 C3.68 7.33 2.36 7.66 1 8 C0.67 5.36 0.34 2.72 0 0 Z " fill="#ECECEC" transform="translate(99,161)"/>
<path d="M0 0 C0 1.65 0 3.3 0 5 C-1.65 5 -3.3 5 -5 5 C-5.33 3.68 -5.66 2.36 -6 1 C-4 0 -4 0 0 0 Z " fill="#9C9C9C" transform="translate(99,132)"/>
<path d="M0 0 C6.625 -0.25 6.625 -0.25 10 2 C10.1875 5.125 10.1875 5.125 10 8 C9.01 8.495 9.01 8.495 8 9 C7.34 6.69 6.68 4.38 6 2 C3.03 1.505 3.03 1.505 0 1 C0 0.67 0 0.34 0 0 Z " fill="#454545" transform="translate(129,124)"/>
<path d="M0 0 C0.99 0 1.98 0 3 0 C3 2.31 3 4.62 3 7 C1.68 7.33 0.36 7.66 -1 8 C-0.67 5.36 -0.34 2.72 0 0 Z " fill="#D1D1D1" transform="translate(170,163)"/>
<path d="M0 0 C0.99 0 1.98 0 3 0 C2.34 4.95 1.68 9.9 1 15 C0.67 15 0.34 15 0 15 C0 10.05 0 5.1 0 0 Z " fill="#989898" transform="translate(148,124)"/>
<path d="M0 0 C0.99 0.33 1.98 0.66 3 1 C1.68 3.64 0.36 6.28 -1 9 C-2.07349791 4.70600835 -1.79682816 3.80504787 0 0 Z " fill="#085E5E" transform="translate(135,77)"/>
<path d="M0 0 C0.66 0 1.32 0 2 0 C2.22786458 2.01822917 2.45572917 4.03645833 2.68359375 6.0546875 C2.91292961 8.07404316 2.91292961 8.07404316 4 10 C3.01 10 2.02 10 1 10 C0.83266843 8.5209084 0.66615314 7.04172444 0.5 5.5625 C0.4071875 4.73878906 0.314375 3.91507813 0.21875 3.06640625 C0 1 0 1 0 0 Z " fill="#DDDDDD" transform="translate(92,159)"/>
<path d="M0 0 C0.66 0 1.32 0 2 0 C2.99 2.64 3.98 5.28 5 8 C3.68 7.67 2.36 7.34 1 7 C0.67 4.69 0.34 2.38 0 0 Z " fill="#494949" transform="translate(113,128)"/>
<path d="M0 0 C1.32 0 2.64 0 4 0 C5 3 5 3 4 6 C3.01 5.67 2.02 5.34 1 5 C0.67 3.35 0.34 1.7 0 0 Z " fill="#939393" transform="translate(135,162)"/>
<path d="M0 0 C0.99 0.495 0.99 0.495 2 1 C1.67 2.65 1.34 4.3 1 6 C1.99 6 2.98 6 4 6 C3.67 7.32 3.34 8.64 3 10 C2.34 10 1.68 10 1 10 C-0.1577506 6.52674819 -0.06866652 3.63932552 0 0 Z " fill="#D9D9D9" transform="translate(106,161)"/>
</svg>
