<?xml version="1.0" encoding="UTF-8"?>
<svg version="1.1" xmlns="http://www.w3.org/2000/svg" width="261" height="284">
<path d="M0 0 C66 0 132 0 200 0 C201.59500724 3.19001447 201.14421483 6.64432203 201.14044189 10.14804077 C201.14341302 11.0003898 201.14638414 11.85273883 201.1494453 12.73091662 C201.15815732 15.60366123 201.15964265 18.4763643 201.16113281 21.34912109 C201.16575919 23.40201406 201.1707836 25.45490615 201.17617798 27.50779724 C201.18932067 33.09661179 201.19575048 38.68541433 201.20018864 44.27424192 C201.20311611 47.76284288 201.20722027 51.25144053 201.21169281 54.74003983 C201.22537213 65.64621732 201.23503689 76.55238727 201.2388947 87.45857275 C201.24337788 100.06477299 201.26093606 112.67086495 201.2898953 125.27703226 C201.31148196 135.01039014 201.32159735 144.74371748 201.32293582 154.47709906 C201.32398594 160.29552913 201.32993759 166.11385747 201.34775543 171.93226242 C201.36418422 177.40364739 201.36641694 182.87485357 201.35761642 188.34625435 C201.35684328 190.35705225 201.36122505 192.36785957 201.37107468 194.3786335 C201.38371173 197.1186351 201.3779625 199.85799556 201.36749268 202.59799194 C201.37957728 203.79828083 201.37957728 203.79828083 201.39190602 205.02281797 C201.36247788 208.30402349 201.22973701 210.59822265 199.58320236 213.47777748 C196.72406174 216.22679324 194.38639977 215.99761217 190.48388672 216.02172852 C189.04898749 215.97942422 187.61425009 215.93140038 186.1796875 215.87890625 C184.54061612 215.82966852 182.90153691 215.78069086 181.26245117 215.73193359 C180.38898041 215.70411804 179.51550964 215.67630249 178.61557007 215.64764404 C142.61729423 214.52924945 106.62941927 214.86532536 70.625 215.5 C35.03963396 216.12595652 35.03963396 216.12595652 21.85247803 216.17724609 C20.34989463 216.18397426 18.84732182 216.19411345 17.3447876 216.20800781 C15.33539004 216.22558086 13.32587964 216.22845953 11.31640625 216.23046875 C9.68360718 216.23663208 9.68360718 216.23663208 8.01782227 216.24291992 C4.71312297 215.9769078 2.05744837 215.27284091 -1 214 C-2.57326547 210.85346905 -2.1651246 207.48010183 -2.17840576 204.02400208 C-2.18546044 203.19010395 -2.19251511 202.35620583 -2.19978356 201.49703807 C-2.22226878 198.68659702 -2.2375976 195.87616236 -2.25292969 193.06567383 C-2.26741296 191.05705489 -2.28228937 189.04843876 -2.29753113 187.03982544 C-2.33749733 181.57066547 -2.3708033 176.10148485 -2.40211773 170.63226914 C-2.42181938 167.21667472 -2.4426701 163.80108917 -2.46387482 160.38550377 C-2.52987318 149.70306184 -2.59184099 139.02060777 -2.64805388 128.33810979 C-2.71301344 115.99958857 -2.79112702 103.66124403 -2.88073611 91.32287771 C-2.94917091 81.79164668 -3.00595902 72.26039056 -3.05390286 62.7290346 C-3.08280467 57.03399093 -3.11664191 51.33907813 -3.16255951 45.64414406 C-3.20543961 40.28525894 -3.23386371 34.92648963 -3.25121498 29.56746292 C-3.26005927 27.60143793 -3.27408527 25.63542832 -3.29369926 23.66948128 C-3.31969924 20.98313938 -3.32692849 18.29736811 -3.32952881 15.61091614 C-3.34147616 14.83502587 -3.35342351 14.0591356 -3.36573291 13.2597335 C-3.36262646 12.53293346 -3.35952001 11.80613343 -3.35631943 11.05730915 C-3.35995428 10.43831 -3.36358913 9.81931084 -3.36733413 9.18155414 C-3 7 -3 7 0 0 Z " fill="#FDFDFD" transform="translate(31,0)"/>
<path d="M0 0 C11.88 0 23.76 0 36 0 C36 7.26 36 14.52 36 22 C36.66 22 37.32 22 38 22 C38 30.25 38 38.5 38 47 C24.8 47 11.6 47 -2 47 C-2 43.7 -2 40.4 -2 37 C-3.39025391 37.01740234 -3.39025391 37.01740234 -4.80859375 37.03515625 C-6.00613281 37.04417969 -7.20367187 37.05320313 -8.4375 37.0625 C-9.63246094 37.07410156 -10.82742187 37.08570313 -12.05859375 37.09765625 C-15 37 -15 37 -16 36 C-16.09959621 34.15840977 -16.13080411 32.31303033 -16.1328125 30.46875 C-16.13410156 29.34855469 -16.13539062 28.22835937 -16.13671875 27.07421875 C-16.13285156 25.89472656 -16.12898438 24.71523437 -16.125 23.5 C-16.12886719 22.32050781 -16.13273437 21.14101562 -16.13671875 19.92578125 C-16.13542969 18.80558594 -16.13414063 17.68539062 -16.1328125 16.53125 C-16.13168457 15.49548828 -16.13055664 14.45972656 -16.12939453 13.39257812 C-16 11 -16 11 -15 10 C-12.46950598 9.92686433 -9.96695163 9.90752473 -7.4375 9.9375 C-6.72658203 9.94201172 -6.01566406 9.94652344 -5.28320312 9.95117188 C-3.52209987 9.96299136 -1.76103964 9.98092737 0 10 C0 6.7 0 3.4 0 0 Z " fill="#087CD9" transform="translate(119,45)"/>
<path d="M0 0 C7.92 0 15.84 0 24 0 C24 4.95 24 9.9 24 15 C24.66 15 25.32 15 26 15 C26 23.25 26 31.5 26 40 C12.8 40 -0.4 40 -14 40 C-14 37.69 -14 35.38 -14 33 C-7.565 32.505 -7.565 32.505 -1 32 C-0.34 30.35 0.32 28.7 1 27 C1.969375 27.103125 2.93875 27.20625 3.9375 27.3125 C9.02025652 27.36457742 12.83091324 24.64703921 17 22 C15.35 21.67 13.7 21.34 12 21 C12 17.37 12 13.74 12 10 C8.37 10 4.74 10 1 10 C0.67 6.7 0.34 3.4 0 0 Z " fill="#03D9FE" transform="translate(131,52)"/>
<path d="M0 0 C1.32 0 2.64 0 4 0 C5.59500724 3.19001447 5.14421483 6.64432203 5.14044189 10.14804077 C5.14341302 11.0003898 5.14638414 11.85273883 5.1494453 12.73091662 C5.15815732 15.60366123 5.15964265 18.4763643 5.16113281 21.34912109 C5.16575919 23.40201406 5.1707836 25.45490615 5.17617798 27.50779724 C5.18932067 33.09661179 5.19575048 38.68541433 5.20018864 44.27424192 C5.20311611 47.76284288 5.20722027 51.25144053 5.21169281 54.74003983 C5.22537213 65.64621732 5.23503689 76.55238727 5.2388947 87.45857275 C5.24337788 100.06477299 5.26093606 112.67086495 5.2898953 125.27703226 C5.31148196 135.01039014 5.32159735 144.74371748 5.32293582 154.47709906 C5.32398594 160.29552913 5.32993759 166.11385747 5.34775543 171.93226242 C5.36418422 177.40364739 5.36641694 182.87485357 5.35761642 188.34625435 C5.35684328 190.35705225 5.36122505 192.36785957 5.37107468 194.3786335 C5.38371173 197.1186351 5.3779625 199.85799556 5.36749268 202.59799194 C5.37957728 203.79828083 5.37957728 203.79828083 5.39190602 205.02281797 C5.36247788 208.30402349 5.22973701 210.59822265 3.58320236 213.47777748 C0.72406174 216.22679324 -1.61360023 215.99761217 -5.51611328 216.02172852 C-6.95101251 215.97942422 -8.38574991 215.93140038 -9.8203125 215.87890625 C-11.45938388 215.82966852 -13.09846309 215.78069086 -14.73754883 215.73193359 C-15.61101959 215.70411804 -16.48449036 215.67630249 -17.38442993 215.64764404 C-53.38269908 214.52924966 -89.3705873 214.86523756 -125.375 215.5 C-160.92506279 216.12565594 -160.92506279 216.12565594 -174.25738525 216.17724609 C-175.77364028 216.18399089 -177.28988462 216.19414875 -178.80609131 216.20800781 C-180.83030118 216.22550503 -182.85462176 216.22845479 -184.87890625 216.23046875 C-185.9779126 216.23457764 -187.07691895 216.23868652 -188.20922852 216.24291992 C-190.99068012 216.00081124 -192.63679917 215.44003649 -195 214 C-195 213.67 -195 213.34 -195 213 C-129.99 212.67 -64.98 212.34 2 212 C3.58115113 208.83769775 3.1442363 205.43838911 3.14044189 201.96585083 C3.14341302 201.12575246 3.14638414 200.28565408 3.1494453 199.42009819 C3.15815691 196.58881204 3.15964261 193.75756804 3.16113281 190.92626953 C3.16575922 188.90293283 3.17078363 186.87959701 3.17617798 184.85626221 C3.1893204 179.3480236 3.19575042 173.83979719 3.20018864 168.33154535 C3.20311616 164.89319728 3.20722033 161.45485258 3.21169281 158.0165062 C3.22537207 147.26730588 3.23503685 136.51811322 3.2388947 125.76890481 C3.24337785 113.3443855 3.26093588 100.91997608 3.2898953 88.49549019 C3.31148239 78.90225851 3.32159738 69.3090578 3.32293582 59.71580207 C3.32398591 53.98120841 3.32993693 48.24671798 3.34775543 42.51214981 C3.36418496 37.11955853 3.36641658 31.72714865 3.35761642 26.33454132 C3.35684332 24.35276938 3.36122454 22.37098788 3.37107468 20.38924026 C3.383713 17.68864711 3.37796184 14.98870434 3.36749268 12.28811646 C3.37554908 11.49959671 3.38360548 10.71107697 3.39190602 9.89866269 C3.35335971 5.66191802 3.05349279 3.06374878 0 0 Z " fill="#797979" transform="translate(227,0)"/>
<path d="M0 0 C0.66 0 1.32 0 2 0 C2 8.25 2 16.5 2 25 C-11.2 25 -24.4 25 -38 25 C-38 22.69 -38 20.38 -38 18 C-31.565 17.505 -31.565 17.505 -25 17 C-24.34 15.35 -23.68 13.7 -23 12 C-21.4221875 12.0928125 -21.4221875 12.0928125 -19.8125 12.1875 C-15.79332816 11.98983581 -14.27430038 11.1516831 -11 9 C-10.34 9.33 -9.68 9.66 -9 10 C-9.33 10.66 -9.66 11.32 -10 12 C-6.37 14.64 -2.74 17.28 1 20 C0.67 13.4 0.34 6.8 0 0 Z " fill="#08A1E7" transform="translate(155,67)"/>
<path d="M0 0 C4.29 0 8.58 0 13 0 C13 3.63 13 7.26 13 11 C14.98 11 16.96 11 19 11 C16.29901155 14.17763348 12.89557061 16.54015276 9 18 C5.0625 17.75 5.0625 17.75 2 17 C1.855625 17.804375 1.71125 18.60875 1.5625 19.4375 C1 22 1 22 0 23 C-2.18639453 23.07258946 -4.37500389 23.08373783 -6.5625 23.0625 C-8.35880859 23.04896484 -8.35880859 23.04896484 -10.19140625 23.03515625 C-11.11824219 23.02355469 -12.04507813 23.01195313 -13 23 C-13 22.01 -13 21.02 -13 20 C-8.71 20 -4.42 20 0 20 C0 13.4 0 6.8 0 0 Z " fill="#005394" transform="translate(130,62)"/>
<path d="M0 0 C3.63 0 7.26 0 11 0 C12.68442142 5.83579076 13.26143011 10.94460204 13.125 17 C13.11597656 17.77472656 13.10695312 18.54945312 13.09765625 19.34765625 C13.07439388 21.23190843 13.0385364 23.11599832 13 25 C9.96147295 23.59023295 7.4060405 21.91129772 4.75 19.875 C4.04359375 19.33617188 3.3371875 18.79734375 2.609375 18.2421875 C2.07828125 17.83226563 1.5471875 17.42234375 1 17 C2.75 13.125 2.75 13.125 5 12 C3.35 11.67 1.7 11.34 0 11 C0 7.37 0 3.74 0 0 Z " fill="#00B3F3" transform="translate(143,62)"/>
<path d="M0 0 C2.4375 1.625 2.4375 1.625 4 4 C4.64250722 7.77472994 4.26836859 9.50620179 2.4375 12.875 C0 15 0 15 -3.5625 15.5 C-7.18101738 14.9736702 -7.90102118 14.80699257 -10 12 C-10.3984375 9.84375 -10.3984375 9.84375 -10.375 7.5 C-10.38273437 6.7265625 -10.39046875 5.953125 -10.3984375 5.15625 C-9.33527516 -0.59733443 -5.09623629 -0.62585358 0 0 Z " fill="#D1E7F8" transform="translate(120,61)"/>
<path d="M0 0 C11.22 0 22.44 0 34 0 C34 1.65 34 3.3 34 5 C22.78 5 11.56 5 0 5 C0 3.35 0 1.7 0 0 Z " fill="#0056AA" transform="translate(120,46)"/>
<path d="M0 0 C2.6875 0.1875 2.6875 0.1875 5.4375 0.75 C6.18 0.894375 6.9225 1.03875 7.6875 1.1875 C8.0175 0.8575 8.3475 0.5275 8.6875 0.1875 C11.1875 0.0625 11.1875 0.0625 13.6875 0.1875 C14.6875 1.1875 14.6875 1.1875 14.75 3.75 C14.729375 4.554375 14.70875 5.35875 14.6875 6.1875 C12.7075 6.1875 10.7275 6.1875 8.6875 6.1875 C8.6875 7.1775 8.6875 8.1675 8.6875 9.1875 C10.6675 9.1875 12.6475 9.1875 14.6875 9.1875 C14.3575 9.8475 14.0275 10.5075 13.6875 11.1875 C10.97222341 11.26507933 8.60784313 11.17120655 5.9375 10.625 C5.195 10.480625 4.4525 10.33625 3.6875 10.1875 C3.3575 10.5175 3.0275 10.8475 2.6875 11.1875 C0.25 11.375 0.25 11.375 -2.3125 11.1875 C-4.3125 9.1875 -4.3125 9.1875 -4.5625 5.6875 C-4.28649668 1.82345354 -4.05172254 0.32851804 0 0 Z " fill="#E5E5E5" transform="translate(142.3125,127.8125)"/>
<path d="M0 0 C3.96 0 7.92 0 12 0 C12 3.3 12 6.6 12 10 C8.37 10 4.74 10 1 10 C0.67 6.7 0.34 3.4 0 0 Z " fill="#00B3F1" transform="translate(131,52)"/>
<path d="M0 0 C11.88 0 23.76 0 36 0 C36 2.31 36 4.62 36 7 C27.75 7 19.5 7 11 7 C11 7.99 11 8.98 11 10 C7.37 10 3.74 10 0 10 C0 6.7 0 3.4 0 0 Z M1 1 C1 2.65 1 4.3 1 6 C12.22 6 23.44 6 35 6 C35 4.35 35 2.7 35 1 C23.78 1 12.56 1 1 1 Z " fill="#0B6FC2" transform="translate(119,45)"/>
<path d="M0 0 C4.43526814 1.30952279 7.99986319 3.04733668 11.875 5.5625 C12.84179688 6.18253906 13.80859375 6.80257812 14.8046875 7.44140625 C15.52914062 7.95574219 16.25359375 8.47007813 17 9 C17 9.33 17 9.66 17 10 C10.07 10 3.14 10 -4 10 C-3.01 8.35 -2.02 6.7 -1 5 C-0.29329272 2.30745009 -0.29329272 2.30745009 0 0 Z " fill="#00AEF1" transform="translate(134,80)"/>
<path d="M0 0 C2.97 0 5.94 0 9 0 C9 3.63 9 7.26 9 11 C2.84765625 11.09765625 2.84765625 11.09765625 1 11 C0 10 0 10 -0.09765625 7.71484375 C-0.08605469 6.79832031 -0.07445312 5.88179688 -0.0625 4.9375 C-0.05347656 4.01839844 -0.04445312 3.09929687 -0.03515625 2.15234375 C-0.02355469 1.44207031 -0.01195312 0.73179688 0 0 Z " fill="#0079D9" transform="translate(134,62)"/>
<path d="M0 0 C0.99 0.33 1.98 0.66 3 1 C1.09983815 8.74681368 1.09983815 8.74681368 -2 11 C-4.62890625 11.36328125 -4.62890625 11.36328125 -7.5625 11.3125 C-8.53316406 11.30863281 -9.50382812 11.30476563 -10.50390625 11.30078125 C-13 11 -13 11 -15 9 C-15 8.01 -15 7.02 -15 6 C-8.565 5.505 -8.565 5.505 -2 5 C-1.34 3.35 -0.68 1.7 0 0 Z " fill="#009EDA" transform="translate(132,79)"/>
<path d="M0 0 C2.97 0 5.94 0 9 0 C9.33 1.98 9.66 3.96 10 6 C10.66 6 11.32 6 12 6 C12.33 4.02 12.66 2.04 13 0 C13.66 0 14.32 0 15 0 C14.69078116 1.45903258 14.37751201 2.91720722 14.0625 4.375 C13.88847656 5.18710938 13.71445313 5.99921875 13.53515625 6.8359375 C13 9 13 9 12 11 C11.01 10.67 10.02 10.34 9 10 C7.5522078 7.10441559 7 5.25811062 7 2 C5.68 2.33 4.36 2.66 3 3 C2.67 5.64 2.34 8.28 2 11 C1.34 11 0.68 11 0 11 C0 7.37 0 3.74 0 0 Z " fill="#4F4F4F" transform="translate(116,128)"/>
<path d="M0 0 C2.5 0.25 2.5 0.25 4.5 2.25 C4.5 3.57 4.5 4.89 4.5 6.25 C2.19 6.25 -0.12 6.25 -2.5 6.25 C-2.17 6.91 -1.84 7.57 -1.5 8.25 C0.48 8.25 2.46 8.25 4.5 8.25 C4.17 9.24 3.84 10.23 3.5 11.25 C0.625 11.375 0.625 11.375 -2.5 11.25 C-4.5 9.25 -4.5 9.25 -4.75 5.75 C-4.46177779 1.71488904 -4.15174939 0.41517494 0 0 Z " fill="#5C5C5C" transform="translate(109.5,127.75)"/>
<path d="M0 0 C0.66 0 1.32 0 2 0 C2.33 3.3 2.66 6.6 3 10 C9.93 10.495 9.93 10.495 17 11 C14 14 14 14 11 15 C11 14.34 11 13.68 11 13 C10.071875 13.515625 9.14375 14.03125 8.1875 14.5625 C5 16 5 16 2 15 C-0.21051028 11.80866727 -0.21560042 9.05521762 -0.125 5.25 C-0.09792969 3.77273437 -0.09792969 3.77273437 -0.0703125 2.265625 C-0.04710937 1.51796875 -0.02390625 0.7703125 0 0 Z " fill="#0063BC" transform="translate(132,62)"/>
<path d="M0 0 C3.625 0.375 3.625 0.375 7 1 C7.33 1.99 7.66 2.98 8 4 C5.69 3.67 3.38 3.34 1 3 C1.72268235 6.2985139 1.72268235 6.2985139 5.0625 7.6875 C6.5165625 8.3371875 6.5165625 8.3371875 8 9 C8 10.65 8 12.3 8 14 C5.29120665 15.35439668 2.99066732 15.06501451 0 15 C-0.66 13.68 -1.32 12.36 -2 11 C-1.34 11 -0.68 11 0 11 C0 11.66 0 12.32 0 13 C1.98 13 3.96 13 6 13 C5.67 12.01 5.34 11.02 5 10 C4.01 9.54625 3.02 9.0925 2 8.625 C-1 7 -1 7 -2 4.4375 C-2 2 -2 2 0 0 Z " fill="#3A3A3A" transform="translate(95,124)"/>
<path d="M0 0 C1.67654729 0.27942455 3.34259285 0.62331656 5 1 C6.9996441 1.03772913 9.00054061 1.04649906 11 1 C11 2.98 11 4.96 11 7 C10.67 7 10.34 7 10 7 C10 5.35 10 3.7 10 2 C9.01 2 8.02 2 7 2 C7 3.98 7 5.96 7 8 C3.88742431 8 1.89234315 7.82638376 -1 7 C-1.625 4.625 -1.625 4.625 -2 2 C-1.34 1.34 -0.68 0.68 0 0 Z " fill="#A9A9A9" transform="translate(105,161)"/>
<path d="M0 0 C2.5625 0.1875 2.5625 0.1875 4.5625 2.1875 C4.8125 4.6875 4.8125 4.6875 4.5625 7.1875 C2.5625 9.1875 2.5625 9.1875 0 9.375 C-2.4375 9.1875 -2.4375 9.1875 -3.4375 8.1875 C-3.5625 4.6875 -3.5625 4.6875 -3.4375 1.1875 C-2.4375 0.1875 -2.4375 0.1875 0 0 Z " fill="#0E7DDB" transform="translate(116.4375,63.8125)"/>
<path d="M0 0 C2.4375 0.1875 2.4375 0.1875 3.4375 1.1875 C3.47813832 2.85367115 3.480221 4.52138095 3.4375 6.1875 C1.4575 6.1875 -0.5225 6.1875 -2.5625 6.1875 C-2.5625 7.1775 -2.5625 8.1675 -2.5625 9.1875 C-0.5825 9.1875 1.3975 9.1875 3.4375 9.1875 C3.1075 9.8475 2.7775 10.5075 2.4375 11.1875 C0.0625 11.3125 0.0625 11.3125 -2.5625 11.1875 C-4.5625 9.1875 -4.5625 9.1875 -4.8125 5.6875 C-4.52167932 1.61601046 -4.20623277 0.30777313 0 0 Z " fill="#2C2C2C" transform="translate(153.5625,127.8125)"/>
<path d="M0 0 C0 3.3 0 6.6 0 10 C-1.65 10 -3.3 10 -5 10 C-6 9 -6 9 -6.09765625 7.15234375 C-6.06510417 5.1015625 -6.03255208 3.05078125 -6 1 C-3 0 -3 0 0 0 Z " fill="#B8B8B8" transform="translate(152,159)"/>
<path d="M0 0 C1.2684375 0.12375 1.2684375 0.12375 2.5625 0.25 C3.2225 1.24 3.8825 2.23 4.5625 3.25 C1.5925 2.755 1.5925 2.755 -1.4375 2.25 C-0.04554085 5.0339183 1.71825779 5.22898997 4.5625 6.25 C4.2325 7.9 3.9025 9.55 3.5625 11.25 C1.5825 11.25 -0.3975 11.25 -2.4375 11.25 C-2.7675 10.26 -3.0975 9.27 -3.4375 8.25 C-0.4675 8.745 -0.4675 8.745 2.5625 9.25 C2.5625 8.59 2.5625 7.93 2.5625 7.25 C0.9125 6.92 -0.7375 6.59 -2.4375 6.25 C-2.81968767 4.59385343 -3.15145102 2.92542976 -3.4375 1.25 C-2.4375 0.25 -2.4375 0.25 0 0 Z " fill="#404040" transform="translate(163.4375,127.75)"/>
<path d="M0 0 C1.32 0.66 2.64 1.32 4 2 C3.34 2 2.68 2 2 2 C1.855625 2.804375 1.71125 3.60875 1.5625 4.4375 C1 7 1 7 0 8 C-2.18639453 8.07258946 -4.37500389 8.08373783 -6.5625 8.0625 C-8.35880859 8.04896484 -8.35880859 8.04896484 -10.19140625 8.03515625 C-11.11824219 8.02355469 -12.04507813 8.01195313 -13 8 C-13 7.01 -13 6.02 -13 5 C-8.71 5 -4.42 5 0 5 C0 3.35 0 1.7 0 0 Z " fill="#00719D" transform="translate(130,77)"/>
<path d="M0 0 C0.78375 0.04125 1.5675 0.0825 2.375 0.125 C3.035 1.445 3.695 2.765 4.375 4.125 C3.715 4.125 3.055 4.125 2.375 4.125 C2.375 3.465 2.375 2.805 2.375 2.125 C1.055 2.455 -0.265 2.785 -1.625 3.125 C-1.955 5.105 -2.285 7.085 -2.625 9.125 C0.84 8.63 0.84 8.63 4.375 8.125 C3.385 9.61 3.385 9.61 2.375 11.125 C-0.125 11.4375 -0.125 11.4375 -2.625 11.125 C-4.625 9.125 -4.625 9.125 -4.875 5.625 C-4.58138251 1.51435512 -4.25902123 0.20281053 0 0 Z " fill="#373737" transform="translate(142.625,127.875)"/>
<path d="M0 0 C0.99 0 1.98 0 3 0 C3 4.95 3 9.9 3 15 C2.01 15 1.02 15 0 15 C0 10.05 0 5.1 0 0 Z " fill="#535353" transform="translate(133,124)"/>
<path d="M0 0 C0.33 0.66 0.66 1.32 1 2 C2.32 1.67 3.64 1.34 5 1 C5 3.97 5 6.94 5 10 C3.33333333 10 1.66666667 10 0 10 C0 6.7 0 3.4 0 0 Z " fill="#A9A9A9" transform="translate(132,159)"/>
<path d="M0 0 C1.32 0.66 2.64 1.32 4 2 C4 3.65 4 5.3 4 7 C2.35 7.33 0.7 7.66 -1 8 C-1.625 5.125 -1.625 5.125 -2 2 C-1.34 1.34 -0.68 0.68 0 0 Z " fill="#AFAFAF" transform="translate(155,161)"/>
<path d="M0 0 C0.33 0 0.66 0 1 0 C1 3.63 1 7.26 1 11 C0.34 10.67 -0.32 10.34 -1 10 C-1 9.34 -1 8.68 -1 8 C-2.98 8.33 -4.96 8.66 -7 9 C-7.33 8.01 -7.66 7.02 -8 6 C-5.69 6 -3.38 6 -1 6 C-0.67 4.02 -0.34 2.04 0 0 Z " fill="#E6E6E6" transform="translate(115,128)"/>
<path d="M0 0 C2.625 0.375 2.625 0.375 5 1 C5 1.66 5 2.32 5 3 C3.35 2.67 1.7 2.34 0 2 C0 3.98 0 5.96 0 8 C1.65 7.67 3.3 7.34 5 7 C5 7.66 5 8.32 5 9 C2.625 9.625 2.625 9.625 0 10 C-2 8 -2 8 -2.25 5 C-2 2 -2 2 0 0 Z " fill="#989898" transform="translate(97,159)"/>
<path d="M0 0 C1.98 0 3.96 0 6 0 C6.33 0.66 6.66 1.32 7 2 C6.0625 4.125 6.0625 4.125 5 6 C3.35 6 1.7 6 0 6 C0 4.02 0 2.04 0 0 Z " fill="#F2F2F2" transform="translate(97,161)"/>
<path d="M0 0 C2.64 0.33 5.28 0.66 8 1 C7.34 2.65 6.68 4.3 6 6 C4.02 5.34 2.04 4.68 0 4 C0 2.68 0 1.36 0 0 Z " fill="#DBDBDB" transform="translate(96,126)"/>
<path d="M0 0 C0.33 0 0.66 0 1 0 C1.33975517 3.65236803 1.20830209 5.61672415 -0.5625 8.875 C-3 11 -3 11 -6.75 11.3125 C-7.8225 11.209375 -8.895 11.10625 -10 11 C-8 8 -8 8 -5.5625 7.1875 C-2.06952506 5.5688043 -1.4326437 3.4685058 0 0 Z " fill="#C4E0F6" transform="translate(123,65)"/>
<path d="M0 0 C0.66 0 1.32 0 2 0 C2 1.65 2 3.3 2 5 C2.66 5 3.32 5 4 5 C4 3.35 4 1.7 4 0 C4.66 0 5.32 0 6 0 C6 2.31 6 4.62 6 7 C4.35 7 2.7 7 1 7 C0.67 4.69 0.34 2.38 0 0 Z " fill="#9A9A9A" transform="translate(124,162)"/>
<path d="M0 0 C1.66611905 -0.042721 3.33382885 -0.04063832 5 0 C6 1 6 1 6.0625 4.0625 C6.041875 5.031875 6.02125 6.00125 6 7 C5.71125 6.360625 5.4225 5.72125 5.125 5.0625 C4.17176549 2.84793921 4.17176549 2.84793921 2 2 C2 3.98 2 5.96 2 8 C1.34 8 0.68 8 0 8 C0 5.36 0 2.72 0 0 Z " fill="#9D9D9D" transform="translate(160,161)"/>
<path d="M0 0 C1.65 0 3.3 0 5 0 C5 0.66 5 1.32 5 2 C4.01 2.495 4.01 2.495 3 3 C2.53476937 4.89533342 2.53476937 4.89533342 2.375 7.0625 C2.25125 8.361875 2.1275 9.66125 2 11 C1.34 11 0.68 11 0 11 C0 7.37 0 3.74 0 0 Z " fill="#393939" transform="translate(116,128)"/>
<path d="M0 0 C0.33 0 0.66 0 1 0 C1.226875 1.11375 1.45375 2.2275 1.6875 3.375 C2.60623658 7.16038373 2.60623658 7.16038373 5.625 8.4375 C6.40875 8.623125 7.1925 8.80875 8 9 C8 9.33 8 9.66 8 10 C4.625 10.125 4.625 10.125 1 10 C-1 8 -1 8 -1.1875 4.4375 C-1 1 -1 1 0 0 Z " fill="#EDF6FC" transform="translate(111,65)"/>
<path d="M0 0 C1.98 0.495 1.98 0.495 4 1 C3.67 1.66 3.34 2.32 3 3 C3.39938767 5.09821215 3.39938767 5.09821215 4 7 C2.68 7.33 1.36 7.66 0 8 C-0.98120464 4.94736336 -0.98120464 3.05263664 0 0 Z " fill="#9A9A9A" transform="translate(119,161)"/>
<path d="M0 0 C1 2 2 4 3 6 C4.98 6 6.96 6 9 6 C8.67 6.99 8.34 7.98 8 9 C5.125 9.125 5.125 9.125 2 9 C0 7 0 7 -0.125 3.375 C-0.08375 2.26125 -0.0425 1.1475 0 0 Z " fill="#4A4A4A" transform="translate(105,130)"/>
<path d="M0 0 C1.98 0.495 1.98 0.495 4 1 C4 2.98 4 4.96 4 7 C2.68 7.33 1.36 7.66 0 8 C-0.33 6.68 -0.66 5.36 -1 4 C0.98 4.99 0.98 4.99 3 6 C2.67 4.68 2.34 3.36 2 2 C1.01 2.33 0.02 2.66 -1 3 C-0.67 2.01 -0.34 1.02 0 0 Z " fill="#909090" transform="translate(140,161)"/>
<path d="M0 0 C1.65 0 3.3 0 5 0 C5.33 0.66 5.66 1.32 6 2 C5.67 2.99 5.34 3.98 5 5 C3.35 5 1.7 5 0 5 C0 3.35 0 1.7 0 0 Z " fill="#898989" transform="translate(151,128)"/>
<path d="M0 0 C2.4375 0.75 2.4375 0.75 5 2 C5.8125 4.125 5.8125 4.125 6 6 C3 5 3 5 2 4 C1.67 5.32 1.34 6.64 1 8 C0.67 8 0.34 8 0 8 C0 5.36 0 2.72 0 0 Z " fill="#D9D9D9" transform="translate(137,161)"/>
<path d="M0 0 C0.33 0 0.66 0 1 0 C1 2.97 1 5.94 1 9 C-1.31 8.34 -3.62 7.68 -6 7 C-6 6.01 -6 5.02 -6 4 C-4.02 4 -2.04 4 0 4 C0 2.68 0 1.36 0 0 Z " fill="#C0C0C0" transform="translate(157,130)"/>
<path d="M0 0 C-0.625 1.9375 -0.625 1.9375 -2 4 C-5.125 4.75 -5.125 4.75 -8 5 C-8 4.01 -8 3.02 -8 2 C-2.25 0 -2.25 0 0 0 Z " fill="#0053A8" transform="translate(143,75)"/>
<path d="M0 0 C0.99 0 1.98 0 3 0 C2.34 4.95 1.68 9.9 1 15 C0.67 15 0.34 15 0 15 C0 10.05 0 5.1 0 0 Z " fill="#989898" transform="translate(133,124)"/>
<path d="M0 0 C2 2 2 2 2.1953125 4.1640625 C2.17210937 4.97617188 2.14890625 5.78828125 2.125 6.625 C2.10695312 7.44226563 2.08890625 8.25953125 2.0703125 9.1015625 C2.03550781 10.04128906 2.03550781 10.04128906 2 11 C1.34 9.68 0.68 8.36 0 7 C-0.99 7.495 -0.99 7.495 -2 8 C-1.34 5.36 -0.68 2.72 0 0 Z " fill="#E4E4E4" transform="translate(131,128)"/>
<path d="M0 0 C1.98 0.66 3.96 1.32 6 2 C6 2.66 6 3.32 6 4 C3.03 3.505 3.03 3.505 0 3 C-0.33 3.66 -0.66 4.32 -1 5 C-0.67 3.35 -0.34 1.7 0 0 Z " fill="#DFDFDF" transform="translate(160,133)"/>
<path d="M0 0 C1.65 0 3.3 0 5 0 C5.66 1.32 6.32 2.64 7 4 C6.34 4 5.68 4 5 4 C5 3.34 5 2.68 5 2 C3.35 2.33 1.7 2.66 0 3 C0 2.01 0 1.02 0 0 Z " fill="#424242" transform="translate(140,128)"/>
</svg>
