<?xml version="1.0" encoding="UTF-8"?>
<svg version="1.1" xmlns="http://www.w3.org/2000/svg" width="261" height="284">
<path d="M0 0 C0.80969551 -0.0055344 1.61939102 -0.01106879 2.45362276 -0.0167709 C5.17621353 -0.03042207 7.89789464 -0.01538444 10.62046814 -0.00050354 C12.56838369 -0.00428507 14.51629657 -0.00978374 16.46420288 -0.01687622 C21.761625 -0.03086883 27.05872373 -0.01963477 32.35612798 -0.00316501 C37.89121985 0.0106552 43.42629238 0.00422896 48.96139526 0.0007019 C58.25666027 -0.00200239 67.55179631 0.01149506 76.84703064 0.03465271 C87.6063113 0.0612716 98.36537637 0.06300787 109.12467867 0.05126435 C119.46010486 0.04050035 129.79545277 0.04666228 140.13087273 0.06081963 C144.53636453 0.06659062 148.94179927 0.06648804 153.34729195 0.06175423 C158.53063145 0.05699602 163.71373365 0.06703794 168.89702797 0.08870888 C170.80383758 0.09429245 172.71066993 0.09472775 174.61748123 0.08975601 C177.21148162 0.08383873 179.80474763 0.09623902 182.39868164 0.11352539 C183.16121736 0.10751535 183.92375308 0.1015053 184.70939595 0.09531313 C186.8058939 0.12088871 186.8058939 0.12088871 190.135849 0.50120544 C192.66913998 4.30114191 192.41738061 7.33600075 192.39654541 11.73826599 C192.40037096 12.58809146 192.4041965 13.43791693 192.40813798 14.31349468 C192.41848745 17.1717001 192.41447216 20.02970536 192.4105072 22.88792419 C192.41485256 24.93273607 192.42003512 26.97754632 192.42599487 29.02235413 C192.43941409 34.58420227 192.43996037 40.14598259 192.43743157 45.70784378 C192.43636398 50.34533965 192.44123971 54.98282168 192.44603699 59.6203146 C192.45714199 70.556859 192.45756381 81.49336906 192.45152283 92.42991638 C192.44547911 103.72652427 192.45780193 115.02300773 192.4790929 126.31959438 C192.49668236 136.00710312 192.50271451 145.69457216 192.49945515 155.38209629 C192.49763813 161.17308496 192.50032021 166.96398484 192.51416969 172.75495911 C192.52670052 178.19845945 192.5248491 183.64176511 192.5117588 189.0852623 C192.5093832 191.08680155 192.51216265 193.0883543 192.52038193 195.08987808 C192.53076808 197.81486296 192.52281471 200.53918463 192.5100708 203.2641449 C192.51744509 204.06267726 192.52481937 204.86120962 192.53241712 205.68393993 C192.47963115 211.0212449 192.47963115 211.0212449 190.73746014 213.45352173 C187.07411257 215.84987718 183.85503164 215.64661583 179.60195923 215.64164734 C178.8156526 215.64461846 178.02934598 215.64758958 177.21921188 215.65065074 C174.56991298 215.65936045 171.92065915 215.6608479 169.27134705 215.66233826 C167.37770999 215.66696483 165.48407387 215.67198927 163.59043884 215.67738342 C158.43542764 215.6905251 153.28042947 215.69695585 148.12540412 215.70139408 C144.90682089 215.70432203 141.68824124 215.7084263 138.46965981 215.71289825 C128.4054973 215.72657799 118.34134296 215.73624225 108.27717179 215.74010015 C96.64843636 215.74458189 85.01981841 215.76213321 73.39111871 215.79110074 C64.41018039 215.81269814 55.42927517 215.82280339 46.44831115 215.82414126 C41.08088884 215.82519071 35.7135769 215.83112806 30.34618187 215.84896088 C25.29748882 215.86540795 20.24898949 215.86761344 15.20027924 215.85882187 C13.34631902 215.85804968 11.49234853 215.86241805 9.63841438 215.87228012 C7.10894059 215.88494747 4.58015829 215.87915143 2.0506897 215.86869812 C1.31566512 215.87675452 0.58064055 215.88481093 -0.1766575 215.89311147 C-4.53243738 215.85096288 -7.67834527 215.60482229 -10.864151 212.50120544 C-11.3712036 209.568925 -11.53169557 207.20816934 -11.48561096 204.27087402 C-11.49199978 203.42175412 -11.49838861 202.57263422 -11.50497103 201.69778341 C-11.5202787 198.84150028 -11.4997219 195.9865915 -11.47938538 193.13035583 C-11.48288487 191.08716368 -11.4885415 189.04397425 -11.49620056 187.00079346 C-11.51048375 181.44284863 -11.49335174 175.88539645 -11.46991539 170.32749867 C-11.44985218 164.51841338 -11.45568363 158.70934945 -11.45802307 152.90023804 C-11.45796945 143.14255112 -11.4381816 133.3850575 -11.40614319 123.62742615 C-11.36925845 112.33877222 -11.36046568 101.05037172 -11.3674407 89.7616654 C-11.37374171 78.9136608 -11.36299817 68.06574331 -11.34347534 57.21775627 C-11.33529058 52.59621886 -11.33259378 47.9747259 -11.33416748 43.35318184 C-11.33504515 37.91210488 -11.32086178 32.47126951 -11.29494095 27.03025627 C-11.28776629 25.03076219 -11.28570174 23.03124242 -11.28905869 21.03173828 C-11.29276114 18.30706849 -11.27806899 15.58310853 -11.25856018 12.85852051 C-11.26388811 12.06290099 -11.26921603 11.26728147 -11.27470541 10.44755226 C-11.23672838 7.38368805 -11.0102462 4.85345561 -9.83100986 2.01019859 C-6.78945659 -0.32331051 -3.67658745 -0.04644668 0 0 Z " fill="#FEFEFE" transform="translate(39.86415100097656,-0.5012054443359375)"/>
<path d="M0 0 C4.87017582 2.60590158 7.93454611 6.02019282 9.6875 11.25 C11.18829234 15.53797812 12.08974972 16.04487486 16 18 C18.57497251 20.48618036 18.97103561 21.7765604 19.4375 25.375 C18.91305284 29.72041932 17.85143973 31.69833295 15 35 C9.97292432 38.19448498 5.85595863 38.44199865 0.09375 38.3984375 C-0.74917603 38.40130768 -1.59210205 38.40417786 -2.46057129 38.40713501 C-4.23560257 38.40916862 -6.01065663 38.40368813 -7.78564453 38.39111328 C-10.49172409 38.37504913 -13.19631026 38.39098544 -15.90234375 38.41015625 C-17.63281577 38.40817369 -19.36328687 38.40432976 -21.09375 38.3984375 C-22.29868103 38.40754654 -22.29868103 38.40754654 -23.5279541 38.4168396 C-29.59881209 38.34139977 -33.74304984 37.01937646 -38.375 32.875 C-40.64087188 28.86614975 -40.93986101 25.50185525 -40 21 C-38.5806325 18.43361596 -37.1943211 17.03758388 -35 15 C-34.34 15 -33.68 15 -33 15 C-32.9175 14.4225 -32.835 13.845 -32.75 13.25 C-31.72253135 10.16759405 -30.61740284 8.94627391 -28 7 C-26.01205972 6.77555513 -24.02265896 6.55506741 -22.02734375 6.41015625 C-18.50556977 5.69765862 -16.58880379 3.40818957 -14 1 C-9.30020044 -0.56659985 -4.89343889 -0.80110869 0 0 Z " fill="#03ACFC" transform="translate(141,50)"/>
<path d="M0 0 C0.80969551 -0.0055344 1.61939102 -0.01106879 2.45362276 -0.0167709 C5.17621353 -0.03042207 7.89789464 -0.01538444 10.62046814 -0.00050354 C12.56838369 -0.00428507 14.51629657 -0.00978374 16.46420288 -0.01687622 C21.761625 -0.03086883 27.05872373 -0.01963477 32.35612798 -0.00316501 C37.89121985 0.0106552 43.42629238 0.00422896 48.96139526 0.0007019 C58.25666027 -0.00200239 67.55179631 0.01149506 76.84703064 0.03465271 C87.6063113 0.0612716 98.36537637 0.06300787 109.12467867 0.05126435 C119.46010486 0.04050035 129.79545277 0.04666228 140.13087273 0.06081963 C144.53636453 0.06659062 148.94179927 0.06648804 153.34729195 0.06175423 C158.53063145 0.05699602 163.71373365 0.06703794 168.89702797 0.08870888 C170.80383758 0.09429245 172.71066993 0.09472775 174.61748123 0.08975601 C177.21148162 0.08383873 179.80474763 0.09623902 182.39868164 0.11352539 C183.16121736 0.10751535 183.92375308 0.1015053 184.70939595 0.09531313 C186.8058939 0.12088871 186.8058939 0.12088871 190.135849 0.50120544 C192.67142858 4.30457482 192.41144023 7.33945284 192.38308716 11.74499512 C192.38550157 12.59552615 192.38791599 13.44605718 192.39040357 14.32236189 C192.39605602 17.18291626 192.3873658 20.04324886 192.37876892 22.90379333 C192.37984141 24.95022645 192.3817796 26.99665926 192.38452148 29.04309082 C192.38937793 34.60901552 192.38170437 40.17486031 192.37156844 45.74077535 C192.36280189 51.55613572 192.36454511 57.37149349 192.3649292 63.18685913 C192.36399198 72.95286908 192.35529989 82.71884799 192.34165955 92.48484802 C192.32592903 103.78938772 192.32066156 115.09389343 192.3213951 126.39844328 C192.32200464 137.25710337 192.31690624 148.11575235 192.30860329 158.9744091 C192.30506511 163.60317 192.30323928 168.23192697 192.30270958 172.86068916 C192.30170783 178.3065955 192.29562502 183.75247311 192.28554344 189.19836998 C192.28261327 191.20193938 192.28139411 193.20551209 192.28197098 195.20908356 C192.28245884 197.93421977 192.27683401 200.65927451 192.26956177 203.38439941 C192.27111037 204.18584462 192.27265897 204.98728982 192.2742545 205.81302124 C192.25002794 211.27284756 192.25002794 211.27284756 191.135849 213.50120544 C190.475849 213.17120544 189.815849 212.84120544 189.135849 212.50120544 C189.135849 142.87120544 189.135849 73.24120544 189.135849 1.50120544 C140.935224 1.71776794 140.935224 1.71776794 91.760849 1.93870544 C76.51760437 2.00335999 76.51760437 2.00335999 60.96641541 2.06932068 C51.89065231 2.11255379 51.89065231 2.11255379 42.81489563 2.15710449 C38.75915718 2.17697766 34.70341709 2.19405384 30.6476593 2.20947266 C25.48282377 2.22919804 20.31803093 2.25361579 15.15323329 2.28151143 C13.25241959 2.29096422 11.35159663 2.29873309 9.45076871 2.30467498 C6.89356925 2.31290435 4.33647409 2.32715189 1.77931213 2.34298706 C1.02661734 2.34396424 0.27392254 2.34494143 -0.50158119 2.34594822 C-4.30931515 2.31256548 -4.30931515 2.31256548 -7.864151 3.50120544 C-8.194151 72.47120544 -8.524151 141.44120544 -8.864151 212.50120544 C-9.524151 212.50120544 -10.184151 212.50120544 -10.864151 212.50120544 C-10.93417466 185.45047557 -10.98710659 158.39975925 -11.01958752 131.34895706 C-11.03506859 118.78932418 -11.0561818 106.22974754 -11.09046936 93.67015076 C-11.12033374 82.7255715 -11.13971698 71.78103297 -11.14641649 60.8364141 C-11.15033376 55.039184 -11.15956567 49.24207044 -11.18134117 43.44487762 C-11.20165951 37.99158701 -11.20799422 32.53846128 -11.20347404 27.08513641 C-11.20430133 25.08078618 -11.21029456 23.0764306 -11.22176743 21.07211304 C-11.2366387 18.3407736 -11.23312426 15.61006108 -11.22491455 12.87870789 C-11.23365308 12.08104201 -11.2423916 11.28337613 -11.25139493 10.46153855 C-11.22635471 7.39075756 -11.01256277 4.85995254 -9.83311272 2.00893688 C-6.78939845 -0.32178578 -3.67699868 -0.04645188 0 0 Z " fill="#A3A3A3" transform="translate(39.86415100097656,-0.5012054443359375)"/>
<path d="M0 0 C0 0.99 0 1.98 0 3 C-0.99 3.495 -0.99 3.495 -2 4 C-2.02687279 5.81242052 -2.04633715 7.62495233 -2.0625 9.4375 C-2.07410156 10.44683594 -2.08570312 11.45617187 -2.09765625 12.49609375 C-2.28612676 14.94021067 -2.28612676 14.94021067 -1 16 C-0.56639485 20.76965667 -1.45933639 23.03656477 -4 27 C-4.33 28.65 -4.66 30.3 -5 32 C5.89 32 16.78 32 28 32 C28 32.33 28 32.66 28 33 C22.55569418 33.07437576 17.11168671 33.12870866 11.66699219 33.16479492 C9.81635381 33.17984471 7.96575089 33.20028933 6.11523438 33.22631836 C3.44912955 33.2628698 0.78349792 33.27976454 -1.8828125 33.29296875 C-2.70492218 33.30845261 -3.52703186 33.32393646 -4.37405396 33.33988953 C-10.53741674 33.34167919 -14.66735015 32.08710776 -19.375 27.875 C-21.64087188 23.86614975 -21.93986101 20.50185525 -21 16 C-19.5806325 13.43361596 -18.1943211 12.03758388 -16 10 C-15.34 10 -14.68 10 -14 10 C-13.9175 9.4225 -13.835 8.845 -13.75 8.25 C-12.72253135 5.16759405 -11.61740284 3.94627391 -9 2 C-6.32212361 1.41649386 -3.74314649 1.22484807 -1 1 C-0.67 0.67 -0.34 0.34 0 0 Z " fill="#79DDFB" transform="translate(122,55)"/>
<path d="M0 0 C2.39097964 0.38316981 3.71686228 0.72803877 5.484375 2.42578125 C9.64594945 8.62960983 9.41901304 13.62537056 9 21 C13.62 21 18.24 21 23 21 C23 21.33 23 21.66 23 22 C14.42 22 5.84 22 -3 22 C-3 17 -3 17 -1.5 14.5625 C0.31850626 11.45588514 0.23122805 9.54549683 0 6 C0 5.01 0 4.02 0 3 C0.66 3.33 1.32 3.66 2 4 C1.34 2.68 0.68 1.36 0 0 Z " fill="#03C8FE" transform="translate(120,65)"/>
<path d="M0 0 C2.58713938 2.40234371 2.97969408 3.84335433 3.4375 7.375 C2.92015669 11.66155888 1.75557041 13.70862423 -1 17 C-4.00307629 18.88964758 -6.23135322 19.22848961 -9.75 19.125 C-10.54921875 19.10695313 -11.3484375 19.08890625 -12.171875 19.0703125 C-12.77515625 19.04710938 -13.3784375 19.02390625 -14 19 C-14 18.67 -14 18.34 -14 18 C-10.535 17.505 -10.535 17.505 -7 17 C-7.33 16.319375 -7.66 15.63875 -8 14.9375 C-9.52050359 10.47102069 -9.46734771 6.65369188 -8.1875 2.125 C-6.18641153 -1.45589515 -3.49888706 -1.42142287 0 0 Z " fill="#1B9BFD" transform="translate(157,68)"/>
<path d="M0 0 C2.6875 0.1875 2.6875 0.1875 5.4375 0.75 C6.18 0.894375 6.9225 1.03875 7.6875 1.1875 C8.0175 0.8575 8.3475 0.5275 8.6875 0.1875 C11.1875 0.0625 11.1875 0.0625 13.6875 0.1875 C14.6875 1.1875 14.6875 1.1875 14.75 3.75 C14.729375 4.554375 14.70875 5.35875 14.6875 6.1875 C12.7075 6.1875 10.7275 6.1875 8.6875 6.1875 C8.6875 7.1775 8.6875 8.1675 8.6875 9.1875 C10.6675 9.1875 12.6475 9.1875 14.6875 9.1875 C14.3575 9.8475 14.0275 10.5075 13.6875 11.1875 C10.97222341 11.26507933 8.60784313 11.17120655 5.9375 10.625 C5.195 10.480625 4.4525 10.33625 3.6875 10.1875 C3.3575 10.5175 3.0275 10.8475 2.6875 11.1875 C0.25 11.375 0.25 11.375 -2.3125 11.1875 C-4.3125 9.1875 -4.3125 9.1875 -4.5625 5.6875 C-4.28649668 1.82345354 -4.05172254 0.32851804 0 0 Z " fill="#E5E5E5" transform="translate(142.3125,127.8125)"/>
<path d="M0 0 C4.29 0 8.58 0 13 0 C13.73316291 3.66581454 14.10380005 6.36699832 14 10 C13.34 9.67 12.68 9.34 12 9 C12 8.34 12 7.68 12 7 C11.34 7 10.68 7 10 7 C10 7.99 10 8.98 10 10 C8.52093108 10.02689216 7.04172517 10.04634621 5.5625 10.0625 C4.32693359 10.07990234 4.32693359 10.07990234 3.06640625 10.09765625 C1 10 1 10 0 9 C-0.14193337 5.99668982 -0.04236378 3.00782866 0 0 Z " fill="#C2C2C2" transform="translate(101,159)"/>
<path d="M0 0 C0 0.99 0 1.98 0 3 C-0.99 3.495 -0.99 3.495 -2 4 C-2.46751788 6.35599235 -2.46751788 6.35599235 -2.625 9.0625 C-2.69976562 9.98160156 -2.77453125 10.90070313 -2.8515625 11.84765625 C-2.90054688 12.55792969 -2.94953125 13.26820312 -3 14 C-3.66 13.67 -4.32 13.34 -5 13 C-5.804375 13.495 -6.60875 13.99 -7.4375 14.5 C-8.283125 14.995 -9.12875 15.49 -10 16 C-10.99 15.67 -11.98 15.34 -13 15 C-14.44430855 12.11138291 -14.37688506 10.20352299 -14 7 C-11.96070411 4.13224015 -10.42604687 2.34042848 -6.921875 1.50390625 C-4.95418384 1.27387041 -2.97670407 1.13178027 -1 1 C-0.67 0.67 -0.34 0.34 0 0 Z " fill="#5ED4FA" transform="translate(122,55)"/>
<path d="M0 0 C2.97 0 5.94 0 9 0 C9.33 0.99 9.66 1.98 10 3 C8.68 3 7.36 3 6 3 C7.32 3.99 8.64 4.98 10 6 C9.67 7.32 9.34 8.64 9 10 C6.03 10 3.06 10 0 10 C0 6.7 0 3.4 0 0 Z " fill="#C8C8C8" transform="translate(150,159)"/>
<path d="M0 0 C2.97 0 5.94 0 9 0 C9.33 1.98 9.66 3.96 10 6 C10.66 6 11.32 6 12 6 C12.33 4.02 12.66 2.04 13 0 C13.66 0 14.32 0 15 0 C14.69078116 1.45903258 14.37751201 2.91720722 14.0625 4.375 C13.88847656 5.18710938 13.71445313 5.99921875 13.53515625 6.8359375 C13 9 13 9 12 11 C11.01 10.67 10.02 10.34 9 10 C7.5522078 7.10441559 7 5.25811062 7 2 C5.68 2.33 4.36 2.66 3 3 C2.67 5.64 2.34 8.28 2 11 C1.34 11 0.68 11 0 11 C0 7.37 0 3.74 0 0 Z " fill="#505050" transform="translate(116,128)"/>
<path d="M0 0 C2.5 0.25 2.5 0.25 4.5 2.25 C4.5 3.57 4.5 4.89 4.5 6.25 C2.19 6.25 -0.12 6.25 -2.5 6.25 C-2.17 6.91 -1.84 7.57 -1.5 8.25 C0.48 8.25 2.46 8.25 4.5 8.25 C4.17 9.24 3.84 10.23 3.5 11.25 C0.625 11.375 0.625 11.375 -2.5 11.25 C-4.5 9.25 -4.5 9.25 -4.75 5.75 C-4.46177779 1.71488904 -4.15174939 0.41517494 0 0 Z " fill="#5D5D5D" transform="translate(109.5,127.75)"/>
<path d="M0 0 C3.625 0.375 3.625 0.375 7 1 C7.33 1.99 7.66 2.98 8 4 C5.69 3.67 3.38 3.34 1 3 C1.72268235 6.2985139 1.72268235 6.2985139 5.0625 7.6875 C6.5165625 8.3371875 6.5165625 8.3371875 8 9 C8 10.65 8 12.3 8 14 C5.29120665 15.35439668 2.99066732 15.06501451 0 15 C-0.66 13.68 -1.32 12.36 -2 11 C-1.34 11 -0.68 11 0 11 C0 11.66 0 12.32 0 13 C1.98 13 3.96 13 6 13 C5.67 12.01 5.34 11.02 5 10 C4.01 9.54625 3.02 9.0925 2 8.625 C-1 7 -1 7 -2 4.4375 C-2 2 -2 2 0 0 Z " fill="#363636" transform="translate(95,124)"/>
<path d="M0 0 C3.07053382 2.39885455 3.93626913 3.49925747 4.4375 7.4375 C3.98419298 11.12871434 3.28776211 13.09630194 1 16 C0.34 16 -0.32 16 -1 16 C-1.22384382 14.27277272 -1.42839969 12.54303993 -1.625 10.8125 C-1.74101562 9.84957031 -1.85703125 8.88664062 -1.9765625 7.89453125 C-2.00194942 4.75924677 -1.34359283 2.80513465 0 0 Z " fill="#188BFB" transform="translate(156,68)"/>
<path d="M0 0 C3 1 3 1 4.1875 3.0625 C4.455625 3.701875 4.72375 4.34125 5 5 C5.45375 4.175 5.9075 3.35 6.375 2.5 C6.91125 1.675 7.4475 0.85 8 0 C8.66 0 9.32 0 10 0 C10 3.3 10 6.6 10 10 C9.34 10 8.68 10 8 10 C7.67 9.01 7.34 8.02 7 7 C6.67 7.66 6.34 8.32 6 9 C5.01 8.67 4.02 8.34 3 8 C2.67 8.66 2.34 9.32 2 10 C1.34 10 0.68 10 0 10 C0 6.7 0 3.4 0 0 Z " fill="#979797" transform="translate(139,159)"/>
<path d="M0 0 C2.4375 0.1875 2.4375 0.1875 3.4375 1.1875 C3.47813832 2.85367115 3.480221 4.52138095 3.4375 6.1875 C1.4575 6.1875 -0.5225 6.1875 -2.5625 6.1875 C-2.5625 7.1775 -2.5625 8.1675 -2.5625 9.1875 C-0.5825 9.1875 1.3975 9.1875 3.4375 9.1875 C3.1075 9.8475 2.7775 10.5075 2.4375 11.1875 C0.0625 11.3125 0.0625 11.3125 -2.5625 11.1875 C-4.5625 9.1875 -4.5625 9.1875 -4.8125 5.6875 C-4.52167932 1.61601046 -4.20623277 0.30777313 0 0 Z " fill="#2A2A2A" transform="translate(153.5625,127.8125)"/>
<path d="M0 0 C0.66 0.33 1.32 0.66 2 1 C2.33337803 5.77841845 1.55194066 8.01897257 -1 12 C-1.70670728 14.69254991 -1.70670728 14.69254991 -2 17 C-3.32 17 -4.64 17 -6 17 C-5.34 13.7 -4.68 10.4 -4 7 C-3.34 7 -2.68 7 -2 7 C-1.855625 6.401875 -1.71125 5.80375 -1.5625 5.1875 C-1.1127561 3.43849596 -0.57107659 1.71322977 0 0 Z " fill="#57D7FE" transform="translate(119,70)"/>
<path d="M0 0 C0 1.65 0 3.3 0 5 C-3 5 -3 5 -5 4 C-5 8.62 -5 13.24 -5 18 C-7.729 15.271 -7.97507461 13.4486571 -8.1875 9.625 C-8.0091232 6.17638178 -7.67466783 3.99677401 -6 1 C-3 0 -3 0 0 0 Z " fill="#11A2FD" transform="translate(156,67)"/>
<path d="M0 0 C1.98 0.495 1.98 0.495 4 1 C4 2.32 4 3.64 4 5 C4.66 5 5.32 5 6 5 C6 6.65 6 8.3 6 10 C4.02 10 2.04 10 0 10 C-0.95024979 6.30458414 -0.95024979 3.69541586 0 0 Z " fill="#A0A0A0" transform="translate(129,159)"/>
<path d="M0 0 C1.32 0.33 2.64 0.66 4 1 C4.42858696 6.57163047 2.87770482 10.86150047 1 16 C0.608125 17.175625 0.21625 18.35125 -0.1875 19.5625 C-0.455625 20.366875 -0.72375 21.17125 -1 22 C-1.66 22 -2.32 22 -3 22 C-3.27186697 18.82821869 -3.19555229 17.31777247 -1.5 14.5625 C0.31850626 11.45588514 0.23122805 9.54549683 0 6 C0 5.01 0 4.02 0 3 C0.66 3.33 1.32 3.66 2 4 C1.34 2.68 0.68 1.36 0 0 Z " fill="#26D0FE" transform="translate(120,65)"/>
<path d="M0 0 C0 0.99 0 1.98 0 3 C-1.98 3.33 -3.96 3.66 -6 4 C-5.34 4.66 -4.68 5.32 -4 6 C-4.375 8.125 -4.375 8.125 -5 10 C-5.66 9.67 -6.32 9.34 -7 9 C-9.3329866 8.95977609 -11.66706666 8.95679753 -14 9 C-12.70268494 6.10598949 -11.62285333 3.83599733 -9 2 C-6.33744829 1.49003546 -3.7037493 1.26165316 -1 1 C-0.67 0.67 -0.34 0.34 0 0 Z " fill="#79DCF9" transform="translate(122,55)"/>
<path d="M0 0 C2.375 -0.1875 2.375 -0.1875 5 0 C5.66 0.99 6.32 1.98 7 3 C4.03 2.505 4.03 2.505 1 2 C2.37691962 4.75383923 4.36720042 5.51483101 7 7 C6.67 8.32 6.34 9.64 6 11 C4.02 11 2.04 11 0 11 C-0.33 10.01 -0.66 9.02 -1 8 C1.97 8.495 1.97 8.495 5 9 C3.60804085 6.2160817 1.84424221 6.02101003 -1 5 C-0.67 3.35 -0.34 1.7 0 0 Z " fill="#393939" transform="translate(161,128)"/>
<path d="M0 0 C0.78375 0.04125 1.5675 0.0825 2.375 0.125 C3.035 1.445 3.695 2.765 4.375 4.125 C3.715 4.125 3.055 4.125 2.375 4.125 C2.375 3.465 2.375 2.805 2.375 2.125 C1.055 2.455 -0.265 2.785 -1.625 3.125 C-1.955 5.105 -2.285 7.085 -2.625 9.125 C0.84 8.63 0.84 8.63 4.375 8.125 C3.385 9.61 3.385 9.61 2.375 11.125 C-0.125 11.4375 -0.125 11.4375 -2.625 11.125 C-4.625 9.125 -4.625 9.125 -4.875 5.625 C-4.58138251 1.51435512 -4.25902123 0.20281053 0 0 Z " fill="#373737" transform="translate(142.625,127.875)"/>
<path d="M0 0 C0.99 0 1.98 0 3 0 C3 4.95 3 9.9 3 15 C2.01 15 1.02 15 0 15 C0 10.05 0 5.1 0 0 Z " fill="#757575" transform="translate(133,124)"/>
<path d="M0 0 C1.98 0 3.96 0 6 0 C6 0.66 6 1.32 6 2 C4.68 2 3.36 2 2 2 C2 2.66 2 3.32 2 4 C2.99 4.33 3.98 4.66 5 5 C4.01 5 3.02 5 2 5 C2 5.99 2 6.98 2 8 C3.32 8 4.64 8 6 8 C6 8.66 6 9.32 6 10 C4.33388095 10.042721 2.66617115 10.04063832 1 10 C0 9 0 9 -0.09765625 6.93359375 C-0.08605469 6.10988281 -0.07445313 5.28617188 -0.0625 4.4375 C-0.05347656 3.61121094 -0.04445313 2.78492188 -0.03515625 1.93359375 C-0.02355469 1.29550781 -0.01195313 0.65742188 0 0 Z " fill="#9A9A9A" transform="translate(101,159)"/>
<path d="M0 0 C1.65 0.33 3.3 0.66 5 1 C5 1.66 5 2.32 5 3 C3.68 3 2.36 3 1 3 C2.32 3.99 3.64 4.98 5 6 C4.67 7.32 4.34 8.64 4 10 C1.5625 9.625 1.5625 9.625 -1 9 C-1.33 8.34 -1.66 7.68 -2 7 C0.475 7.495 0.475 7.495 3 8 C3 7.34 3 6.68 3 6 C1.68 5.67 0.36 5.34 -1 5 C-0.67 3.35 -0.34 1.7 0 0 Z " fill="#969696" transform="translate(155,159)"/>
<path d="M0 0 C1.66611905 -0.042721 3.33382885 -0.04063832 5 0 C6 1 6 1 6.0625 3.5625 C6.041875 4.366875 6.02125 5.17125 6 6 C4.35 6 2.7 6 1 6 C0.67 6.99 0.34 7.98 0 9 C0 6.03 0 3.06 0 0 Z " fill="#A3A3A3" transform="translate(117,159)"/>
<path d="M0 0 C0.33 0 0.66 0 1 0 C1 3.63 1 7.26 1 11 C0.34 10.67 -0.32 10.34 -1 10 C-1 9.34 -1 8.68 -1 8 C-2.98 8.33 -4.96 8.66 -7 9 C-7.33 8.01 -7.66 7.02 -8 6 C-5.69 6 -3.38 6 -1 6 C-0.67 4.02 -0.34 2.04 0 0 Z " fill="#E6E6E6" transform="translate(115,128)"/>
<path d="M0 0 C1.125 1.75 1.125 1.75 2 4 C1.07451225 6.69933926 0.57626463 7.71186768 -2 9 C-1.67 10.98 -1.34 12.96 -1 15 C-1.99 14.67 -2.98 14.34 -4 14 C-4.08096803 12.54257537 -4.13917774 11.08387193 -4.1875 9.625 C-4.22230469 8.81289063 -4.25710937 8.00078125 -4.29296875 7.1640625 C-4.19628906 6.44992188 -4.09960938 5.73578125 -4 5 C-3.01 4.34 -2.02 3.68 -1 3 C-0.67 2.01 -0.34 1.02 0 0 Z " fill="#10C0FB" transform="translate(123,54)"/>
<path d="M0 0 C3.625 0.375 3.625 0.375 7 1 C7.33 1.99 7.66 2.98 8 4 C5.69 3.67 3.38 3.34 1 3 C1.33 4.32 1.66 5.64 2 7 C1.01 7 0.02 7 -1 7 C-1.625 4.625 -1.625 4.625 -2 2 C-1.34 1.34 -0.68 0.68 0 0 Z " fill="#3F3F3F" transform="translate(95,124)"/>
<path d="M0 0 C2.64 0.33 5.28 0.66 8 1 C8 1.66 8 2.32 8 3 C6 5 6 5 4 6 C1.375 4.5625 1.375 4.5625 -1 3 C-0.67 2.01 -0.34 1.02 0 0 Z " fill="#DADADA" transform="translate(96,126)"/>
<path d="M0 0 C0.78375 0.04125 1.5675 0.0825 2.375 0.125 C2.705 0.785 3.035 1.445 3.375 2.125 C3.045 3.115 2.715 4.105 2.375 5.125 C0.395 5.125 -1.585 5.125 -3.625 5.125 C-3.955 4.135 -4.285 3.145 -4.625 2.125 C-2.625 0.125 -2.625 0.125 0 0 Z " fill="#797979" transform="translate(153.625,127.875)"/>
<path d="M0 0 C1.65 0 3.3 0 5 0 C5 0.66 5 1.32 5 2 C4.01 2.495 4.01 2.495 3 3 C2.53476937 4.89533342 2.53476937 4.89533342 2.375 7.0625 C2.25125 8.361875 2.1275 9.66125 2 11 C1.34 11 0.68 11 0 11 C0 7.37 0 3.74 0 0 Z " fill="#3A3A3A" transform="translate(116,128)"/>
<path d="M0 0 C2 1.5625 2 1.5625 4 4 C4.25 7.75 4.25 7.75 4 11 C3.34 11 2.68 11 2 11 C1.87625 10.030625 1.7525 9.06125 1.625 8.0625 C1.41875 7.051875 1.2125 6.04125 1 5 C0.34 4.67 -0.32 4.34 -1 4 C-0.67 2.68 -0.34 1.36 0 0 Z " fill="#2C95FA" transform="translate(156,68)"/>
<path d="M0 0 C1.98 0 3.96 0 6 0 C6 0.99 6 1.98 6 3 C3.69 3.66 1.38 4.32 -1 5 C-0.67 3.35 -0.34 1.7 0 0 Z " fill="#50CDF8" transform="translate(109,63)"/>
<path d="M0 0 C1 2 2 4 3 6 C4.98 6 6.96 6 9 6 C8.67 6.99 8.34 7.98 8 9 C5.125 9.125 5.125 9.125 2 9 C0 7 0 7 -0.125 3.375 C-0.08375 2.26125 -0.0425 1.1475 0 0 Z " fill="#494949" transform="translate(105,130)"/>
<path d="M0 0 C0.33 0 0.66 0 1 0 C1.33337803 4.77841845 0.55194066 7.01897257 -2 11 C-2.70670728 13.69254991 -2.70670728 13.69254991 -3 16 C-3.66 15.34 -4.32 14.68 -5 14 C-3.45730076 9.27934033 -1.92205381 4.58335908 0 0 Z " fill="#42D3FF" transform="translate(120,71)"/>
<path d="M0 0 C0.33 0 0.66 0 1 0 C1 2.97 1 5.94 1 9 C-1.31 8.34 -3.62 7.68 -6 7 C-6 6.01 -6 5.02 -6 4 C-4.02 4 -2.04 4 0 4 C0 2.68 0 1.36 0 0 Z " fill="#C0C0C0" transform="translate(157,130)"/>
<path d="M0 0 C0 1.65 0 3.3 0 5 C-3 5 -3 5 -6 3 C-6 2.34 -6 1.68 -6 1 C-3 0 -3 0 0 0 Z " fill="#0A97FA" transform="translate(156,67)"/>
<path d="M0 0 C1.65 0 3.3 0 5 0 C5.33 0.66 5.66 1.32 6 2 C5.01 3.485 5.01 3.485 4 5 C3.01 5 2.02 5 1 5 C0.67 3.35 0.34 1.7 0 0 Z " fill="#BDBDBD" transform="translate(109,159)"/>
<path d="M0 0 C2 2 2 2 2.1953125 4.1640625 C2.17210937 4.97617188 2.14890625 5.78828125 2.125 6.625 C2.10695312 7.44226563 2.08890625 8.25953125 2.0703125 9.1015625 C2.03550781 10.04128906 2.03550781 10.04128906 2 11 C1.34 9.68 0.68 8.36 0 7 C-0.99 7.495 -0.99 7.495 -2 8 C-1.34 5.36 -0.68 2.72 0 0 Z " fill="#E4E4E4" transform="translate(131,128)"/>
<path d="M0 0 C2.31 0 4.62 0 7 0 C6.67 1.65 6.34 3.3 6 5 C4.02 4.01 2.04 3.02 0 2 C0 1.34 0 0.68 0 0 Z " fill="#CFCFCF" transform="translate(162,130)"/>
<path d="M0 0 C1.98 0.495 1.98 0.495 4 1 C4 2.98 4 4.96 4 7 C1.525 6.01 1.525 6.01 -1 5 C-0.67 4.34 -0.34 3.68 0 3 C0.66 3.33 1.32 3.66 2 4 C1.34 2.68 0.68 1.36 0 0 Z " fill="#18CCFE" transform="translate(120,65)"/>
<path d="M0 0 C1.98 0 3.96 0 6 0 C6.33 0.99 6.66 1.98 7 3 C4.69 3 2.38 3 0 3 C0 2.01 0 1.02 0 0 Z " fill="#D9D9D9" transform="translate(159,134)"/>
<path d="M0 0 C1.65 0 3.3 0 5 0 C5.66 1.32 6.32 2.64 7 4 C6.34 4 5.68 4 5 4 C5 3.34 5 2.68 5 2 C3.35 2.33 1.7 2.66 0 3 C0 2.01 0 1.02 0 0 Z " fill="#434343" transform="translate(140,128)"/>
</svg>
