<?xml version="1.0" encoding="UTF-8"?>
<svg version="1.1" xmlns="http://www.w3.org/2000/svg" width="28" height="28">
<path d="M0 0 C1.32 0.66 2.64 1.32 4 2 C4 3.32 4 4.64 4 6 C5.98 5.67 7.96 5.34 10 5 C10.33 6.32 10.66 7.64 11 9 C8.69 9.66 6.38 10.32 4 11 C4.99 11.66 5.98 12.32 7 13 C7 14.32 7 15.64 7 17 C5.68 17 4.36 17 3 17 C2.34 16.01 1.68 15.02 1 14 C0.01 15.485 0.01 15.485 -1 17 C-2.32 17 -3.64 17 -5 17 C-4.125 12.125 -4.125 12.125 -3 11 C-4.98 10.34 -6.96 9.68 -9 9 C-8.67 7.68 -8.34 6.36 -8 5 C-7.21625 5.165 -6.4325 5.33 -5.625 5.5 C-3.11791961 6.0623707 -3.11791961 6.0623707 -1 6 C-1.020625 5.195625 -1.04125 4.39125 -1.0625 3.5625 C-1 1 -1 1 0 0 Z " fill="#3E3E3E" transform="translate(13,5)"/>
<path d="M0 0 C0.763125 0.20625 1.52625 0.4125 2.3125 0.625 C2.3125 1.615 2.3125 2.605 2.3125 3.625 C0.0025 4.285 -2.3075 4.945 -4.6875 5.625 C-3.6975 6.285 -2.7075 6.945 -1.6875 7.625 C-1.6875 8.945 -1.6875 10.265 -1.6875 11.625 C-5.6875 11.625 -5.6875 11.625 -7.4375 10.3125 C-8.6875 8.625 -8.6875 8.625 -8.6875 5.625 C-8.0275 5.625 -7.3675 5.625 -6.6875 5.625 C-6.584375 5.00625 -6.48125 4.3875 -6.375 3.75 C-5.24678357 0.26278559 -3.51796162 -0.49087837 0 0 Z " fill="#313131" transform="translate(21.6875,10.375)"/>
<path d="M0 0 C1.32 0.66 2.64 1.32 4 2 C3.34 3.98 2.68 5.96 2 8 C1.34 8 0.68 8 0 8 C-0.38063221 5.6739143 -0.71269945 3.33944736 -1 1 C-0.67 0.67 -0.34 0.34 0 0 Z " fill="#323232" transform="translate(13,5)"/>
<path d="M0 0 C0.66 0 1.32 0 2 0 C2 1.98 2 3.96 2 6 C0.35 6.33 -1.3 6.66 -3 7 C-2.25 2.25 -2.25 2.25 0 0 Z " fill="#313131" transform="translate(11,15)"/>
<path d="M0 0 C1.65 0.33 3.3 0.66 5 1 C5 1.99 5 2.98 5 4 C2.29120665 5.35439668 -0.00933268 5.06501451 -3 5 C-2.01 3.35 -1.02 1.7 0 0 Z " fill="#515151" transform="translate(19,10)"/>
</svg>
