<?xml version="1.0" encoding="UTF-8"?>
<svg version="1.1" xmlns="http://www.w3.org/2000/svg" width="1301" height="374">
<path d="M0 0 C429.33 0 858.66 0 1301 0 C1301 123.42 1301 246.84 1301 374 C871.67 374 442.34 374 0 374 C0 250.58 0 127.16 0 0 Z " fill="#FDFDFD" transform="translate(0,0)"/>
<path d="M0 0 C426.69 0 853.38 0 1293 0 C1290.08062779 1.4596861 1287.80297484 2.44921902 1284.74209595 3.32408142 C1283.89047756 3.5695745 1283.03885918 3.81506758 1282.16143417 4.06799984 C1281.22724781 4.33294026 1280.29306145 4.59788069 1279.33056641 4.87084961 C1278.32987247 5.15805406 1277.32917854 5.4452585 1276.29816055 5.74116611 C1272.90035645 6.7153091 1269.50095621 7.68376364 1266.1015625 8.65234375 C1263.62458499 9.36126484 1261.14771023 10.07054502 1258.67092896 10.78015137 C1253.23035938 12.33830732 1247.78896773 13.89356476 1242.3470459 15.44699097 C1234.24578607 17.75958574 1226.14582071 20.07668814 1218.04617882 22.3949424 C1207.46285613 25.42403325 1196.87925564 28.45215104 1186.29504395 31.47813416 C1159.00971005 39.27899463 1131.72763911 47.09120999 1104.44675207 54.90760684 C1098.79761774 56.52615614 1093.1484573 58.14461429 1087.4992981 59.76307678 C1085.22884813 60.41355354 1082.95839818 61.06403031 1080.68794823 61.7145071 C1079.56307589 62.03677898 1078.43820356 62.35905086 1077.27924418 62.69108856 C1073.86689481 63.66871642 1070.45454744 64.64635132 1067.04220009 65.62398624 C1051.6124021 70.04458907 1036.18250935 74.464861 1020.75244141 78.88452148 C1019.69703022 79.18682816 1018.64161903 79.48913483 1017.55422568 79.80060232 C1006.09847978 83.08187252 994.64251004 86.36235842 983.18600464 89.64097595 C982.17947944 89.92903006 981.17295424 90.21708418 980.13592827 90.5138672 C979.13233108 90.80108335 978.12873389 91.0882995 977.09472466 91.38421917 C976.09408855 91.67058817 975.09345245 91.95695718 974.06249404 92.25200403 C972.05318808 92.82703286 970.04387722 93.4020446 968.0345614 93.97703898 C955.83268822 97.46891901 943.63215324 100.96541257 931.43350101 104.46852893 C923.43433399 106.76563417 915.43447196 109.06030646 907.43408322 111.35315305 C901.8560144 112.9519816 896.27891073 114.55411932 890.70252132 116.15879488 C887.31312274 117.13324001 883.92279245 118.10440942 880.53217411 119.07460093 C878.96732752 119.52309192 877.40287439 119.97295832 875.83884335 120.42428517 C873.71644181 121.03654613 871.59271182 121.64395743 869.46856689 122.25013733 C868.28384418 122.5903444 867.09912148 122.93055147 865.87849808 123.28106785 C863 124 863 124 860 124 C859.79246094 123.41992188 859.58492187 122.83984375 859.37109375 122.2421875 C856.63163216 115.29610497 853.42635398 111.20941947 846.69921875 107.8515625 C839.76891827 105.05420297 832.59458523 103.91758781 825.26171875 102.7265625 C819.44140573 101.7690399 813.72778537 100.40455259 808 99 C807.67 97.68 807.34 96.36 807 95 C813.39849301 90.5246162 820.69464907 91.07696305 828.14697266 92.37353516 C840.68264081 95.00392452 840.68264081 95.00392452 846 98 C852.91840672 86.03298697 852.91840672 86.03298697 856 73 C843.9190999 68.01269455 832.75081181 66.83286833 819.8125 66.75 C818.80292236 66.7406543 817.79334473 66.73130859 816.75317383 66.72167969 C803.81887364 66.77671476 790.16836349 69.28229476 780.015625 77.828125 C774.87221467 83.3702493 771.70806551 90.03970166 771.375 97.625 C771.87711293 105.2003559 774.05724151 111.5777399 779.625 116.875 C788.51372941 123.63358382 798.84792327 125.1122944 809.625 126.75 C811.0249096 126.97158476 812.42465116 127.19423391 813.82421875 127.41796875 C817.21430042 127.95757362 820.60641562 128.48282157 824 129 C824.33 130.65 824.66 132.3 825 134 C813.90312819 139.32649847 799.1466709 135.65974244 788.05078125 131.796875 C785.26659143 130.71501839 782.62830643 129.41524192 780 128 C779.4121875 129.85625 779.4121875 129.85625 778.8125 131.75 C778.21454959 133.50213375 777.60963268 135.25189664 777 137 C776.64808594 138.04414063 776.29617188 139.08828125 775.93359375 140.1640625 C772.89697581 148.40201613 772.89697581 148.40201613 769 151 C767.67460179 151.36360482 766.33917261 151.69096017 765 152 C763.93265625 152.35578125 762.8653125 152.7115625 761.765625 153.078125 C752.5 156.16666667 752.5 156.16666667 749 155 C750.03125 154.38125 751.0625 153.7625 752.125 153.125 C757.45759183 149.36400535 760.14012622 143.71974757 763 138 C763.9729907 125.77678849 763.9729907 125.77678849 759 115 C748.18731725 103.03881986 730.74048609 102.32659572 715.6953125 100.52734375 C713 100 713 100 711 98 C711 96.68 711 95.36 711 94 C718.0015249 89.65422592 728.76356789 91.51687062 736.46875 93.2890625 C741.37687791 94.66757991 746.19528836 96.29936323 751 98 C751.09152344 97.35289063 751.18304687 96.70578125 751.27734375 96.0390625 C752.43996329 91.14977601 754.57365002 86.66619057 756.56054688 82.0625 C756.87185547 81.32773438 757.18316406 80.59296875 757.50390625 79.8359375 C757.79080322 79.17126465 758.0777002 78.5065918 758.37329102 77.82177734 C759.16264967 75.84828793 759.16264967 75.84828793 759 73 C757.44447419 72.35783904 755.87988576 71.73764436 754.3125 71.125 C753.44238281 70.77695313 752.57226562 70.42890625 751.67578125 70.0703125 C734.78132782 65.15099237 711.27366012 63.30607671 695 71 C694.18144531 71.350625 693.36289062 71.70125 692.51953125 72.0625 C685.78547547 75.31108972 680.27576016 80.64862797 676.80078125 87.29296875 C674.78254697 94.11558513 674.60840275 104.09555757 677.5625 110.625 C682.19384322 118.01231859 689.11914818 121.75205493 697.4375 123.87890625 C705.23260826 125.37467812 712.96892633 126.59077451 720.85546875 127.47265625 C723.67767397 127.94594532 725.56774937 128.54547791 728 130 C727.67 131.65 727.34 133.3 727 135 C714.22677058 139.25774314 697.76638508 135.4892081 686.0625 129.75 C685.051875 129.1725 684.04125 128.595 683 128 C682.86271484 128.97259766 682.86271484 128.97259766 682.72265625 129.96484375 C681.5652376 134.82600209 679.43353815 139.27999378 677.43945312 143.84960938 C676.97249023 144.94692383 676.97249023 144.94692383 676.49609375 146.06640625 C676.20919678 146.72584229 675.9222998 147.38527832 675.62670898 148.06469727 C674.79461393 150.29519933 674.79461393 150.29519933 675 154 C690.88799507 160.58536617 705.96621207 162.32292475 723 163 C719.57260308 165.28493128 716.20681089 166.23529768 712.29212952 167.33233643 C711.49789391 167.55945242 710.70365829 167.78656841 709.88535494 168.0205667 C707.2128197 168.78340081 704.53819415 169.5386288 701.86352539 170.29394531 C699.94688045 170.83935868 698.03036962 171.38524349 696.11398315 171.93156433 C691.96693765 173.11268436 687.81894993 174.29041645 683.6702137 175.4655838 C677.02323086 177.34841967 670.37837093 179.23867255 663.73374939 181.12982178 C653.11930201 184.14987025 642.50341159 187.16481176 631.88692707 190.17769027 C610.9322243 196.12463789 589.98040695 202.08174388 569.02889705 208.03992891 C565.58439212 209.01939674 562.1398204 209.99862943 558.69523811 210.97782516 C527.91426205 219.72876735 497.15553743 228.5519872 466.42372203 237.47392881 C432.46018792 247.3335497 398.45566057 257.04813299 364.4428001 266.73604584 C357.61601655 268.68089362 350.79045833 270.63001758 343.96508974 272.57982433 C337.24928503 274.49811289 330.53262938 276.41340087 323.81529623 278.3263303 C319.86259916 279.45202216 315.91025826 280.57892644 311.95881462 281.70901108 C308.31206985 282.75186445 304.66428797 283.79100368 301.01564407 284.82719231 C299.68286025 285.20639018 298.35046134 285.58694393 297.01847649 285.96893883 C295.20732198 286.48813134 293.39464719 287.00201188 291.58189392 287.51559448 C290.56984359 287.80411726 289.55779325 288.09264004 288.51507473 288.38990593 C286 289 286 289 283 289 C282.85884766 290.04027344 282.85884766 290.04027344 282.71484375 291.1015625 C281.84799036 294.61634511 280.37765044 297.24140024 278.5625 300.375 C278.21775635 300.97425293 277.8730127 301.57350586 277.51782227 302.19091797 C275.53336302 305.58394384 273.43825054 308.87048422 271.2109375 312.109375 C270.75001709 312.78049316 270.28909668 313.45161133 269.81420898 314.14306641 C268.90938597 315.44566496 267.99250249 316.73998325 267.06274414 318.02490234 C264.68525624 321.31109593 264.68525624 321.31109593 264.0234375 325.19921875 C267.55185016 331.7056117 274.05683994 335.93978339 280.125 339.875 C280.71047607 340.25615967 281.29595215 340.63731934 281.89916992 341.0300293 C288.22514703 344.99701649 293.58906696 346.34732581 301 346.3125 C302.02867187 346.33666992 302.02867187 346.33666992 303.078125 346.36132812 C308.61769467 346.36661397 312.61379442 345.14228234 316.7578125 341.421875 C319.98826398 337.47149433 322.60620112 333.51139019 325 329 C326.65 329.33 328.3 329.66 330 330 C331.90390036 334.93824156 329.47052675 338.90568008 327.5859375 343.5390625 C323.80178337 351.79709344 319.40989795 358.67781139 312 364 C310.90171875 364.94746094 310.90171875 364.94746094 309.78125 365.9140625 C300.37438396 373.20148033 290.10705651 371.89738487 278.89453125 370.65625 C267.48032628 368.30779028 255.64109357 360.06979131 248.67578125 350.91015625 C246.70462653 348.66331556 244.61244131 347.41970831 242 346 C241.278125 346.94875 240.55625 347.8975 239.8125 348.875 C232.6105835 357.25169721 223.07524705 363.63346309 213 368 C211.2365625 368.8353125 211.2365625 368.8353125 209.4375 369.6875 C192.8640302 376.01555211 171.56784127 374.05940915 155.1875 367.625 C144.44149813 362.55049912 138.74267375 354.05548966 134.5625 343.125 C133.2936734 339.5680384 132.93693387 336.75968133 133 333 C132.33278018 333.1906881 131.66556036 333.38137619 130.97812176 333.57784271 C114.75528747 338.21395423 98.53121687 342.8457107 82.30575085 347.47260284 C74.45932344 349.71022252 66.61332423 351.94932296 58.76831055 354.19189453 C51.93189764 356.14614396 45.09470325 358.09763047 38.25654966 360.04578066 C34.63466858 361.07773843 31.01319839 362.11109075 27.39266014 363.14775085 C23.35437916 364.30396636 19.31436622 365.45401076 15.27416992 366.60351562 C14.06935974 366.94949295 12.86454956 367.29547028 11.62322998 367.65193176 C10.52526596 367.96325546 9.42730194 368.27457916 8.29606628 368.59533691 C7.34016696 368.86818764 6.38426764 369.14103836 5.39940166 369.42215729 C3 370 3 370 0 370 C0 247.9 0 125.8 0 0 Z " fill="#000000" transform="translate(0,0)"/>
<path d="M0 0 C6.68520904 5.43656669 10.7450036 11.33363205 11.73828125 19.98046875 C12.42581313 34.14768977 7.70727593 44.23826801 -1.21484375 55 C-8.62798027 63.01217785 -18.74807346 69.79337107 -28.69921875 74.171875 C-24.37700353 83.57311356 -19.27573586 92.43124978 -13.94921875 101.296875 C-13.28720459 102.3995874 -12.62519043 103.5022998 -11.94311523 104.63842773 C-8.06312024 111.06824246 -8.06312024 111.06824246 -3.69921875 117.171875 C-1.33717463 116.7363571 1.01396982 116.27400102 3.36328125 115.7734375 C5.3102548 115.37472217 7.27035529 115.03520632 9.23828125 114.7578125 C13.41252231 113.99782839 16.32299459 113.42838705 19 109.98828125 C20.40220637 107.08701942 21.39385992 104.2638262 22.30078125 101.171875 C22.61660156 100.1303125 22.93242187 99.08875 23.2578125 98.015625 C25.51508059 89.52252498 27.8762071 78.23870272 23.30078125 70.171875 C21.15479623 68.93552842 21.15479623 68.93552842 18.67578125 68.359375 C17.85851562 68.12605469 17.04125 67.89273438 16.19921875 67.65234375 C15.57273437 67.49378906 14.94625 67.33523437 14.30078125 67.171875 C14.30078125 65.191875 14.30078125 63.211875 14.30078125 61.171875 C33.11078125 61.171875 51.92078125 61.171875 71.30078125 61.171875 C71.30078125 63.151875 71.30078125 65.131875 71.30078125 67.171875 C70.50414062 67.34203125 69.7075 67.5121875 68.88671875 67.6875 C58.51125685 70.06047669 52.80103566 73.83457299 46.30078125 82.171875 C44.33607837 85.30999187 42.64642166 88.55092791 40.98828125 91.859375 C40.55966797 92.68759766 40.13105469 93.51582031 39.68945312 94.36914062 C37.07657154 99.46038727 34.70486881 104.21774901 33.5390625 109.85546875 C32.2458515 115.22349063 29.38341917 119.5888514 26.48828125 124.234375 C25.70614258 125.52311523 25.70614258 125.52311523 24.90820312 126.83789062 C22.53670037 130.7134176 20.12599118 134.44378768 17.3515625 138.04296875 C15.02360945 140.8471088 15.02360945 140.8471088 15.58789062 143.25341797 C18.07404248 149.94389102 25.67407831 154.31688161 31.42578125 158.046875 C32.01125732 158.42803467 32.5967334 158.80919434 33.19995117 159.2019043 C39.52592828 163.16889149 44.88984821 164.51920081 52.30078125 164.484375 C52.9865625 164.50048828 53.67234375 164.51660156 54.37890625 164.53320312 C59.91847592 164.53848897 63.91457567 163.31415734 68.05859375 159.59375 C71.28904523 155.64336933 73.90698237 151.68326519 76.30078125 147.171875 C77.95078125 147.501875 79.60078125 147.831875 81.30078125 148.171875 C83.20468161 153.11011656 80.771308 157.07755508 78.88671875 161.7109375 C75.10256462 169.96896844 70.7106792 176.84968639 63.30078125 182.171875 C62.56859375 182.80351562 61.83640625 183.43515625 61.08203125 184.0859375 C51.67516521 191.37335533 41.40783776 190.06925987 30.1953125 188.828125 C18.78110753 186.47966528 6.94187482 178.24166631 -0.0234375 169.08203125 C-1.99459222 166.83519056 -4.08677744 165.59158331 -6.69921875 164.171875 C-7.42109375 165.120625 -8.14296875 166.069375 -8.88671875 167.046875 C-16.08863525 175.42357221 -25.6239717 181.80533809 -35.69921875 186.171875 C-36.87484375 186.72875 -38.05046875 187.285625 -39.26171875 187.859375 C-55.83518855 194.18742711 -77.13137748 192.23128415 -93.51171875 185.796875 C-104.2202337 180.74007628 -109.96093658 172.28341786 -114.07421875 161.359375 C-115.31448526 157.65977659 -116.27821862 154.06612621 -116.69921875 150.171875 C-116.03921875 150.171875 -115.37921875 150.171875 -114.69921875 150.171875 C-114.745625 149.22828125 -114.79203125 148.2846875 -114.83984375 147.3125 C-115.31182278 130.52353182 -109.67719329 117.91494163 -98.15625 105.66796875 C-97.34542969 104.84425781 -96.53460938 104.02054687 -95.69921875 103.171875 C-94.89871094 102.35847656 -94.09820312 101.54507813 -93.2734375 100.70703125 C-83.66317862 91.47593281 -72.26318903 84.6803923 -60.69921875 78.171875 C-61.51470128 72.97694922 -63.5060909 68.26082377 -65.43945312 63.40625 C-68.60808282 55.22914112 -70.07423336 47.50696021 -70.01171875 38.734375 C-70.00325928 37.48442749 -70.00325928 37.48442749 -69.99462891 36.20922852 C-69.74458076 23.54218536 -65.18891633 13.73885771 -56.57421875 4.421875 C-40.75126987 -10.65395319 -17.93810066 -12.14910435 0 0 Z " fill="#030303" transform="translate(248.69921875,181.828125)"/>
<path d="M0 0 C18.4078125 -0.0928125 18.4078125 -0.0928125 37.1875 -0.1875 C41.03688232 -0.21481201 44.88626465 -0.24212402 48.85229492 -0.27026367 C53.61779785 -0.28381348 53.61779785 -0.28381348 55.86128235 -0.28633118 C57.40073767 -0.29088438 58.94018351 -0.30132185 60.47956848 -0.31672668 C76.71966816 -0.47086657 93.70249286 1.16654973 106 13 C111.73552521 19.29807139 112.81248781 25.57675552 112.640625 33.80737305 C112.13868057 42.3299712 109.0853661 47.30985916 102.8125 53 C100.89456552 54.58422121 99.22326692 55.88836654 97 57 C97.64066406 57.35191406 98.28132813 57.70382813 98.94140625 58.06640625 C106.86673739 62.59010495 113.8825107 67.4500489 117.3359375 76.21875 C119.45634897 85.09953215 119.37175289 94.9112522 114.61328125 102.88671875 C105.97673663 114.19996484 93.53928268 117.84776138 80 120 C73.62827792 120.61189249 67.23260027 120.47251818 60.83984375 120.390625 C59.2686012 120.38472018 57.69735068 120.38065412 56.12609863 120.37841797 C50.39644324 120.35772067 44.66695791 120.30187834 38.9375 120.25 C19.6634375 120.12625 19.6634375 120.12625 0 120 C0 80.4 0 40.8 0 0 Z " fill="#FDFDFD" transform="translate(42,41)"/>
<path d="M0 0 C6.68520904 5.43656669 10.7450036 11.33363205 11.73828125 19.98046875 C12.42581313 34.14768977 7.70727593 44.23826801 -1.21484375 55 C-8.62798027 63.01217785 -18.74807346 69.79337107 -28.69921875 74.171875 C-22.84945444 86.89568141 -15.49083531 98.71400412 -8.19213867 110.64501953 C-6.9267395 112.78678265 -5.77409155 114.93006321 -4.69921875 117.171875 C-9.95507862 121.0858132 -15.16676381 123.18188371 -21.38671875 125.046875 C-22.1233374 125.2739917 -22.85995605 125.5011084 -23.61889648 125.73510742 C-30.81136558 127.79300935 -30.81136558 127.79300935 -34.69921875 126.171875 C-35.9296875 124.484375 -35.9296875 124.484375 -36.88671875 122.171875 C-39.17550388 117.11474977 -41.84655287 112.4235342 -44.69921875 107.671875 C-48.30507158 101.62667104 -51.7188325 95.55617607 -54.69921875 89.171875 C-64.84501754 91.17823521 -73.90697615 100.74009002 -79.51171875 108.984375 C-85.66407482 119.87917221 -86.21852145 129.99711179 -85.69921875 142.171875 C-104.63800863 150.40471665 -104.63800863 150.40471665 -114.69921875 150.171875 C-115.51584968 133.56704616 -111.60638926 120.89112227 -100.51171875 108.171875 C-98.92670843 106.48698012 -97.32198353 104.8204389 -95.69921875 103.171875 C-94.89871094 102.35847656 -94.09820312 101.54507813 -93.2734375 100.70703125 C-83.66317862 91.47593281 -72.26318903 84.6803923 -60.69921875 78.171875 C-61.51470128 72.97694922 -63.5060909 68.26082377 -65.43945312 63.40625 C-68.60808282 55.22914112 -70.07423336 47.50696021 -70.01171875 38.734375 C-70.00325928 37.48442749 -70.00325928 37.48442749 -69.99462891 36.20922852 C-69.74458076 23.54218536 -65.18891633 13.73885771 -56.57421875 4.421875 C-40.75126987 -10.65395319 -17.93810066 -12.14910435 0 0 Z " fill="#FAFAFA" transform="translate(248.69921875,181.828125)"/>
<path d="M0 0 C1.32221558 0.01244751 1.32221558 0.01244751 2.67114258 0.02514648 C13.6172809 0.30861021 22.40220064 3.51561644 30.1875 11.4375 C38.59367338 22.21653195 39.6390952 34.03059123 39.48046875 47.29296875 C39.47485858 48.68971801 39.47059522 50.08647326 39.46760559 51.48323059 C39.45626832 55.12139809 39.42690038 58.75919397 39.39349365 62.3972168 C39.36254973 66.12478522 39.34888325 69.85241674 39.33398438 73.58007812 C39.30361705 80.86621131 39.24487142 88.1513302 39.1875 95.4375 C26.3175 95.4375 13.4475 95.4375 0.1875 95.4375 C0.15011719 91.59738281 0.11273438 87.75726563 0.07421875 83.80078125 C0.02800505 80.08075266 -0.02322936 76.36082474 -0.07495117 72.64086914 C-0.10820111 70.05597046 -0.13623277 67.47099916 -0.15893555 64.88598633 C-0.19247927 61.16976991 -0.24479728 57.45421899 -0.30078125 53.73828125 C-0.30717117 52.58290359 -0.3135611 51.42752594 -0.32014465 50.23713684 C-0.33993881 49.15639389 -0.35973297 48.07565094 -0.38012695 46.9621582 C-0.39123001 46.01395706 -0.40233307 45.06575592 -0.41377258 44.08882141 C-0.88378204 40.96351305 -2.11196756 39.06939426 -3.8125 36.4375 C-3.8125 35.7775 -3.8125 35.1175 -3.8125 34.4375 C-9.17735805 32.64921398 -14.07335352 32.61714789 -19.125 35 C-22.9684057 38.48587959 -24.52841428 41.95009045 -25.10897827 47.03341675 C-25.25448202 50.11748853 -25.30594201 53.18989966 -25.32421875 56.27734375 C-25.34216995 57.39943741 -25.36012115 58.52153107 -25.37861633 59.67762756 C-25.4325749 63.24338075 -25.46656951 66.80900115 -25.5 70.375 C-25.53318573 72.80014862 -25.56767655 75.22527976 -25.60351562 77.65039062 C-25.69073743 83.57944469 -25.75093239 89.50790255 -25.8125 95.4375 C-38.6825 95.4375 -51.5525 95.4375 -64.8125 95.4375 C-64.8125 64.4175 -64.8125 33.3975 -64.8125 1.4375 C-52.6025 1.4375 -40.3925 1.4375 -27.8125 1.4375 C-27.3175 5.3975 -27.3175 5.3975 -26.8125 9.4375 C-26.255625 9.03917969 -25.69875 8.64085938 -25.125 8.23046875 C-24.361875 7.70066406 -23.59875 7.17085938 -22.8125 6.625 C-22.07 6.10292969 -21.3275 5.58085938 -20.5625 5.04296875 C-13.79049249 1.08942459 -7.80623083 -0.0946978 0 0 Z " fill="#FCFCFC" transform="translate(509.8125,65.5625)"/>
<path d="M0 0 C13.2 0 26.4 0 40 0 C40 31.02 40 62.04 40 94 C27.79 94 15.58 94 3 94 C2.505 90.04 2.505 90.04 2 86 C1.55011719 86.38671875 1.10023438 86.7734375 0.63671875 87.171875 C-9.29868799 95.21577144 -19.33394019 97.29191146 -32 96 C-42.30261147 93.94434317 -50.35183875 89.16567562 -56.375 80.5 C-61.1226342 72.75385998 -63.13218965 65.7729286 -63.11352539 56.62744141 C-63.11344986 55.38660797 -63.11337433 54.14577454 -63.11329651 52.86734009 C-63.10819113 51.52874714 -63.10297515 50.19015461 -63.09765625 48.8515625 C-63.09578906 47.47008312 -63.09436658 46.08860308 -63.09336853 44.7071228 C-63.08956702 41.08711897 -63.07975716 37.46715583 -63.06866455 33.84716797 C-63.05839935 30.1468156 -63.05380505 26.44645639 -63.04882812 22.74609375 C-63.03866445 15.49736 -63.01908679 8.24873772 -63 1 C-50.46 1 -37.92 1 -25 1 C-24.94392578 6.14916016 -24.94392578 6.14916016 -24.88671875 11.40234375 C-24.84043036 14.74851643 -24.78922321 18.09458049 -24.73754883 21.44067383 C-24.70441454 23.75571014 -24.67634728 26.070825 -24.65356445 28.38598633 C-24.6198069 31.72511078 -24.56747969 35.06352281 -24.51171875 38.40234375 C-24.50532883 39.42770737 -24.4989389 40.45307098 -24.49235535 41.50950623 C-24.35337254 48.39284962 -23.82968204 55.54149973 -19.3125 61.0625 C-14.75797383 62.90892953 -10.63737969 62.65495188 -6.1875 60.875 C-2.75826161 57.93565281 -1.22473513 54.94767383 -0.7015686 50.41363525 C-0.55675208 47.2132857 -0.50642347 44.023894 -0.48828125 40.8203125 C-0.47033005 39.6524118 -0.45237885 38.48451111 -0.43388367 37.28121948 C-0.37983772 33.56251603 -0.34590222 29.84394054 -0.3125 26.125 C-0.279322 23.59894055 -0.2448319 21.07289797 -0.20898438 18.546875 C-0.12165214 12.36456547 -0.06153131 6.18283532 0 0 Z " fill="#FBFBFB" transform="translate(236,67)"/>
<path d="M0 0 C12.80858871 8.20486274 19.03238984 18.99585182 22.4453125 33.56640625 C22.4453125 39.17640625 22.4453125 44.78640625 22.4453125 50.56640625 C0.9953125 50.89640625 -20.4546875 51.22640625 -42.5546875 51.56640625 C-36.60622683 59.04255504 -36.60622683 59.04255504 -28.5390625 60.8671875 C-19.09352695 60.90141045 -12.59347721 59.44273212 -4.5546875 54.56640625 C-1.3470877 57.62939932 1.83261787 60.71986117 5.0078125 63.81640625 C5.92240234 64.68910156 6.83699219 65.56179687 7.77929688 66.4609375 C8.63974609 67.30527344 9.50019531 68.14960938 10.38671875 69.01953125 C11.18795166 69.79458008 11.98918457 70.56962891 12.81469727 71.36816406 C14.4453125 73.56640625 14.4453125 73.56640625 14.296875 75.75292969 C11.60972889 81.47544152 3.16193091 85.43333968 -2.5546875 87.56640625 C-20.4682829 93.09470788 -40.56207366 92.35996139 -57.4296875 83.87890625 C-66.77066296 78.27432098 -73.78202959 71.38018408 -78.5546875 61.56640625 C-78.9671875 60.75945312 -79.3796875 59.9525 -79.8046875 59.12109375 C-84.24804087 49.0309788 -84.1161463 36.54722042 -80.9921875 26.06640625 C-76.02396898 13.4184415 -66.70113219 3.50426703 -54.5546875 -2.43359375 C-51.26325748 -3.64722003 -47.96098543 -4.60293513 -44.5546875 -5.43359375 C-43.94286621 -5.60560303 -43.33104492 -5.7776123 -42.70068359 -5.95483398 C-28.85155157 -9.04449814 -12.38144868 -6.66846512 0 0 Z " fill="#FCFCFC" transform="translate(644.5546875,72.43359375)"/>
<path d="M0 0 C1.92875977 -0.02416992 1.92875977 -0.02416992 3.89648438 -0.04882812 C16.2243356 -0.05505746 27.06444813 2.31054466 38.3125 7.3125 C36.50329981 13.04163393 34.50048284 18.69381488 32.375 24.3125 C32.01414307 25.3190564 32.01414307 25.3190564 31.64599609 26.34594727 C29.84289013 31.01164845 29.84289013 31.01164845 27.453125 32.3671875 C24.64591151 32.29547037 22.59656909 31.50257077 20 30.4375 C10.11303548 26.6498914 -0.60199125 25.72654133 -10.6875 29.3125 C-10.6875 30.3025 -10.6875 31.2925 -10.6875 32.3125 C-4.02416905 33.97279841 2.55534256 35.4060959 9.375 36.25 C20.1277161 37.73148533 29.51429935 40.41516968 37.3125 48.3125 C42.30060355 54.93559304 43.37011048 62.22126641 42.3125 70.3125 C39.07355355 79.92177286 34.02460186 86.34275826 25.07421875 90.99609375 C2.53725644 101.26703723 -22.25733897 98.56515772 -45.125 90.69140625 C-47.6875 89.3125 -47.6875 89.3125 -48.47827148 87.56518555 C-48.76308917 84.49865953 -47.8577628 82.69086178 -46.59765625 79.890625 C-46.14326172 78.86582031 -45.68886719 77.84101563 -45.22070312 76.78515625 C-44.73537109 75.72167969 -44.25003906 74.65820312 -43.75 73.5625 C-43.26853516 72.48355469 -42.78707031 71.40460938 -42.29101562 70.29296875 C-41.10004609 67.62802703 -39.89858789 64.96834451 -38.6875 62.3125 C-37.92614746 62.6211499 -37.16479492 62.9297998 -36.38037109 63.24780273 C-33.39156426 64.42950596 -30.38021877 65.41679331 -27.3125 66.375 C-25.69214844 66.88740234 -25.69214844 66.88740234 -24.0390625 67.41015625 C-17.24212919 69.24009983 -10.73270243 69.44403052 -3.75 69.375 C-2.87537109 69.37048828 -2.00074219 69.36597656 -1.09960938 69.36132812 C1.03779047 69.34964834 3.17515463 69.33171689 5.3125 69.3125 C5.6425 67.6625 5.9725 66.0125 6.3125 64.3125 C0.54527702 63.03692598 -5.19876208 62.09362494 -11.0625 61.375 C-22.37528086 59.88257876 -34.07151881 58.22425446 -42.34765625 49.578125 C-47.88687281 42.27863262 -48.6758441 34.2391398 -47.6875 25.3125 C-45.11539702 16.41002706 -38.90107336 10.22705808 -30.94140625 5.77734375 C-20.50738409 0.81358563 -11.45731484 -0.02828967 0 0 Z " fill="#FBFBFB" transform="translate(335.6875,65.6875)"/>
<path d="M0 0 C1.30324219 -0.01836914 1.30324219 -0.01836914 2.6328125 -0.03710938 C13.8608915 -0.06239784 24.09421668 3.03400424 32.5 10.75 C43.25450656 22.3317763 44.9368382 36.69097311 44.56640625 51.80078125 C44.03161883 62.17655216 39.67322455 71.32195299 32.75 78.9375 C22.92305885 87.78174703 15.15056103 90.37154779 2.125 90.4375 C1.12984375 90.458125 0.1346875 90.47875 -0.890625 90.5 C-12.96238166 90.56303789 -21.72355669 87.30419155 -30.75 79.1875 C-35.90854085 73.34542579 -38.40443665 66.52490329 -40.75 59.1875 C-41.245 57.7025 -41.245 57.7025 -41.75 56.1875 C-42.47219666 39.66095313 -41.93602267 23.73080605 -30.125 10.8125 C-21.31218882 2.66320163 -11.57890753 0.00843944 0 0 Z " fill="#030303" transform="translate(966.75,268.8125)"/>
<path d="M0 0 C1.30324219 -0.01836914 1.30324219 -0.01836914 2.6328125 -0.03710938 C13.8608915 -0.06239784 24.09421668 3.03400424 32.5 10.75 C43.25450656 22.3317763 44.9368382 36.69097311 44.56640625 51.80078125 C44.03161883 62.17655216 39.67322455 71.32195299 32.75 78.9375 C22.92305885 87.78174703 15.15056103 90.37154779 2.125 90.4375 C1.12984375 90.458125 0.1346875 90.47875 -0.890625 90.5 C-12.96238166 90.56303789 -21.72355669 87.30419155 -30.75 79.1875 C-35.90854085 73.34542579 -38.40443665 66.52490329 -40.75 59.1875 C-41.245 57.7025 -41.245 57.7025 -41.75 56.1875 C-42.47219666 39.66095313 -41.93602267 23.73080605 -30.125 10.8125 C-21.31218882 2.66320163 -11.57890753 0.00843944 0 0 Z " fill="#030303" transform="translate(597.75,268.8125)"/>
<path d="M0 0 C2.56536648 1.88729604 4.66236971 3.92122386 6.7734375 6.3046875 C5.32393345 10.66116395 3.09596638 13.62226039 0.1484375 17.1171875 C-0.66882813 18.09300781 -1.48609375 19.06882812 -2.328125 20.07421875 C-2.95460938 20.81027344 -3.58109375 21.54632813 -4.2265625 22.3046875 C-6.96142432 21.73944466 -8.13386531 21.38614867 -10.2890625 19.4921875 C-19.44387909 12.67477089 -30.23270994 12.00292784 -41.2265625 13.3046875 C-45.09386021 14.75025671 -48.30579818 16.46315885 -50.2265625 20.3046875 C-50.75610667 24.72334297 -50.81368699 28.22437843 -48.6640625 32.1796875 C-42.83053732 37.26532484 -35.47250241 38.22848294 -28.1015625 39.6796875 C-14.65316829 42.50691276 -2.36776192 45.14154992 6.7734375 56.3046875 C12.10605458 64.71381443 13.0415364 73.54539838 11.7734375 83.3046875 C9.18127524 93.14432383 5.66298783 99.99065004 -2.9765625 105.4921875 C-17.43957534 113.71372159 -33.69665327 113.93434344 -49.65625 110.3359375 C-59.71831972 107.42960664 -68.30215711 102.23602834 -75.2265625 94.3046875 C-76.5 91.52734375 -76.5 91.52734375 -77.2265625 89.3046875 C-76.69546875 88.71300781 -76.164375 88.12132812 -75.6171875 87.51171875 C-72.04842187 83.51965062 -68.50646022 79.54122205 -65.2265625 75.3046875 C-63.5390625 75.4296875 -63.5390625 75.4296875 -61.2265625 76.3046875 C-60.11664847 77.71730535 -59.00741616 79.1304664 -57.90234375 80.546875 C-50.81937224 87.9765654 -41.87637872 91.29679521 -31.8515625 91.6796875 C-24.85126707 91.55871465 -19.20890619 90.28703119 -14.1640625 85.2421875 C-12.67469288 80.57549603 -12.46142717 76.14325761 -13.2265625 71.3046875 C-17.58843602 64.9601442 -24.73571715 63.23113265 -31.93823242 61.87353516 C-32.73463135 61.72706543 -33.53103027 61.5805957 -34.3515625 61.4296875 C-48.71873931 58.57042342 -61.04582122 54.56273914 -70 42.33203125 C-74.73439239 34.50671389 -74.1422795 25.17350404 -73.2265625 16.3046875 C-71.21362651 8.33111583 -65.8200829 2.95134462 -59.2265625 -1.6953125 C-41.99110797 -11.52742238 -16.82428006 -10.37819575 0 0 Z " fill="#030303" transform="translate(530.2265625,247.6953125)"/>
<path d="M0 0 C7.59 0 15.18 0 23 0 C23.01458252 1.84674316 23.02916504 3.69348633 23.04418945 5.59619141 C23.095923 11.71113211 23.1612309 17.82581119 23.23571491 23.94051552 C23.28036274 27.64635653 23.31963077 31.35208903 23.34643555 35.05810547 C23.37252489 38.63744733 23.41296603 42.21637036 23.46318626 45.79545212 C23.47981715 47.15807239 23.49135493 48.52076505 23.49761391 49.88347244 C23.50729531 51.79824651 23.53708538 53.71288645 23.56762695 55.62744141 C23.57873001 56.71554108 23.58983307 57.80364075 23.60127258 58.92471313 C24.06332084 62.48837813 25.17750993 64.91946348 27 68 C31.36140715 71.17026654 36.86651644 70.5538198 42 70 C46.02687547 68.94486513 48.94064605 67.5305201 51.34375 64.05859375 C53.80741323 59.28084683 55.11893173 55.00383346 55.20532227 49.6105957 C55.22526749 48.50968094 55.24521271 47.40876617 55.26576233 46.27449036 C55.28247482 45.08691635 55.29918732 43.89934235 55.31640625 42.67578125 C55.33718735 41.45924362 55.35796844 40.24270599 55.37937927 38.98930359 C55.44484717 35.09709404 55.50374715 31.20481615 55.5625 27.3125 C55.60568782 24.67642518 55.6493022 22.04035731 55.69335938 19.40429688 C55.80052582 12.93626824 55.90180126 6.46817075 56 0 C63.26 0 70.52 0 78 0 C78 29.04 78 58.08 78 88 C71.07 88 64.14 88 57 88 C57 83.71 57 79.42 57 75 C56.34 75.680625 55.68 76.36125 55 77.0625 C54.00338791 78.04511473 53.0029363 79.02384113 52 80 C51.40703125 80.58910156 50.8140625 81.17820312 50.203125 81.78515625 C43.92152752 87.70242107 38.19285025 90.07111443 29.5625 90.375 C21.69505969 90.13258587 14.05676927 88.21163867 8 83 C-0.31267033 73.19104901 -0.43677375 60.27015958 -0.29296875 48.046875 C-0.28735681 46.65155499 -0.28309429 45.25622897 -0.28010559 43.86090088 C-0.26878222 40.23096704 -0.2394271 36.60140716 -0.20599365 32.97161865 C-0.1750189 29.25066178 -0.1615424 25.52964305 -0.14648438 21.80859375 C-0.11454173 14.53887421 -0.06188056 7.26953765 0 0 Z " fill="#050505" transform="translate(711,270)"/>
<path d="M0 0 C0.7943042 0.00612305 1.5886084 0.01224609 2.40698242 0.01855469 C11.02890516 0.24868506 16.63150615 2.80306908 23.125 8.4375 C29.5476334 17.25432131 29.93967089 26.2287246 29.7109375 36.703125 C29.69971741 38.23295408 29.69119056 39.76280503 29.68521118 41.29266357 C29.66253293 45.2781551 29.60379962 49.26229013 29.5369873 53.24725342 C29.47510409 57.33001363 29.448099 61.41299761 29.41796875 65.49609375 C29.35402809 73.47724797 29.24868369 81.45704788 29.125 89.4375 C21.865 89.4375 14.605 89.4375 7.125 89.4375 C7.095271 86.70496948 7.095271 86.70496948 7.06494141 83.91723633 C6.9970982 77.89014535 6.92031739 71.86322344 6.83747292 65.83632374 C6.78758312 62.18315726 6.74125271 58.53001866 6.703125 54.87670898 C6.66617936 51.34932174 6.61979479 47.82217205 6.56693649 44.29498863 C6.53945709 42.29820403 6.52168716 40.30129345 6.50405884 38.30439758 C6.48418915 37.08350937 6.46431946 35.86262115 6.44384766 34.60473633 C6.43052399 33.53218094 6.41720032 32.45962555 6.4034729 31.35456848 C5.9738518 26.85418739 4.97518182 24.24408275 1.6875 21.125 C-3.28119725 18.77140657 -7.46962865 18.55577276 -12.875 19.4375 C-18.55011421 21.65655464 -21.95978746 25.07350892 -24.875 30.4375 C-25.89906112 33.50968336 -26.0296536 35.69762175 -26.08032227 38.91870117 C-26.10026749 40.03963669 -26.12021271 41.1605722 -26.14076233 42.31547546 C-26.15747482 43.52492325 -26.17418732 44.73437103 -26.19140625 45.98046875 C-26.21218735 47.21920242 -26.23296844 48.4579361 -26.25437927 49.73420715 C-26.30871797 53.02375256 -26.35895951 56.31332726 -26.40722656 59.60296631 C-26.45750646 62.96127814 -26.51315861 66.31950046 -26.56835938 69.67773438 C-26.67553051 76.2642538 -26.77680476 82.85084089 -26.875 89.4375 C-34.135 89.4375 -41.395 89.4375 -48.875 89.4375 C-48.875 60.3975 -48.875 31.3575 -48.875 1.4375 C-41.945 1.4375 -35.015 1.4375 -27.875 1.4375 C-27.875 5.7275 -27.875 10.0175 -27.875 14.4375 C-27.194375 13.73625 -26.51375 13.035 -25.8125 12.3125 C-23.74895336 10.26639178 -21.65697323 8.26010563 -19.5 6.3125 C-18.97664063 5.83554687 -18.45328125 5.35859375 -17.9140625 4.8671875 C-12.10028694 0.79086211 -6.93541313 -0.09068768 0 0 Z " fill="#030303" transform="translate(1080.875,268.5625)"/>
<path d="M0 0 C0.89976563 -0.020625 1.79953125 -0.04125 2.7265625 -0.0625 C11.05997413 -0.11039317 18.91140798 1.36162833 25.875 6.1875 C26.596875 6.67089844 27.31875 7.15429688 28.0625 7.65234375 C29.875 9.25 29.875 9.25 31.875 13.25 C28.245 17.21 24.615 21.17 20.875 25.25 C18.86093205 24.24296602 16.84692969 23.23572239 14.83984375 22.21484375 C14.17082031 21.87582031 13.50179688 21.53679687 12.8125 21.1875 C12.14089844 20.84589844 11.46929688 20.50429688 10.77734375 20.15234375 C7.08146325 18.39926696 4.04961907 18.0605928 0 18 C-1.02867188 17.97421875 -2.05734375 17.9484375 -3.1171875 17.921875 C-6.57919438 18.29954848 -8.41889502 19.06939998 -11.125 21.25 C-11.87101562 23.17529949 -11.87101562 23.17529949 -11.6875 25.25 C-11.68878906 25.930625 -11.69007812 26.61125 -11.69140625 27.3125 C-10.89126996 30.04951794 -9.4909745 30.72190513 -7.125 32.25 C-4.95893732 32.98685485 -4.95893732 32.98685485 -2.6328125 33.390625 C-1.76922119 33.57012695 -0.90562988 33.74962891 -0.01586914 33.93457031 C0.89686768 34.12116211 1.80960449 34.30775391 2.75 34.5 C25.16276612 39.52045961 25.16276612 39.52045961 31.6875 49.0625 C32.45631036 50.43689636 33.19512899 51.82950356 33.875 53.25 C34.205 53.91 34.535 54.57 34.875 55.25 C35.69010326 65.31184846 35.11118925 73.07243536 28.625 81 C19.17466008 88.73209629 11.18718472 90.60999728 -0.875 90.625 C-1.8959375 90.64949219 -2.916875 90.67398438 -3.96875 90.69921875 C-14.95514956 90.74104514 -24.63557503 87.32452081 -33.125 80.25 C-34.9375 78.3125 -34.9375 78.3125 -36.125 76.25 C-35.94812792 72.71255833 -34.26833945 71.08769906 -31.75 68.75 C-29.27234271 66.38426973 -27.06047059 64.09628028 -25.125 61.25 C-22.09496694 61.58667034 -21.13457157 62.23986539 -19 64.5 C-13.65558371 69.61205037 -7.90556449 72.54368583 -0.4375 72.6875 C3.94532879 72.4820549 7.74917209 71.71696103 11.875 70.25 C12.0107675 68.66906283 12.10734745 67.08473048 12.1875 65.5 C12.27451172 64.17742187 12.27451172 64.17742187 12.36328125 62.828125 C12.07180591 60.1085779 12.07180591 60.1085779 9.98828125 58.0703125 C5.73844785 55.58546637 1.54303117 54.82660726 -3.25 53.875 C-12.52939547 51.8425449 -21.41594202 49.57163487 -28.125 42.375 C-32.64962007 35.30528114 -34.34378446 28.67601952 -33.125 20.25 C-30.30743513 11.18422415 -24.886243 6.90530859 -16.875 2.4375 C-11.24210077 0.00511169 -6.06199876 0.03386591 0 0 Z " fill="#030303" transform="translate(1162.125,268.75)"/>
<path d="M0 0 C12.87 0 25.74 0 39 0 C39 31.02 39 62.04 39 94 C26.13 94 13.26 94 0 94 C0 62.98 0 31.96 0 0 Z " fill="#FCFCFC" transform="translate(389,67)"/>
<path d="M0 0 C0.34611328 1.23363281 0.34611328 1.23363281 0.69921875 2.4921875 C5.35556575 18.64591194 5.35556575 18.64591194 16.4921875 30.58984375 C26.35418967 35.93939135 36.93040799 37.8930408 48 39 C47.67 39.66 47.34 40.32 47 41 C-12.4 41 -71.8 41 -133 41 C-133 39.68 -133 38.36 -133 37 C-116.25142317 32.16935374 -99.50111505 27.3447651 -82.74871445 22.52739716 C-74.97047842 20.29051235 -67.19282398 18.0516427 -59.41650391 15.80810547 C-52.63934298 13.85283995 -45.86112442 11.90129286 -39.0816052 9.95421934 C-35.49134132 8.92295697 -31.90163779 7.88982974 -28.31319427 6.85224915 C-24.30907374 5.69455296 -20.3026148 4.54516434 -16.29589844 3.39648438 C-15.10403427 3.05050705 -13.9121701 2.70452972 -12.68418884 2.34806824 C-11.59326431 2.03674454 -10.50233978 1.72542084 -9.37835693 1.40466309 C-8.43075375 1.13181236 -7.48315056 0.85896164 -6.50683212 0.57784271 C-4 0 -4 0 0 0 Z " fill="#FDFDFD" transform="translate(133,333)"/>
<path d="M0 0 C0 6.6 0 13.2 0 20 C8.25 20 16.5 20 25 20 C25 25.94 25 31.88 25 38 C16.75 38 8.5 38 0 38 C0.05105194 44.46062274 0.11398971 50.91883682 0.20751953 57.37866211 C0.2357239 59.57552306 0.25694107 61.77248539 0.27099609 63.96948242 C0.29243249 67.1299223 0.3390878 70.28914396 0.390625 73.44921875 C0.39185364 74.42960617 0.39308228 75.40999359 0.39434814 76.42008972 C0.48755814 80.77165901 0.59911443 83.33248328 2.87646484 87.12451172 C6.24452156 90.09915092 8.99852606 89.49830809 13.29296875 89.30859375 C16.40073464 88.95431741 19.12777246 88.24204434 22 87 C24.67149708 92.60236281 26.67594074 97.93139507 28 104 C26.44148245 104.82011312 24.87798284 105.63076213 23.3125 106.4375 C22.44238281 106.88996094 21.57226562 107.34242188 20.67578125 107.80859375 C13.07436219 111.1931672 3.21278177 111.18696119 -4.75 109 C-11.18886873 106.49335553 -16.31669888 101.630158 -20 95.875 C-22.31217397 89.22749984 -22.13213072 82.64758612 -22.09765625 75.6953125 C-22.0962413 74.61619598 -22.09482635 73.53707947 -22.09336853 72.42526245 C-22.08778844 68.99181298 -22.07523955 65.55842964 -22.0625 62.125 C-22.05748243 59.79166761 -22.05291997 57.4583342 -22.04882812 55.125 C-22.03782552 49.41664133 -22.02057456 43.70833187 -22 38 C-26.62 38 -31.24 38 -36 38 C-36 32.06 -36 26.12 -36 20 C-31.38 20 -26.76 20 -22 20 C-22 14.39 -22 8.78 -22 3 C-12.97029703 0.74257426 -12.97029703 0.74257426 -8.75 0.375 C-7.94046875 0.30023438 -7.1309375 0.22546875 -6.296875 0.1484375 C-4.20170424 0.01303531 -2.09954144 0 0 0 Z " fill="#050505" transform="translate(840,250)"/>
<path d="M0 0 C8.29023322 4.76911266 12.91910412 11.59201271 15.84375 20.60546875 C17.9535574 30.11216043 17.22455269 40.32195154 12.17578125 48.78125 C5.90249945 57.60665432 -1.33303737 62.07644304 -12.01171875 64.01953125 C-19.42019672 64.53251765 -25.44510644 61.63518632 -31.5 57.5625 C-38.27294619 51.46358698 -42.94975722 44.83570917 -43.5 35.5625 C-43.56445312 34.50417969 -43.62890625 33.44585937 -43.6953125 32.35546875 C-44.03200774 21.99647855 -42.45528082 14.84880716 -35.875 6.75 C-26.07053831 -3.39626861 -13.06183864 -5.85982235 0 0 Z " fill="#060606" transform="translate(943.5,170.4375)"/>
<path d="M0 0 C8.60936803 8.84851714 10.74324105 17.64140786 10.75195312 29.6237793 C10.51906211 39.29669578 7.50232521 46.52366031 0.5 53.3125 C-6.31352539 58.60041629 -13.44953297 61.05231106 -22.08203125 60.69921875 C-30.31344762 59.50608519 -38.40789467 54.62464764 -43.5 48.0625 C-49.46565478 38.78915543 -50.25630457 28.09062107 -48.75 17.3125 C-46.14251097 8.82429102 -41.23353524 1.55805531 -33.5390625 -2.99609375 C-22.056276 -8.36587579 -10.50227206 -6.44457603 0 0 Z " fill="#030303" transform="translate(1016.75,173.6875)"/>
<path d="M0 0 C7.26 0 14.52 0 22 0 C22.01981934 3.07417236 22.03963867 6.14834473 22.06005859 9.31567383 C22.12688079 19.45786026 22.20452137 29.59994291 22.28752708 39.74200916 C22.33753328 45.89284307 22.38386295 52.04365943 22.421875 58.19458008 C22.45867314 64.12741092 22.50501817 70.06009652 22.55806351 75.99280357 C22.57663658 78.25945177 22.59173369 80.52613114 22.60334396 82.7928257 C22.62015652 85.96075021 22.64917959 89.12833997 22.68115234 92.29614258 C22.68331253 93.23913208 22.68547272 94.18212158 22.68769836 95.15368652 C22.69886185 96.01605423 22.71002533 96.87842194 22.7215271 97.766922 C22.72705786 98.51633969 22.73258862 99.26575739 22.73828697 100.03788471 C22.8964455 102.32114375 22.8964455 102.32114375 25 105 C27.19454681 105.57993699 27.19454681 105.57993699 29.625 105.6875 C30.44226563 105.75324219 31.25953125 105.81898438 32.1015625 105.88671875 C33.04128906 105.94279297 33.04128906 105.94279297 34 106 C34.90413673 109.83724172 35.10576898 113.37502274 35.0625 117.3125 C35.05347656 118.38113281 35.04445313 119.44976562 35.03515625 120.55078125 C35.02355469 121.35902344 35.01195312 122.16726563 35 123 C31.79182025 124.60408988 28.3332767 124.22619086 24.8125 124.25 C24.06935547 124.270625 23.32621094 124.29125 22.56054688 124.3125 C16.0028834 124.35847836 11.37864679 123.00022571 6.25 118.6875 C1.86204196 113.44632789 -0.12826657 108.25698872 -0.12025452 101.49481201 C-0.12162918 100.59741302 -0.12300385 99.70001404 -0.12442017 98.77542114 C-0.12082489 97.79862396 -0.11722961 96.82182678 -0.11352539 95.81542969 C-0.11367142 94.7809671 -0.11381744 93.74650452 -0.1139679 92.68069458 C-0.11327117 89.26106673 -0.10548994 85.84149334 -0.09765625 82.421875 C-0.09579122 80.05104604 -0.09436772 77.68021669 -0.09336853 75.30938721 C-0.08955006 69.06883684 -0.07972545 62.82830973 -0.06866455 56.58776855 C-0.05843606 50.2199739 -0.05386782 43.8521755 -0.04882812 37.484375 C-0.03810261 24.98957147 -0.0205112 12.49479131 0 0 Z " fill="#020202" transform="translate(662,235)"/>
<path d="M0 0 C27.39 0 54.78 0 83 0 C83 7.92 83 15.84 83 24 C82.01 24 81.02 24 80 24 C79.82984375 23.33613281 79.6596875 22.67226562 79.484375 21.98828125 C77.73895612 15.62864332 76.26891061 10.96038066 70.35546875 7.4140625 C66.56710826 5.81757065 63.17418418 5.44982698 59.125 5.3125 C58.43664062 5.27833984 57.74828125 5.24417969 57.0390625 5.20898438 C55.35991387 5.12735909 53.67998832 5.0619843 52 5 C52.0612303 15.0837631 52.13835042 25.16726779 52.23571491 35.25075054 C52.28042773 39.93301864 52.31968185 44.61519954 52.34643555 49.29760742 C52.37245944 53.81705836 52.41285535 58.33617393 52.46318626 62.85541725 C52.47986117 64.57892495 52.49137157 66.30249067 52.49761391 68.02606773 C52.50724832 70.44180774 52.53529873 72.85668855 52.56762695 75.2722168 C52.56619186 75.98359802 52.56475677 76.69497925 52.5632782 77.42791748 C52.65299683 82.17338449 53.58644226 85.58644226 57 89 C58.51469448 89.23192865 60.03754562 89.41215238 61.5625 89.5625 C62.80193359 89.68818359 62.80193359 89.68818359 64.06640625 89.81640625 C64.70449219 89.87699219 65.34257813 89.93757813 66 90 C66 90.99 66 91.98 66 93 C49.83 93 33.66 93 17 93 C17 92.01 17 91.02 17 90 C17.61488281 89.97421875 18.22976563 89.9484375 18.86328125 89.921875 C19.67152344 89.86515625 20.47976563 89.8084375 21.3125 89.75 C22.11300781 89.70359375 22.91351562 89.6571875 23.73828125 89.609375 C26.07869173 89.17339035 26.07869173 89.17339035 27.61433411 87.44927979 C29.52016759 84.08056049 29.43974614 80.97158284 29.43237305 77.20214844 C29.4425647 76.42127869 29.45275635 75.64040894 29.46325684 74.83587646 C29.49339982 72.26030312 29.50265461 69.68510161 29.51171875 67.109375 C29.5285645 65.32145958 29.5467146 63.53355601 29.56611633 61.7456665 C29.61363387 57.04394229 29.64343186 52.34226613 29.66955566 47.64038086 C29.69935234 42.84088654 29.74588574 38.0415578 29.79101562 33.2421875 C29.87706868 23.82821158 29.94440507 14.41420161 30 5 C27.62246262 5.06049713 25.25080939 5.14767113 22.875 5.25 C22.20984375 5.26417969 21.5446875 5.27835938 20.859375 5.29296875 C15.82743481 5.53963248 12.91441153 6.89058154 9 10 C5.44261286 14.17422624 3.41362357 18.4850191 3 24 C2.01 24 1.02 24 0 24 C0 16.08 0 8.16 0 0 Z " fill="#050505" transform="translate(820,139)"/>
<path d="M0 0 C7.59 0 15.18 0 23 0 C23 29.04 23 58.08 23 88 C15.41 88 7.82 88 0 88 C0 58.96 0 29.92 0 0 Z " fill="#0C0C0C" transform="translate(882,270)"/>
<path d="M0 0 C1.95629444 1.95629444 2.63780718 3.20144001 3.74609375 5.671875 C5.92088842 10.13226908 8.75594075 13.58235637 12.0625 17.25 C13.1168964 18.44181468 14.17031102 19.63449879 15.22265625 20.828125 C15.70750488 21.37533203 16.19235352 21.92253906 16.69189453 22.48632812 C18.22307731 24.25813351 19.63771215 26.09562529 21 28 C5.41479688 38.28149331 -9.89795128 45.47393837 -29 43 C-32.64771205 41.56733315 -35.18628312 39.69924018 -38 37 C-38.57105469 36.505 -39.14210937 36.01 -39.73046875 35.5 C-44.81484147 30.47839731 -46.43577578 23.80897602 -48 17 C-48 16.01 -48 15.02 -48 14 C-32.07250692 9.06277197 -16.0764935 4.42739106 0 0 Z " fill="#FCFCFC" transform="translate(213,309)"/>
<path d="M0 0 C5.0162485 2.87969821 8.44577801 8.00937984 10.3359375 13.41796875 C12.14392174 24.44667262 10.56677131 35.0597503 4.6875 44.5625 C1.2610881 49.10896922 -2.19605991 52.20566597 -6.9375 55.3125 C-7.50984375 55.69792969 -8.0821875 56.08335937 -8.671875 56.48046875 C-10.21307873 57.51630103 -11.76241019 58.54001332 -13.3125 59.5625 C-14.3025 60.2225 -15.2925 60.8825 -16.3125 61.5625 C-17.3025 61.5625 -18.2925 61.5625 -19.3125 61.5625 C-20.25574916 59.27306029 -21.19209963 56.98115576 -22.125 54.6875 C-22.38603516 54.05585938 -22.64707031 53.42421875 -22.91601562 52.7734375 C-26.77592937 43.24278628 -28.83863528 34.84303547 -28.8125 24.5 C-28.84085938 23.47583984 -28.86921875 22.45167969 -28.8984375 21.39648438 C-28.91657903 14.29861044 -27.57489509 9.29853737 -23.3125 3.5625 C-17.00283141 -2.44670819 -8.03957801 -3.41449259 0 0 Z " fill="#020202" transform="translate(233.3125,185.4375)"/>
<path d="M0 0 C8.91 0 17.82 0 27 0 C27.33 29.04 27.66 58.08 28 88 C29.65 88.66 31.3 89.32 33 90 C33 90.99 33 91.98 33 93 C22.11 93 11.22 93 0 93 C0 92.01 0 91.02 0 90 C0.969375 89.71125 1.93875 89.4225 2.9375 89.125 C6.10664203 88.35785318 6.10664203 88.35785318 7 86 C7.10331131 83.47799213 7.14681323 80.9834051 7.14526367 78.4609375 C7.14862228 77.68357239 7.1519809 76.90620728 7.15544128 76.10528564 C7.1649621 73.52850764 7.16689484 70.95179451 7.16796875 68.375 C7.17118011 66.58902967 7.17454408 64.80305961 7.17805481 63.01708984 C7.1840486 59.27115265 7.18589441 55.52523853 7.18530273 51.77929688 C7.185201 46.97038807 7.19886398 42.16162654 7.21607494 37.35275269 C7.22717125 33.66397415 7.22922269 29.97523151 7.22869301 26.28643799 C7.2298763 24.51295462 7.23431747 22.73947043 7.24202538 20.96600342 C7.25177936 18.49025016 7.24896579 16.01482053 7.24291992 13.5390625 C7.24853943 12.80133606 7.25415894 12.06360962 7.25994873 11.30352783 C7.36066124 7.19927007 7.36066124 7.19927007 5 4 C2.42938689 3.35232207 2.42938689 3.35232207 0 3 C0 2.01 0 1.02 0 0 Z " fill="#060606" transform="translate(1033,139)"/>
<path d="M0 0 C4.65238727 2.66924846 7.63507618 5.95146063 9.796875 10.9296875 C12.3161719 20.67538865 12.55413666 34.4657543 7.95703125 43.5625 C4.78460062 48.0917548 0.92063977 50.60746459 -4.3125 52.375 C-10.47495732 53.06569755 -16.14036744 53.10374673 -21.3125 49.375 C-26.84097163 44.09963912 -29.31868317 39.2145256 -29.61328125 31.4765625 C-29.62779002 29.65109514 -29.63142787 27.8255137 -29.625 26 C-29.64111328 25.0925 -29.65722656 24.185 -29.67382812 23.25 C-29.67903824 16.01836604 -28.48625279 9.99305688 -24.0625 4.0625 C-17.46538805 -2.38467759 -8.39660329 -3.7863928 0 0 Z " fill="#FCFCFC" transform="translate(977.3125,288.625)"/>
<path d="M0 0 C4.65238727 2.66924846 7.63507618 5.95146063 9.796875 10.9296875 C12.3161719 20.67538865 12.55413666 34.4657543 7.95703125 43.5625 C4.78460062 48.0917548 0.92063977 50.60746459 -4.3125 52.375 C-10.47495732 53.06569755 -16.14036744 53.10374673 -21.3125 49.375 C-26.84097163 44.09963912 -29.31868317 39.2145256 -29.61328125 31.4765625 C-29.62779002 29.65109514 -29.63142787 27.8255137 -29.625 26 C-29.64111328 25.0925 -29.65722656 24.185 -29.67382812 23.25 C-29.67903824 16.01836604 -28.48625279 9.99305688 -24.0625 4.0625 C-17.46538805 -2.38467759 -8.39660329 -3.7863928 0 0 Z " fill="#FCFCFC" transform="translate(608.3125,288.625)"/>
<path d="M0 0 C1.12148437 -0.01417969 2.24296875 -0.02835938 3.3984375 -0.04296875 C6.60422005 0.18601572 8.70790441 0.91898297 11.625 2.1875 C16.32990411 2.51766871 18.32808151 2.33595925 22.625 0.1875 C23.12 10.5825 23.12 10.5825 23.625 21.1875 C22.965 21.1875 22.305 21.1875 21.625 21.1875 C20.64581934 19.64204619 19.74127417 18.04895626 18.875 16.4375 C15.61604061 10.80404208 12.8668409 8.26811363 6.625 6.1875 C4.7735555 6.06920563 2.91767862 6.01235139 1.0625 6 C0.09183594 5.98582031 -0.87882812 5.97164062 -1.87890625 5.95703125 C-4.54898916 5.93542254 -4.54898916 5.93542254 -6.375 8.1875 C-6.7640562 11.5747476 -6.7640562 11.5747476 -5.375 15.1875 C-0.0083068 20.42200864 7.66508115 23.2627376 14.390625 26.37890625 C20.11237862 29.57838925 25.52238767 34.87966301 27.625 41.1875 C28.18949238 47.73561159 27.10092452 52.55930024 23.625 58.1875 C19.61009599 62.85034241 14.16592213 65.79525825 8.05078125 66.47265625 C2.38592121 66.65437421 -2.14881686 65.85252408 -7.43359375 63.8671875 C-9.88092167 63.01037652 -11.81440685 62.72193761 -14.375 63.1875 C-15.035 64.1775 -15.695 65.1675 -16.375 66.1875 C-17.035 66.1875 -17.695 66.1875 -18.375 66.1875 C-18.375 58.9275 -18.375 51.6675 -18.375 44.1875 C-15.375 47.1875 -15.375 47.1875 -13.625 50 C-10.41267103 54.55079938 -6.72938135 58.40270622 -1.375 60.1875 C0.10086615 60.30437338 1.58206612 60.36251742 3.0625 60.375 C3.82433594 60.38917969 4.58617187 60.40335938 5.37109375 60.41796875 C7.8982592 60.15955842 9.47925032 59.53154101 11.625 58.1875 C13.04541821 55.34666359 12.93952272 53.33272722 12.625 50.1875 C8.73461037 45.06745043 2.32346977 42.77964226 -3.2890625 39.98632812 C-9.17306023 36.99344563 -14.22059025 34.06004634 -18.25 28.6875 C-20.36456171 22.10886357 -20.68566417 15.01046898 -17.75 8.6875 C-12.21108748 2.85706577 -8.27811866 0.04735766 0 0 Z " fill="#070707" transform="translate(1090.375,167.8125)"/>
<path d="M0 0 C2.76359658 1.1218791 3.23955432 2.40410937 4.54296875 5.05737305 C4.98592285 5.93594971 5.42887695 6.81452637 5.88525391 7.71972656 C6.34464355 8.66130615 6.8040332 9.60288574 7.27734375 10.57299805 C11.05400536 18.07738102 14.98527854 25.28692641 19.56640625 32.3269043 C20.89767779 34.60145648 21.46612269 36.29079813 22.02734375 38.82299805 C9.79729778 42.61408591 -2.45797618 46.29681818 -14.78515625 49.76049805 C-15.86982178 50.06673096 -16.9544873 50.37296387 -18.07202148 50.68847656 C-19.07692627 50.96876709 -20.08183105 51.24905762 -21.1171875 51.5378418 C-22.00768799 51.78655029 -22.89818848 52.03525879 -23.81567383 52.29150391 C-25.97265625 52.82299805 -25.97265625 52.82299805 -27.97265625 52.82299805 C-28.30265625 53.48299805 -28.63265625 54.14299805 -28.97265625 54.82299805 C-32.7422329 46.57231823 -31.68686562 38.00359919 -28.91015625 29.57299805 C-26.47761885 23.40965892 -23.46999826 18.65693946 -18.97265625 13.82299805 C-18.34230469 13.12561523 -17.71195313 12.42823242 -17.0625 11.7097168 C-5.50254838 -0.49373114 -5.50254838 -0.49373114 0 0 Z " fill="#030303" transform="translate(192.97265625,270.177001953125)"/>
<path d="M0 0 C2.9375 2.4375 2.9375 2.4375 5 5 C5.598125 5.721875 6.19625 6.44375 6.8125 7.1875 C8.88735278 12.101625 8.87441704 17.15443947 7.30859375 22.25 C4.47016907 28.52066205 -0.33317704 33.00238303 -6.828125 35.48828125 C-15.01503098 37.41721054 -22.61589263 36.67384724 -29.90625 32.49609375 C-34.12937934 29.47844723 -36.93953805 25.7748966 -39 21 C-39.88832193 15.50479923 -39.12477092 10.6990611 -36.3984375 5.85546875 C-27.52427478 -5.91890916 -12.25074967 -6.82320235 0 0 Z " fill="#FAFAFA" transform="translate(424,24)"/>
<path d="M0 0 C18.81 0 37.62 0 57 0 C57 1.98 57 3.96 57 6 C56.20335937 6.17015625 55.40671875 6.3403125 54.5859375 6.515625 C44.2104756 8.88860169 38.50025441 12.66269799 32 21 C30.03529712 24.13811687 28.34564041 27.37905291 26.6875 30.6875 C26.25888672 31.51572266 25.83027344 32.34394531 25.38867188 33.19726562 C23.73783642 36.41394813 22.16842483 39.53435488 20.9375 42.9375 C19.47146235 46.16278283 17.28235853 46.87101047 14.17578125 48.28515625 C10.95998168 49.34169363 8.3589858 49.27991548 5 49 C5.6496875 47.1746875 5.6496875 47.1746875 6.3125 45.3125 C9.87323757 34.47768424 13.27475426 22.60027414 10.26953125 11.23828125 C9.17782094 8.84560648 9.17782094 8.84560648 6.8359375 7.85546875 C6.02382813 7.63503906 5.21171875 7.41460937 4.375 7.1875 C3.55773437 6.95417969 2.74046875 6.72085938 1.8984375 6.48046875 C1.27195312 6.32191406 0.64546875 6.16335937 0 6 C0 4.02 0 2.04 0 0 Z " fill="#F4F4F4" transform="translate(263,243)"/>
<path d="M0 0 C2.15625 0.34375 2.15625 0.34375 4.59375 1.90625 C9.15660933 9.02431055 8.49596861 17.35476884 8.47192383 25.4765625 C8.46876772 27.70622865 8.49225405 29.93456016 8.51757812 32.1640625 C8.59347096 49.29273959 8.59347096 49.29273959 3.40625 55.40625 C0.11328716 56.77831785 -2.31723714 56.78456411 -5.84375 56.34375 C-10.07371813 53.2570165 -11.41989515 49.56202685 -12.37890625 44.54296875 C-13.19001396 38.55547643 -13.06859711 32.49915627 -13.09375 26.46875 C-13.114375 25.24027344 -13.135 24.01179688 -13.15625 22.74609375 C-13.22259681 7.27069968 -13.22259681 7.27069968 -8.37182617 1.63305664 C-5.79556066 -0.54065452 -3.23569481 -0.12606603 0 0 Z " fill="#F8F8F8" transform="translate(999.84375,172.65625)"/>
<path d="M0 0 C2.15625 0.37890625 2.15625 0.37890625 4.59375 1.94140625 C7.94566647 7.17039594 8.41091785 12.69494265 8.421875 18.78125 C8.42378845 19.46264542 8.4257019 20.14404083 8.42767334 20.84608459 C8.42902508 22.27719495 8.42539988 23.708318 8.41699219 25.1394043 C8.40629437 27.30741463 8.41691297 29.4745934 8.4296875 31.64257812 C8.44819033 48.2356738 8.44819033 48.2356738 3.96875 54.37890625 C0.37078461 56.93745942 -1.51589998 57.08709989 -5.84375 56.37890625 C-10.03106856 53.54963695 -10.71632665 50.14991293 -11.84375 45.37890625 C-12.02542992 42.63228291 -12.12499935 39.99255997 -12.109375 37.25 C-12.11128845 36.4972731 -12.1132019 35.7445462 -12.11517334 34.9690094 C-12.116526 33.38827172 -12.11289423 31.80752257 -12.10449219 30.22680664 C-12.09376409 27.81956881 -12.10442624 25.41307456 -12.1171875 23.00585938 C-12.11586603 21.46223795 -12.11330391 19.91861699 -12.109375 18.375 C-12.11342346 17.66234482 -12.11747192 16.94968964 -12.12164307 16.21543884 C-12.07246531 10.92910529 -10.9218722 6.78882647 -8.78125 2.00390625 C-5.97503179 -0.34969612 -3.57643129 -0.17998274 0 0 Z " fill="#FCFCFC" transform="translate(931.84375,172.62109375)"/>
<path d="M0 0 C4.16372198 -0.09218573 8.32386084 -0.17169966 12.48779297 -0.21972656 C13.90197795 -0.23975843 15.31608097 -0.26699248 16.72998047 -0.30175781 C18.77071419 -0.35065489 20.8103469 -0.37305123 22.8515625 -0.390625 C24.68968506 -0.4220459 24.68968506 -0.4220459 26.56494141 -0.45410156 C30.92002965 0.12162439 33.88917679 1.88917679 37 5 C37.4608 12.0272 37.4608 12.0272 35.875 15.375 C31.66093693 19.027188 26.65549552 19.24454583 21.2890625 19.1953125 C20.04511719 19.18886719 18.80117187 19.18242187 17.51953125 19.17578125 C16.23433594 19.15902344 14.94914062 19.14226562 13.625 19.125 C12.31660156 19.11597656 11.00820312 19.10695312 9.66015625 19.09765625 C6.44002542 19.07415165 3.21998905 19.03828256 0 19 C0 12.73 0 6.46 0 0 Z " fill="#040404" transform="translate(82,114)"/>
<path d="M0 0 C4.38773175 2.19386588 7.09334197 4.44520582 9 9 C9.56872801 14.21334006 8.9156441 17.62653385 6 22 C2.62833366 25.05055526 -0.02588404 26.27403455 -4.5 26.5 C-8.97411596 26.27403455 -11.62833366 25.05055526 -15 22 C-17.66073201 18.09759306 -18.60034013 14.61887728 -18.421875 9.9609375 C-17.6380264 6.31749306 -15.67324109 4.55173013 -13 2 C-8.76507186 -0.54444242 -4.82574998 -0.67862109 0 0 Z " fill="#060606" transform="translate(898,234)"/>
<path d="M0 0 C3.52130364 -0.08133037 7.04070754 -0.14066172 10.5625 -0.1875 C11.55314453 -0.21263672 12.54378906 -0.23777344 13.56445312 -0.26367188 C20.4413672 -0.33221255 25.15429977 0.39484823 30.9375 4.3125 C32.65527844 7.04073635 32.50344157 8.8534902 32 12 C29.827365 14.57285724 28.02006162 16.48996919 25 18 C23.1136088 18.084915 21.22421485 18.107193 19.3359375 18.09765625 C18.21445313 18.09443359 17.09296875 18.09121094 15.9375 18.08789062 C14.761875 18.07951172 13.58625 18.07113281 12.375 18.0625 C11.19164063 18.05798828 10.00828125 18.05347656 8.7890625 18.04882812 C5.85935361 18.03701478 2.92967059 18.0190789 0 18 C0 12.06 0 6.12 0 0 Z " fill="#070707" transform="translate(82,69)"/>
<path d="M0 0 C2.44636721 1.70804918 3.60969714 3.46953522 4.734375 6.2109375 C4.734375 7.2009375 4.734375 8.1909375 4.734375 9.2109375 C-4.835625 9.2109375 -14.405625 9.2109375 -24.265625 9.2109375 C-23.17717647 3.76869485 -22.36545473 2.65852159 -18.265625 -0.7890625 C-11.97550897 -4.26517925 -6.07285091 -3.31888363 0 0 Z " fill="#050505" transform="translate(625.265625,94.7890625)"/>
<path d="M0 0 C0.33 0.66 0.66 1.32 1 2 C-0.14337946 4.76833734 -1.34846706 7.39139617 -2.6875 10.0625 C-3.04005859 10.80822266 -3.39261719 11.55394531 -3.75585938 12.32226562 C-4.28469727 13.38670898 -4.28469727 13.38670898 -4.82421875 14.47265625 C-5.14479248 15.12500244 -5.46536621 15.77734863 -5.7956543 16.44946289 C-7 18 -7 18 -11 19 C-13.97 15.04 -16.94 11.08 -20 7 C-17.41866846 5.2791123 -15.87205794 4.5348737 -12.98828125 3.7109375 C-12.23095703 3.49179687 -11.47363281 3.27265625 -10.69335938 3.046875 C-9.51483398 2.71429688 -9.51483398 2.71429688 -8.3125 2.375 C-7.51521484 2.14554687 -6.71792969 1.91609375 -5.89648438 1.6796875 C-3.9323213 1.11513764 -1.96633153 0.55695012 0 0 Z " fill="#F5F5F5" transform="translate(265,294)"/>
<path d="M0 0 C8.58 0 17.16 0 26 0 C26 0.33 26 0.66 26 1 C18.74 1 11.48 1 4 1 C4 1.66 4 2.32 4 3 C2.68 3 1.36 3 0 3 C0 2.01 0 1.02 0 0 Z " fill="#111111" transform="translate(1033,139)"/>
</svg>
